<?xml version="1.0" encoding="utf-8"?>
<!-- Generator: Adobe Illustrator 24.2.3, SVG Export Plug-In . SVG Version: 6.00 Build 0)  -->
<svg version="1.1" id="Layer_1" xmlns="http://www.w3.org/2000/svg" xmlns:xlink="http://www.w3.org/1999/xlink" x="0px" y="0px"
	 viewBox="0 0 103 103" style="enable-background:new 0 0 103 103;" xml:space="preserve">
<style type="text/css">
	.st0{fill:#FFFFFF;stroke:#070606;stroke-width:3;stroke-miterlimit:10;}
	.st1{fill:none;stroke:#070606;stroke-width:2;stroke-linecap:round;stroke-linejoin:round;}
	.st2{fill:#070606;}
	.st3{enable-background:new    ;}
	.st4{fill:#231815;}
	.st5{fill:none;stroke:#070606;stroke-width:3;stroke-linecap:round;stroke-linejoin:round;}
	.st6{fill:#040000;}
	.st7{fill:none;stroke:#221F20;stroke-width:3;stroke-miterlimit:10;}
</style>
<g id="a">
</g>
<g id="c">
	<path id="d" class="st0" d="M9.3,1.5h84.4c4.3,0,7.8,3.5,7.8,7.8v84.4c0,4.3-3.5,7.8-7.8,7.8H9.3c-4.3,0-7.8-3.5-7.8-7.8V9.3
		C1.5,5,5,1.5,9.3,1.5z"/>
</g>
<g id="e">
	<g>
		<line class="st1" x1="22.9" y1="55.1" x2="22.9" y2="72.9"/>
		<polygon class="st2" points="16.5,67.7 17.7,66.6 22.9,72.2 28.2,66.6 29.3,67.7 22.9,74.5 		"/>
	</g>
</g>
<g id="f">
	<g class="st3">
		<path class="st4" d="M14.8,6c0-0.2,0.1-0.3,0.3-0.3h4.4c0.4,0,0.8,0.1,1.1,0.2C21,6,21.3,6.2,21.5,6.5s0.5,0.6,0.6,0.9
			c0.1,0.3,0.2,0.7,0.2,1.1c0,0.3-0.1,0.6-0.2,0.9c-0.1,0.3-0.2,0.5-0.4,0.8c0.3,0.3,0.6,0.6,0.8,1c0.2,0.4,0.3,0.8,0.3,1.3
			c0,0.4-0.1,0.8-0.2,1.1c-0.2,0.4-0.4,0.7-0.6,1c-0.3,0.3-0.6,0.5-0.9,0.7c-0.4,0.2-0.7,0.2-1.1,0.2h-4.8c-0.2,0-0.3-0.1-0.3-0.3V6
			z M17.4,7.6v1.9h1.4c0.2,0,0.3,0,0.4-0.1c0.1,0,0.2-0.1,0.3-0.2c0.1-0.1,0.2-0.2,0.2-0.3c0.1-0.1,0.1-0.2,0.1-0.4
			c0-0.1,0-0.3-0.1-0.4S19.7,8,19.6,7.9c-0.1-0.1-0.2-0.2-0.3-0.2c-0.1-0.1-0.3-0.1-0.4-0.1H17.4z M17.4,11.3v2.2h1.8
			c0.1,0,0.3,0,0.4-0.1c0.1-0.1,0.2-0.1,0.3-0.2c0.1-0.1,0.2-0.2,0.2-0.4s0.1-0.3,0.1-0.4c0-0.1,0-0.3-0.1-0.4s-0.1-0.3-0.2-0.4
			c-0.1-0.1-0.2-0.2-0.3-0.3c-0.1-0.1-0.3-0.1-0.4-0.1H17.4z"/>
		<path class="st4" d="M30.2,12.7c0.1,0,0.1,0,0.2,0.1l0.9,1.2c0.1,0.1,0.1,0.2,0.1,0.2c0,0.1,0,0.1-0.1,0.2
			c-0.3,0.2-0.6,0.4-0.8,0.6c-0.3,0.2-0.5,0.3-0.8,0.4c-0.3,0.1-0.5,0.1-0.8,0.2c-0.3,0-0.5,0-0.8,0c-0.6,0-1.1-0.1-1.6-0.3
			c-0.5-0.2-1-0.5-1.4-0.9c-0.4-0.4-0.7-0.9-1-1.4c-0.2-0.5-0.4-1.1-0.4-1.7c0-0.6,0.1-1.2,0.3-1.7c0.2-0.5,0.5-1,0.9-1.4
			c0.4-0.4,0.8-0.7,1.4-0.9C26.7,7.1,27.3,7,28,7c0.3,0,0.5,0,0.8,0.1c0.3,0.1,0.6,0.2,0.9,0.3C30,7.5,30.2,7.7,30.5,8
			c0.3,0.2,0.5,0.5,0.7,0.8s0.4,0.7,0.5,1.1c0.1,0.4,0.2,0.9,0.2,1.4c0,0.2,0,0.3-0.1,0.4s-0.1,0.2-0.2,0.3s-0.2,0.1-0.3,0.1
			c-0.1,0-0.3,0-0.5,0h-4.8c0.1,0.2,0.2,0.4,0.3,0.6c0.1,0.2,0.3,0.3,0.4,0.5c0.2,0.1,0.4,0.2,0.6,0.3c0.2,0.1,0.4,0.1,0.6,0.1
			c0.3,0,0.6,0,0.8-0.1s0.4-0.1,0.5-0.2c0.1-0.1,0.3-0.2,0.4-0.2c0.1-0.1,0.2-0.2,0.3-0.2C30.1,12.8,30.1,12.7,30.2,12.7z M27.3,9.1
			c-0.2,0.1-0.3,0.2-0.5,0.3c-0.1,0.1-0.3,0.2-0.4,0.4c-0.1,0.1-0.2,0.3-0.3,0.5h3.4c-0.2-0.4-0.4-0.7-0.7-0.9
			c-0.3-0.2-0.6-0.3-1-0.3C27.7,9,27.5,9,27.3,9.1z"/>
		<path class="st4" d="M41.8,15.2c0,0.2-0.1,0.3-0.3,0.3h-1.6c-0.1,0-0.1,0-0.2-0.1c-0.1,0-0.1-0.1-0.1-0.2c0-0.1-0.1-0.1-0.1-0.2
			c0-0.1-0.1-0.1-0.1-0.2l-0.1-0.2c-0.3,0.3-0.6,0.5-1,0.7c-0.4,0.2-0.8,0.3-1.2,0.3c-0.6,0-1.1-0.1-1.6-0.3s-0.9-0.5-1.3-0.9
			c-0.4-0.4-0.7-0.8-0.9-1.4c-0.2-0.5-0.3-1.1-0.3-1.8c0-0.6,0.1-1.2,0.3-1.7c0.2-0.5,0.5-1,0.8-1.4c0.4-0.4,0.8-0.7,1.3-0.9
			C36,7.1,36.6,7,37.2,7C37.6,7,38,7,38.4,7.2s0.7,0.3,0.9,0.6V4.9c0-0.2,0.1-0.3,0.3-0.3h1.9c0.2,0,0.3,0.1,0.3,0.3V15.2z
			 M39.3,10.5c-0.1-0.3-0.3-0.5-0.5-0.7s-0.4-0.3-0.7-0.4c-0.3-0.1-0.5-0.2-0.8-0.2c-0.3,0-0.5,0.1-0.8,0.2
			c-0.2,0.1-0.4,0.3-0.6,0.5c-0.2,0.2-0.3,0.4-0.4,0.7c-0.1,0.3-0.1,0.5-0.1,0.8c0,0.3,0,0.6,0.1,0.8c0.1,0.3,0.2,0.5,0.4,0.7
			c0.2,0.2,0.4,0.3,0.6,0.4s0.5,0.2,0.8,0.2c0.3,0,0.6-0.1,0.8-0.2c0.3-0.1,0.5-0.3,0.7-0.4c0.2-0.2,0.3-0.4,0.5-0.7
			s0.2-0.5,0.2-0.8C39.5,11,39.4,10.7,39.3,10.5z"/>
		<path class="st4" d="M52.2,14.1c0,0.8-0.1,1.4-0.4,2c-0.2,0.6-0.6,1-1,1.4c-0.4,0.4-0.9,0.6-1.4,0.8c-0.5,0.2-1,0.3-1.6,0.3
			c-0.3,0-0.6,0-0.9-0.1c-0.3,0-0.6-0.1-0.9-0.2s-0.6-0.2-0.8-0.4c-0.3-0.2-0.5-0.3-0.7-0.5c-0.1-0.1-0.1-0.2-0.1-0.2
			c0-0.1,0.1-0.1,0.1-0.2l0.8-1.1c0.1-0.1,0.2-0.2,0.3-0.2c0.1,0,0.2,0,0.3,0.1c0.2,0.2,0.5,0.3,0.8,0.4c0.3,0.1,0.7,0.2,1.1,0.2
			c0.2,0,0.5,0,0.7-0.1c0.2-0.1,0.5-0.2,0.7-0.4c0.2-0.2,0.3-0.3,0.5-0.6c0.1-0.2,0.2-0.5,0.2-0.8v-0.2c-0.3,0.3-0.6,0.5-1,0.7
			c-0.4,0.2-0.8,0.3-1.2,0.3c-0.5,0-1.1-0.1-1.6-0.3s-0.9-0.5-1.3-0.9s-0.7-0.8-0.9-1.3c-0.2-0.5-0.3-1.1-0.3-1.7
			c0-0.6,0.1-1.1,0.3-1.7c0.2-0.5,0.5-1,0.9-1.4c0.4-0.4,0.8-0.7,1.3-0.9c0.5-0.2,1-0.3,1.6-0.3c0.5,0,1,0.1,1.4,0.3
			c0.4,0.2,0.8,0.5,1.1,0.8l0.2-0.6c0.1-0.1,0.1-0.2,0.1-0.3c0-0.1,0.1-0.1,0.2-0.1h1.3c0.1,0,0.2,0,0.2,0.1s0.1,0.1,0.1,0.2V14.1z
			 M49.8,10.5c-0.1-0.3-0.3-0.5-0.4-0.7S49,9.5,48.7,9.4c-0.3-0.1-0.5-0.2-0.8-0.2c-0.3,0-0.6,0.1-0.8,0.2s-0.4,0.3-0.6,0.5
			s-0.3,0.4-0.4,0.7s-0.1,0.5-0.1,0.8c0,0.3,0,0.6,0.1,0.8c0.1,0.3,0.2,0.5,0.4,0.7c0.2,0.2,0.4,0.3,0.6,0.4
			c0.2,0.1,0.5,0.2,0.8,0.2c0.3,0,0.5-0.1,0.8-0.2c0.2-0.1,0.5-0.3,0.6-0.4c0.2-0.2,0.3-0.4,0.4-0.7c0.1-0.3,0.2-0.5,0.2-0.8
			C50,11,49.9,10.7,49.8,10.5z"/>
	</g>
	<g class="st3">
		<path class="st4" d="M53.8,7.4c0-0.2,0.1-0.3,0.3-0.3h1.1c0.1,0,0.2,0,0.3,0c0.1,0,0.2,0.1,0.2,0.3L56,8.1
			c0.1-0.2,0.3-0.3,0.4-0.4c0.1-0.1,0.3-0.3,0.4-0.4s0.3-0.2,0.5-0.3C57.6,7,57.8,7,58.1,7c0.3,0,0.5,0,0.8,0.1
			c0.3,0.1,0.5,0.2,0.7,0.3s0.4,0.2,0.5,0.4C60.3,7.9,60.4,8,60.4,8c0.1,0.1,0.2,0.2,0.2,0.3c0,0.1,0,0.2-0.1,0.3l-0.9,1.2
			c-0.1,0.1-0.1,0.1-0.2,0.1c-0.1,0-0.1,0-0.2-0.1c-0.1-0.1-0.1-0.1-0.2-0.2c-0.1-0.1-0.2-0.1-0.3-0.2c-0.1-0.1-0.2-0.1-0.4-0.2
			c-0.1,0-0.3-0.1-0.5-0.1c-0.2,0-0.4,0-0.6,0.1c-0.2,0.1-0.3,0.2-0.5,0.3c-0.1,0.1-0.2,0.3-0.3,0.5c-0.1,0.2-0.1,0.4-0.1,0.6v4.6
			c0,0.2-0.1,0.3-0.3,0.3h-2c-0.2,0-0.3-0.1-0.3-0.3V7.4z"/>
	</g>
	<g class="st3">
		<path class="st4" d="M69.6,15.2c0,0.2-0.1,0.3-0.3,0.3h-1.5c-0.1,0-0.1,0-0.2-0.1s-0.1-0.1-0.1-0.2c0-0.1-0.1-0.1-0.1-0.2
			c0-0.1-0.1-0.1-0.1-0.2l-0.1-0.2c-0.3,0.3-0.7,0.6-1,0.7c-0.4,0.2-0.8,0.3-1.3,0.3c-0.6,0-1.1-0.1-1.6-0.3s-1-0.5-1.4-0.9
			c-0.4-0.4-0.7-0.8-0.9-1.4c-0.2-0.5-0.3-1.1-0.3-1.8c0-0.6,0.1-1.2,0.3-1.7c0.2-0.5,0.5-1,0.9-1.4c0.4-0.4,0.8-0.7,1.4-0.9
			C63.8,7.1,64.4,7,65,7c0.5,0,1,0.1,1.4,0.3s0.7,0.5,1,0.8l0.3-0.7c0-0.1,0.1-0.2,0.1-0.2c0,0,0.1-0.1,0.2-0.1h1.4
			c0.2,0,0.3,0.1,0.3,0.3V15.2z M66.9,10.5c-0.1-0.3-0.2-0.5-0.4-0.7c-0.2-0.2-0.4-0.3-0.6-0.5c-0.2-0.1-0.5-0.2-0.8-0.2
			c-0.3,0-0.5,0.1-0.8,0.2s-0.5,0.2-0.6,0.4c-0.2,0.2-0.3,0.4-0.4,0.7c-0.1,0.3-0.2,0.5-0.2,0.9c0,0.3,0.1,0.6,0.2,0.8
			s0.2,0.5,0.4,0.7c0.2,0.2,0.4,0.3,0.6,0.4c0.2,0.1,0.5,0.2,0.8,0.2c0.3,0,0.6-0.1,0.8-0.2s0.5-0.3,0.6-0.5
			c0.2-0.2,0.3-0.4,0.4-0.7s0.2-0.5,0.2-0.8C67.1,11,67.1,10.8,66.9,10.5z"/>
		<path class="st4" d="M71.2,7.3c0-0.1,0-0.2,0.1-0.2S71.4,7,71.5,7h1.4c0.1,0,0.1,0,0.2,0.1s0.1,0.1,0.1,0.1s0,0.1,0.1,0.2
			s0,0.1,0,0.2l0.1,0.6c0.3-0.4,0.6-0.7,1.1-0.9C74.9,7.1,75.4,7,75.9,7c0.6,0,1.1,0.1,1.6,0.3c0.5,0.2,0.9,0.5,1.3,0.9
			s0.7,0.8,0.9,1.4s0.3,1.1,0.3,1.8c0,0.6-0.1,1.2-0.3,1.7c-0.2,0.5-0.5,1-0.8,1.4c-0.4,0.4-0.8,0.7-1.3,0.9
			c-0.5,0.2-1.1,0.3-1.7,0.3c-0.4,0-0.8-0.1-1.2-0.2S74,15,73.8,14.8v3.1c0,0.2-0.1,0.3-0.3,0.3h-1.9c-0.1,0-0.2,0-0.2-0.1
			c-0.1,0-0.1-0.1-0.1-0.2V7.3z M73.7,12.1c0.1,0.2,0.2,0.5,0.4,0.7c0.2,0.2,0.4,0.3,0.6,0.5c0.2,0.1,0.5,0.2,0.8,0.2
			s0.6-0.1,0.8-0.2s0.5-0.3,0.6-0.4c0.2-0.2,0.3-0.4,0.4-0.7c0.1-0.3,0.1-0.5,0.1-0.8c0-0.3,0-0.6-0.1-0.8c-0.1-0.3-0.2-0.5-0.4-0.7
			c-0.2-0.2-0.4-0.3-0.6-0.4s-0.5-0.2-0.9-0.2c-0.3,0-0.6,0.1-0.8,0.2c-0.2,0.1-0.5,0.3-0.6,0.5c-0.2,0.2-0.3,0.4-0.4,0.7
			c-0.1,0.3-0.1,0.5-0.1,0.8S73.6,11.8,73.7,12.1z"/>
		<path class="st4" d="M86.6,11.1c0-0.3,0-0.5-0.1-0.8s-0.2-0.4-0.3-0.6c-0.1-0.2-0.3-0.3-0.4-0.3c-0.2-0.1-0.3-0.1-0.5-0.1
			s-0.4,0-0.5,0.1c-0.2,0.1-0.3,0.2-0.4,0.3c-0.1,0.1-0.2,0.3-0.3,0.5c-0.1,0.2-0.1,0.4-0.1,0.7v4.3c0,0.1,0,0.2-0.1,0.2
			c-0.1,0.1-0.1,0.1-0.2,0.1h-1.9c-0.2,0-0.3-0.1-0.3-0.3V4.9c0-0.1,0-0.2,0.1-0.2s0.1-0.1,0.2-0.1h1.9c0.1,0,0.2,0,0.2,0.1
			s0.1,0.1,0.1,0.2v3c0.3-0.3,0.6-0.5,1-0.7C85.2,7,85.6,7,86,7c0.7,0,1.2,0.1,1.6,0.3c0.4,0.2,0.7,0.5,1,0.9
			c0.2,0.4,0.4,0.9,0.5,1.4c0.1,0.5,0.1,1.1,0.1,1.7v3.9c0,0.1,0,0.2-0.1,0.2c-0.1,0.1-0.1,0.1-0.2,0.1h-1.9c-0.2,0-0.3-0.1-0.3-0.3
			V11.1z"/>
	</g>
</g>
<g id="g">
	<line class="st5" x1="101.5" y1="20.4" x2="1.5" y2="20.4"/>
</g>
<rect x="15.9" y="29.5" class="st6" width="16.2" height="1.1"/>
<rect x="15.9" y="33.8" class="st6" width="28" height="1.1"/>
<rect x="15.9" y="38.2" class="st6" width="43.5" height="1.1"/>
<rect x="15.9" y="42.8" class="st6" width="51.7" height="1.1"/>
<rect x="15.9" y="47.8" class="st6" width="53.3" height="1.1"/>
<rect x="30.5" y="52.7" class="st6" width="45.9" height="1.1"/>
<rect x="38.8" y="57.7" class="st6" width="43.6" height="1.1"/>
<rect x="38.8" y="63.1" class="st6" width="45.1" height="1.1"/>
<rect x="52.7" y="29.5" class="st6" width="38.5" height="1.1"/>
<rect x="69" y="33.8" class="st6" width="22.2" height="1.1"/>
<rect x="74.9" y="38.2" class="st6" width="16.3" height="1.1"/>
<rect x="79.3" y="42.8" class="st6" width="11.9" height="1.1"/>
<path class="st7" d="M16,92.2c0.3,0,5.6,0,7.2,0c0.1,0,0.4,0,0.7-0.1c0.9-0.2,1.6-0.6,1.9-0.8c1-0.6,1.8-1.7,2.4-2.6
	c0.3-0.4,0.9-1.5,1.8-4c0.4-1.2,0.7-2.1,1.3-4.1c0.5-1.6,0.8-2.8,1.2-4.3c0.3-0.9,0.4-1.7,0.8-3.1c0,0,0.4-1.3,1.4-3.4
	c0.1-0.2,0.2-0.4,0.6-0.8c0.1-0.1,0.2-0.2,0.3-0.3c0.1-0.1,0.3-0.1,0.3-0.1c0,0,0.1,0,0.3,0.1c0,0,0.2,0.1,0.4,0.2
	c0.6,0.5,1.2,2.2,1.2,2.2c0.2,0.5,0.3,0.8,0.3,0.9c0.3,0.7,0.4,1.2,0.6,1.8c0.4,1.4,0.4,1.3,0.8,2.7c0.2,0.7,0.1,0.5,0.5,2
	c0.4,1.7,0.8,2.7,0.9,3.1c0.2,0.7,0.3,1,0.4,1.2c0.1,0.4,0.3,1,0.6,1.7c0.3,0.9,0.6,1.7,0.7,1.8c0.5,1.2,0.8,2,1.4,2.9
	c0.4,0.6,0.6,1,1.1,1.5c0.4,0.3,0.9,0.8,1.7,1.1c0.4,0.2,0.9,0.3,1.5,0.4c2.3,0.3,7.3,0.1,7.5,0.1"/>
<path class="st7" d="M47.9,92.2c0.3,0,6.1,0.2,7.8,0.1c0.1,0,0.4,0,0.7,0c1-0.1,1.7-0.2,2-0.3c1.1-0.3,1.9-0.7,2.6-1.1
	c0.3-0.2,1-0.6,2-1.6c0.5-0.5,0.8-0.9,1.4-1.7c0.5-0.6,0.9-1.1,1.3-1.7c0.3-0.4,0.5-0.7,0.9-1.2c0,0,0.4-0.5,1.5-1.4
	c0.1-0.1,0.3-0.2,0.6-0.3c0.1,0,0.2-0.1,0.4-0.1c0.2,0,0.3,0,0.3,0s0.1,0,0.3,0c0,0,0.2,0,0.4,0.1c0.6,0.2,1.3,0.9,1.3,0.9
	c0.2,0.2,0.3,0.3,0.4,0.3c0.3,0.3,0.5,0.5,0.6,0.7c0.4,0.6,0.5,0.5,0.9,1.1c0.2,0.3,0.1,0.2,0.6,0.8c0.5,0.7,0.8,1.1,0.9,1.2
	c0.2,0.3,0.3,0.4,0.4,0.5c0.1,0.1,0.3,0.4,0.6,0.7c0.4,0.4,0.7,0.7,0.7,0.7c0.5,0.5,0.9,0.8,1.5,1.2c0.4,0.3,0.7,0.4,1.2,0.6
	c0.4,0.1,1,0.3,1.9,0.5c0.4,0.1,0.9,0.1,1.7,0.2c2.5,0.1,7.9,0,8.2,0"/>
</svg>
