<?xml version="1.0" encoding="utf-8"?>
<!-- Generator: Adobe Illustrator 24.2.3, SVG Export Plug-In . SVG Version: 6.00 Build 0)  -->
<svg version="1.1" id="Layer_1" xmlns="http://www.w3.org/2000/svg" xmlns:xlink="http://www.w3.org/1999/xlink" x="0px" y="0px"
	 viewBox="0 0 103 103" style="enable-background:new 0 0 103 103;" xml:space="preserve">
<style type="text/css">
	.st0{fill:#FFFFFF;stroke:#070606;stroke-width:3;stroke-miterlimit:10;}
	.st1{fill:none;stroke:#231815;stroke-width:3;stroke-miterlimit:10;}
	.st2{fill:#231815;}
	.st3{fill:none;stroke:#231815;stroke-width:2;stroke-miterlimit:10;}
</style>
<g id="Four_Color_Sequence_Plot">
	<path id="square" class="st0" d="M9.3,1.5h84.4c4.3,0,7.8,3.5,7.8,7.8v84.4c0,4.3-3.5,7.8-7.8,7.8H9.3c-4.3,0-7.8-3.5-7.8-7.8V9.3
		C1.5,5,5,1.5,9.3,1.5z"/>
</g>
<path class="st1" d="M32.7,26c0,0-3.4,2.4-3.4,5.9V72c0,0,0.4,3.6,3.4,5"/>
<path class="st1" d="M50,26c0,0,3.4,2.4,3.4,5.9V72c0,0-0.4,3.6-3.4,5"/>
<path class="st2" d="M34.1,30.3L34.1,30.3c0.8,0,1.4,0.6,1.4,1.4v0c0,0.8-0.6,1.4-1.4,1.4h0c-0.8,0-1.4-0.6-1.4-1.4v0
	C32.7,30.9,33.3,30.3,34.1,30.3z"/>
<path class="st2" d="M34.1,43.1L34.1,43.1c0.8,0,1.4,0.6,1.4,1.4v0c0,0.8-0.6,1.4-1.4,1.4h0c-0.8,0-1.4-0.6-1.4-1.4v0
	C32.7,43.7,33.3,43.1,34.1,43.1z"/>
<path class="st2" d="M34.1,56L34.1,56c0.8,0,1.4,0.6,1.4,1.4v0c0,0.8-0.6,1.4-1.4,1.4h0c-0.8,0-1.4-0.6-1.4-1.4v0
	C32.7,56.6,33.3,56,34.1,56z"/>
<path class="st2" d="M34.1,68.8L34.1,68.8c0.8,0,1.4,0.6,1.4,1.4v0c0,0.8-0.6,1.4-1.4,1.4h0c-0.8,0-1.4-0.6-1.4-1.4v0
	C32.7,69.4,33.3,68.8,34.1,68.8z"/>
<path class="st2" d="M38.6,30.3L38.6,30.3c0.8,0,1.4,0.6,1.4,1.4v0c0,0.8-0.6,1.4-1.4,1.4h0c-0.8,0-1.4-0.6-1.4-1.4v0
	C37.2,30.9,37.9,30.3,38.6,30.3z"/>
<path class="st2" d="M38.6,43.1L38.6,43.1c0.8,0,1.4,0.6,1.4,1.4v0c0,0.8-0.6,1.4-1.4,1.4h0c-0.8,0-1.4-0.6-1.4-1.4v0
	C37.2,43.7,37.9,43.1,38.6,43.1z"/>
<path class="st2" d="M38.6,56L38.6,56c0.8,0,1.4,0.6,1.4,1.4v0c0,0.8-0.6,1.4-1.4,1.4h0c-0.8,0-1.4-0.6-1.4-1.4v0
	C37.2,56.6,37.9,56,38.6,56z"/>
<path class="st2" d="M38.6,68.8L38.6,68.8c0.8,0,1.4,0.6,1.4,1.4v0c0,0.8-0.6,1.4-1.4,1.4h0c-0.8,0-1.4-0.6-1.4-1.4v0
	C37.2,69.4,37.9,68.8,38.6,68.8z"/>
<path class="st2" d="M43.4,30.3L43.4,30.3c0.8,0,1.4,0.6,1.4,1.4v0c0,0.8-0.6,1.4-1.4,1.4h0c-0.8,0-1.4-0.6-1.4-1.4v0
	C42,30.9,42.6,30.3,43.4,30.3z"/>
<path class="st2" d="M43.4,43.1L43.4,43.1c0.8,0,1.4,0.6,1.4,1.4v0c0,0.8-0.6,1.4-1.4,1.4h0c-0.8,0-1.4-0.6-1.4-1.4v0
	C42,43.7,42.6,43.1,43.4,43.1z"/>
<path class="st2" d="M43.4,56L43.4,56c0.8,0,1.4,0.6,1.4,1.4v0c0,0.8-0.6,1.4-1.4,1.4h0c-0.8,0-1.4-0.6-1.4-1.4v0
	C42,56.6,42.6,56,43.4,56z"/>
<path class="st2" d="M43.4,68.8L43.4,68.8c0.8,0,1.4,0.6,1.4,1.4v0c0,0.8-0.6,1.4-1.4,1.4h0c-0.8,0-1.4-0.6-1.4-1.4v0
	C42,69.4,42.6,68.8,43.4,68.8z"/>
<path class="st2" d="M48,30.3L48,30.3c0.8,0,1.4,0.6,1.4,1.4v0c0,0.8-0.6,1.4-1.4,1.4h0c-0.8,0-1.4-0.6-1.4-1.4v0
	C46.6,30.9,47.2,30.3,48,30.3z"/>
<path class="st2" d="M48,43.1L48,43.1c0.8,0,1.4,0.6,1.4,1.4v0c0,0.8-0.6,1.4-1.4,1.4h0c-0.8,0-1.4-0.6-1.4-1.4v0
	C46.6,43.7,47.2,43.1,48,43.1z"/>
<path class="st2" d="M48,56L48,56c0.8,0,1.4,0.6,1.4,1.4v0c0,0.8-0.6,1.4-1.4,1.4h0c-0.8,0-1.4-0.6-1.4-1.4v0
	C46.6,56.6,47.2,56,48,56z"/>
<path class="st2" d="M48,68.8L48,68.8c0.8,0,1.4,0.6,1.4,1.4v0c0,0.8-0.6,1.4-1.4,1.4h0c-0.8,0-1.4-0.6-1.4-1.4v0
	C46.6,69.4,47.2,68.8,48,68.8z"/>
<path class="st2" d="M74.3,30.3L74.3,30.3c0.8,0,1.4,0.6,1.4,1.4v0c0,0.8-0.6,1.4-1.4,1.4h0c-0.8,0-1.4-0.6-1.4-1.4v0
	C72.9,30.9,73.5,30.3,74.3,30.3z"/>
<path class="st2" d="M74.3,43.1L74.3,43.1c0.8,0,1.4,0.6,1.4,1.4v0c0,0.8-0.6,1.4-1.4,1.4h0c-0.8,0-1.4-0.6-1.4-1.4v0
	C72.9,43.7,73.5,43.1,74.3,43.1z"/>
<path class="st2" d="M74.3,56L74.3,56c0.8,0,1.4,0.6,1.4,1.4v0c0,0.8-0.6,1.4-1.4,1.4h0c-0.8,0-1.4-0.6-1.4-1.4v0
	C72.9,56.6,73.5,56,74.3,56z"/>
<path class="st2" d="M74.3,68.8L74.3,68.8c0.8,0,1.4,0.6,1.4,1.4v0c0,0.8-0.6,1.4-1.4,1.4h0c-0.8,0-1.4-0.6-1.4-1.4v0
	C72.9,69.4,73.5,68.8,74.3,68.8z"/>
<path class="st2" d="M78.8,30.3L78.8,30.3c0.8,0,1.4,0.6,1.4,1.4v0c0,0.8-0.6,1.4-1.4,1.4h0c-0.8,0-1.4-0.6-1.4-1.4v0
	C77.4,30.9,78.1,30.3,78.8,30.3z"/>
<path class="st2" d="M78.8,43.1L78.8,43.1c0.8,0,1.4,0.6,1.4,1.4v0c0,0.8-0.6,1.4-1.4,1.4h0c-0.8,0-1.4-0.6-1.4-1.4v0
	C77.4,43.7,78.1,43.1,78.8,43.1z"/>
<path class="st2" d="M78.8,56L78.8,56c0.8,0,1.4,0.6,1.4,1.4v0c0,0.8-0.6,1.4-1.4,1.4h0c-0.8,0-1.4-0.6-1.4-1.4v0
	C77.4,56.6,78.1,56,78.8,56z"/>
<path class="st2" d="M78.8,68.8L78.8,68.8c0.8,0,1.4,0.6,1.4,1.4v0c0,0.8-0.6,1.4-1.4,1.4h0c-0.8,0-1.4-0.6-1.4-1.4v0
	C77.4,69.4,78.1,68.8,78.8,68.8z"/>
<path class="st2" d="M83.6,30.3L83.6,30.3c0.8,0,1.4,0.6,1.4,1.4v0c0,0.8-0.6,1.4-1.4,1.4h0c-0.8,0-1.4-0.6-1.4-1.4v0
	C82.2,30.9,82.8,30.3,83.6,30.3z"/>
<path class="st2" d="M83.6,43.1L83.6,43.1c0.8,0,1.4,0.6,1.4,1.4v0c0,0.8-0.6,1.4-1.4,1.4h0c-0.8,0-1.4-0.6-1.4-1.4v0
	C82.2,43.7,82.8,43.1,83.6,43.1z"/>
<path class="st2" d="M83.6,56L83.6,56c0.8,0,1.4,0.6,1.4,1.4v0c0,0.8-0.6,1.4-1.4,1.4h0c-0.8,0-1.4-0.6-1.4-1.4v0
	C82.2,56.6,82.8,56,83.6,56z"/>
<path class="st2" d="M83.6,68.8L83.6,68.8c0.8,0,1.4,0.6,1.4,1.4v0c0,0.8-0.6,1.4-1.4,1.4h0c-0.8,0-1.4-0.6-1.4-1.4v0
	C82.2,69.4,82.8,68.8,83.6,68.8z"/>
<path class="st2" d="M88.2,30.3L88.2,30.3c0.8,0,1.4,0.6,1.4,1.4v0c0,0.8-0.6,1.4-1.4,1.4h0c-0.8,0-1.4-0.6-1.4-1.4v0
	C86.8,30.9,87.4,30.3,88.2,30.3z"/>
<path class="st2" d="M88.2,43.1L88.2,43.1c0.8,0,1.4,0.6,1.4,1.4v0c0,0.8-0.6,1.4-1.4,1.4h0c-0.8,0-1.4-0.6-1.4-1.4v0
	C86.8,43.7,87.4,43.1,88.2,43.1z"/>
<path class="st2" d="M88.2,56L88.2,56c0.8,0,1.4,0.6,1.4,1.4v0c0,0.8-0.6,1.4-1.4,1.4h0c-0.8,0-1.4-0.6-1.4-1.4v0
	C86.8,56.6,87.4,56,88.2,56z"/>
<path class="st2" d="M88.2,68.8L88.2,68.8c0.8,0,1.4,0.6,1.4,1.4v0c0,0.8-0.6,1.4-1.4,1.4h0c-0.8,0-1.4-0.6-1.4-1.4v0
	C86.8,69.4,87.4,68.8,88.2,68.8z"/>
<path class="st3" d="M58.2,50.8h7"/>
<path class="st3" d="M58.2,53.9h7"/>
<polyline class="st1" points="73,26.5 69.9,26.5 69.9,76.9 73,76.9 "/>
<polyline class="st1" points="89.6,76.9 92.7,76.9 92.7,26.5 89.6,26.5 "/>
<path d="M17.1,47.7h2.9v0.9c-0.3,0-0.6,0-0.9,0s-0.6,0-1,0h-1v7.8c0,0.8,0,1.6,0,2.5c0,0.6,0,1.1-0.1,1.7c-0.2,0.8-0.5,1.6-1,2.3
	c-0.5,0.7-1.3,1.1-2.1,1.3c-0.3,0.1-0.7,0.1-1.1,0.1c-0.7,0-1.4-0.3-1.9-0.8c-0.3-0.3-0.5-0.7-0.6-1.2c0-0.5,0.3-1,0.8-1.1
	c0.4-0.1,0.8,0.1,1,0.5c0.1,0.2,0.2,0.4,0.3,0.6c0.1,0.2,0.1,0.3,0.2,0.5c0.1,0.2,0.3,0.4,0.6,0.5c0.3,0.1,0.5,0.1,0.8,0
	c0.2-0.1,0.4-0.2,0.5-0.4c0.1-0.2,0.2-0.5,0.3-0.7c0.1-0.4,0.2-0.8,0.2-1.3c0-0.8,0-1.5,0-2.3c0-3.3,0-6.6,0-9.9v-0.2h-2.2v-0.9H15
	v-0.1c0-0.3,0-0.7,0-1c0-0.8,0.2-1.6,0.5-2.4c0.5-1.1,1.3-1.9,2.4-2.3c0.5-0.2,1-0.3,1.5-0.4c0.5,0,1.1,0.1,1.6,0.3
	c0.4,0.2,0.8,0.4,1.1,0.7c0.1,0.1,0.3,0.3,0.4,0.4c0.1,0.2,0.2,0.4,0.2,0.6c0,0.3-0.1,0.5-0.3,0.7c-0.3,0.3-0.7,0.5-1.1,0.3
	c-0.1,0-0.2-0.1-0.2-0.1c-0.2-0.1-0.3-0.3-0.4-0.4c-0.2-0.2-0.3-0.4-0.4-0.6c-0.2-0.3-0.4-0.5-0.7-0.7c-0.3-0.2-0.6-0.3-0.9-0.3
	c-0.2,0-0.3,0-0.5,0.1c-0.3,0.1-0.6,0.3-0.8,0.6c-0.1,0.3-0.2,0.5-0.3,0.8c-0.1,0.4-0.1,0.8-0.1,1.2c0,0.8,0,1.7,0,2.5
	C17.1,47.6,17.1,47.6,17.1,47.7z"/>
</svg>
