<?xml version="1.0" encoding="utf-8"?>
<!-- Generator: Adobe Illustrator 24.2.3, SVG Export Plug-In . SVG Version: 6.00 Build 0)  -->
<svg version="1.1" id="Layer_1" xmlns="http://www.w3.org/2000/svg" xmlns:xlink="http://www.w3.org/1999/xlink" x="0px" y="0px"
	 viewBox="0 0 103 103" style="enable-background:new 0 0 103 103;" xml:space="preserve">
<style type="text/css">
	.st0{fill:#FFFFFF;stroke:#070606;stroke-width:3;stroke-miterlimit:10;}
	.st1{fill:none;stroke:#231815;stroke-width:2;stroke-miterlimit:10;}
	.st2{fill:#231815;}
	.st3{fill:none;stroke:#231815;stroke-miterlimit:10;}
</style>
<g id="Four_Color_Sequence_Plot">
	<path id="square" class="st0" d="M9.3,1.5h84.4c4.3,0,7.8,3.5,7.8,7.8v84.4c0,4.3-3.5,7.8-7.8,7.8H9.3c-4.3,0-7.8-3.5-7.8-7.8V9.3
		C1.5,5,5,1.5,9.3,1.5z"/>
</g>
<path class="st1" d="M8.9,26c0,0-3.4,2.4-3.4,5.9V72c0,0,0.4,3.6,3.4,5"/>
<path class="st1" d="M26.2,26c0,0,3.4,2.4,3.4,5.9V72c0,0-0.4,3.6-3.4,5"/>
<path class="st2" d="M10.3,30.3L10.3,30.3c0.8,0,1.4,0.6,1.4,1.4v0c0,0.8-0.6,1.4-1.4,1.4h0c-0.8,0-1.4-0.6-1.4-1.4v0
	C8.9,30.9,9.6,30.3,10.3,30.3z"/>
<path class="st2" d="M10.3,43.1L10.3,43.1c0.8,0,1.4,0.6,1.4,1.4v0c0,0.8-0.6,1.4-1.4,1.4h0c-0.8,0-1.4-0.6-1.4-1.4v0
	C8.9,43.7,9.6,43.1,10.3,43.1z"/>
<path class="st2" d="M10.3,56L10.3,56c0.8,0,1.4,0.6,1.4,1.4v0c0,0.8-0.6,1.4-1.4,1.4h0c-0.8,0-1.4-0.6-1.4-1.4v0
	C8.9,56.6,9.6,56,10.3,56z"/>
<path class="st2" d="M10.3,68.8L10.3,68.8c0.8,0,1.4,0.6,1.4,1.4v0c0,0.8-0.6,1.4-1.4,1.4h0c-0.8,0-1.4-0.6-1.4-1.4v0
	C8.9,69.4,9.6,68.8,10.3,68.8z"/>
<path class="st2" d="M14.9,30.3L14.9,30.3c0.8,0,1.4,0.6,1.4,1.4v0c0,0.8-0.6,1.4-1.4,1.4h0c-0.8,0-1.4-0.6-1.4-1.4v0
	C13.5,30.9,14.1,30.3,14.9,30.3z"/>
<path class="st2" d="M14.9,43.1L14.9,43.1c0.8,0,1.4,0.6,1.4,1.4v0c0,0.8-0.6,1.4-1.4,1.4h0c-0.8,0-1.4-0.6-1.4-1.4v0
	C13.5,43.7,14.1,43.1,14.9,43.1z"/>
<path class="st2" d="M14.9,56L14.9,56c0.8,0,1.4,0.6,1.4,1.4v0c0,0.8-0.6,1.4-1.4,1.4h0c-0.8,0-1.4-0.6-1.4-1.4v0
	C13.5,56.6,14.1,56,14.9,56z"/>
<path class="st2" d="M14.9,68.8L14.9,68.8c0.8,0,1.4,0.6,1.4,1.4v0c0,0.8-0.6,1.4-1.4,1.4h0c-0.8,0-1.4-0.6-1.4-1.4v0
	C13.5,69.4,14.1,68.8,14.9,68.8z"/>
<path class="st2" d="M19.6,30.3L19.6,30.3c0.8,0,1.4,0.6,1.4,1.4v0c0,0.8-0.6,1.4-1.4,1.4h0c-0.8,0-1.4-0.6-1.4-1.4v0
	C18.2,30.9,18.8,30.3,19.6,30.3z"/>
<path class="st2" d="M19.6,43.1L19.6,43.1c0.8,0,1.4,0.6,1.4,1.4v0c0,0.8-0.6,1.4-1.4,1.4h0c-0.8,0-1.4-0.6-1.4-1.4v0
	C18.2,43.7,18.8,43.1,19.6,43.1z"/>
<path class="st2" d="M19.6,56L19.6,56c0.8,0,1.4,0.6,1.4,1.4v0c0,0.8-0.6,1.4-1.4,1.4h0c-0.8,0-1.4-0.6-1.4-1.4v0
	C18.2,56.6,18.8,56,19.6,56z"/>
<path class="st2" d="M19.6,68.8L19.6,68.8c0.8,0,1.4,0.6,1.4,1.4v0c0,0.8-0.6,1.4-1.4,1.4h0c-0.8,0-1.4-0.6-1.4-1.4v0
	C18.2,69.4,18.8,68.8,19.6,68.8z"/>
<path class="st2" d="M24.2,30.3L24.2,30.3c0.8,0,1.4,0.6,1.4,1.4v0c0,0.8-0.6,1.4-1.4,1.4h0c-0.8,0-1.4-0.6-1.4-1.4v0
	C22.8,30.9,23.5,30.3,24.2,30.3z"/>
<path class="st2" d="M24.2,43.1L24.2,43.1c0.8,0,1.4,0.6,1.4,1.4v0c0,0.8-0.6,1.4-1.4,1.4h0c-0.8,0-1.4-0.6-1.4-1.4v0
	C22.8,43.7,23.5,43.1,24.2,43.1z"/>
<path class="st2" d="M71.1,42.7L71.1,42.7c0.8,0,1.4,0.6,1.4,1.4v0c0,0.8-0.6,1.4-1.4,1.4h0c-0.8,0-1.4-0.6-1.4-1.4v0
	C69.7,43.4,70.3,42.7,71.1,42.7z"/>
<path class="st2" d="M79,42.7L79,42.7c0.8,0,1.4,0.6,1.4,1.4v0c0,0.8-0.6,1.4-1.4,1.4h0c-0.8,0-1.4-0.6-1.4-1.4v0
	C77.6,43.4,78.2,42.7,79,42.7z"/>
<path class="st2" d="M87.1,42.7L87.1,42.7c0.8,0,1.4,0.6,1.4,1.4v0c0,0.8-0.6,1.4-1.4,1.4h0c-0.8,0-1.4-0.6-1.4-1.4v0
	C85.7,43.4,86.3,42.7,87.1,42.7z"/>
<path class="st2" d="M94.8,42.7L94.8,42.7c0.8,0,1.4,0.6,1.4,1.4v0c0,0.8-0.6,1.4-1.4,1.4h0c-0.8,0-1.4-0.6-1.4-1.4v0
	C93.4,43.4,94,42.7,94.8,42.7z"/>
<path class="st2" d="M24.2,56L24.2,56c0.8,0,1.4,0.6,1.4,1.4v0c0,0.8-0.6,1.4-1.4,1.4h0c-0.8,0-1.4-0.6-1.4-1.4v0
	C22.8,56.6,23.5,56,24.2,56z"/>
<path class="st2" d="M71.1,56L71.1,56c0.8,0,1.4,0.6,1.4,1.4v0c0,0.8-0.6,1.4-1.4,1.4h0c-0.8,0-1.4-0.6-1.4-1.4v0
	C69.7,56.6,70.3,56,71.1,56z"/>
<path class="st2" d="M79,56L79,56c0.8,0,1.4,0.6,1.4,1.4v0c0,0.8-0.6,1.4-1.4,1.4h0c-0.8,0-1.4-0.6-1.4-1.4v0
	C77.6,56.6,78.2,56,79,56z"/>
<path class="st2" d="M87.1,56L87.1,56c0.8,0,1.4,0.6,1.4,1.4v0c0,0.8-0.6,1.4-1.4,1.4h0c-0.8,0-1.4-0.6-1.4-1.4v0
	C85.7,56.6,86.3,56,87.1,56z"/>
<path class="st2" d="M94.8,56L94.8,56c0.8,0,1.4,0.6,1.4,1.4v0c0,0.8-0.6,1.4-1.4,1.4h0c-0.8,0-1.4-0.6-1.4-1.4v0
	C93.4,56.6,94,56,94.8,56z"/>
<rect x="66.5" y="30.6" class="st2" width="2.8" height="2.8"/>
<path class="st2" d="M71.1,30.6L71.1,30.6c0.8,0,1.4,0.6,1.4,1.4v0c0,0.8-0.6,1.4-1.4,1.4h0c-0.8,0-1.4-0.6-1.4-1.4v0
	C69.7,31.2,70.3,30.6,71.1,30.6z"/>
<rect x="74.4" y="30.6" class="st2" width="2.8" height="2.8"/>
<path class="st2" d="M79,30.6L79,30.6c0.8,0,1.4,0.6,1.4,1.4v0c0,0.8-0.6,1.4-1.4,1.4h0c-0.8,0-1.4-0.6-1.4-1.4v0
	C77.6,31.2,78.2,30.6,79,30.6z"/>
<rect x="82.5" y="30.6" class="st2" width="2.8" height="2.8"/>
<path class="st2" d="M87.1,30.6L87.1,30.6c0.8,0,1.4,0.6,1.4,1.4v0c0,0.8-0.6,1.4-1.4,1.4h0c-0.8,0-1.4-0.6-1.4-1.4v0
	C85.7,31.2,86.3,30.6,87.1,30.6z"/>
<rect x="90.2" y="30.6" class="st2" width="2.8" height="2.8"/>
<path class="st2" d="M94.8,30.6L94.8,30.6c0.8,0,1.4,0.6,1.4,1.4v0c0,0.8-0.6,1.4-1.4,1.4h0c-0.8,0-1.4-0.6-1.4-1.4v0
	C93.4,31.2,94,30.6,94.8,30.6z"/>
<path class="st2" d="M24.2,68.8L24.2,68.8c0.8,0,1.4,0.6,1.4,1.4v0c0,0.8-0.6,1.4-1.4,1.4h0c-0.8,0-1.4-0.6-1.4-1.4v0
	C22.8,69.4,23.5,68.8,24.2,68.8z"/>
<path class="st2" d="M71.4,69L71.4,69c0.8,0,1.4,0.6,1.4,1.4v0c0,0.8-0.6,1.4-1.4,1.4h0c-0.8,0-1.4-0.6-1.4-1.4v0
	C70,69.6,70.7,69,71.4,69z"/>
<line class="st3" x1="33.5" y1="50.3" x2="37.6" y2="54.4"/>
<line class="st3" x1="37.5" y1="50.4" x2="33.4" y2="54.5"/>
<polygon class="st2" points="46.2,68.6 46.7,69.6 47.9,69.8 47.1,70.6 47.3,71.8 46.2,71.2 45.2,71.8 45.4,70.6 44.5,69.8 
	45.7,69.6 "/>
<polygon class="st2" points="68,68.6 68.5,69.6 69.6,69.8 68.8,70.6 69,71.8 68,71.2 66.9,71.8 67.1,70.6 66.3,69.8 67.4,69.6 "/>
<polygon class="st2" points="75.8,68.6 76.3,69.6 77.5,69.8 76.7,70.6 76.9,71.8 75.8,71.2 74.8,71.8 75,70.6 74.1,69.8 75.3,69.6 
	"/>
<path class="st2" d="M79,69L79,69c0.8,0,1.4,0.6,1.4,1.4v0c0,0.8-0.6,1.4-1.4,1.4h0c-0.8,0-1.4-0.6-1.4-1.4v0
	C77.6,69.6,78.2,69,79,69z"/>
<path class="st2" d="M87.5,69.1L87.5,69.1c0.8,0,1.4,0.6,1.4,1.4v0c0,0.8-0.6,1.4-1.4,1.4h0c-0.8,0-1.4-0.6-1.4-1.4v0
	C86.1,69.7,86.7,69.1,87.5,69.1z"/>
<polygon class="st2" points="84,68.7 84.5,69.8 85.7,69.9 84.8,70.7 85,71.9 84,71.3 83,71.9 83.2,70.7 82.3,69.9 83.5,69.8 "/>
<path class="st2" d="M94.5,69L94.5,69c0.8,0,1.4,0.6,1.4,1.4v0c0,0.8-0.6,1.4-1.4,1.4h0c-0.8,0-1.4-0.6-1.4-1.4v0
	C93.1,69.6,93.8,69,94.5,69z"/>
<polygon class="st2" points="91.2,68.6 91.7,69.6 92.9,69.8 92,70.6 92.2,71.8 91.2,71.2 90.2,71.8 90.4,70.6 89.5,69.8 90.7,69.6 
	"/>
<path class="st3" d="M54.3,50.8h7"/>
<path class="st3" d="M54.3,53.9h7"/>
<polyline class="st1" points="67.6,26.5 64.5,26.5 64.5,76.9 67.6,76.9 "/>
<polyline class="st1" points="44.4,26.5 41.3,26.5 41.3,76.9 44.4,76.9 "/>
<polyline class="st1" points="94.4,76.9 97.5,76.9 97.5,26.5 94.4,26.5 "/>
<polyline class="st1" points="48,76.9 51.1,76.9 51.1,26.5 48,26.5 "/>
<rect x="44.6" y="29.8" class="st2" width="3.4" height="3.4"/>
<polygon class="st2" points="43.9,45.5 46.3,43.1 48.7,45.5 "/>
<polygon class="st2" points="65.9,45.1 67.9,43.1 69.9,45.1 "/>
<polygon class="st2" points="73.8,45.1 75.8,43.1 77.8,45.1 "/>
<polygon class="st2" points="81.9,45.1 83.9,43.1 85.8,45.1 "/>
<polygon class="st2" points="89.4,45.1 91.4,43.1 93.4,45.1 "/>
<polygon class="st2" points="47.1,55.8 45.3,55.8 44.4,57.3 45.3,58.9 47.1,58.9 48,57.3 "/>
<polygon class="st2" points="68.6,55.8 66.8,55.8 65.9,57.3 66.8,58.9 68.6,58.9 69.6,57.3 "/>
<polygon class="st2" points="76.6,55.8 74.8,55.8 73.8,57.3 74.8,58.9 76.6,58.9 77.5,57.3 "/>
<polygon class="st2" points="84.6,55.8 82.8,55.8 81.9,57.3 82.8,58.9 84.6,58.9 85.5,57.3 "/>
<polygon class="st2" points="92.2,55.8 90.4,55.8 89.4,57.3 90.4,58.9 92.2,58.9 93.1,57.3 "/>
</svg>
