<?xml version="1.0" encoding="utf-8"?>
<!-- Generator: Adobe Illustrator 24.2.3, SVG Export Plug-In . SVG Version: 6.00 Build 0)  -->
<svg version="1.1" id="Layer_1" xmlns="http://www.w3.org/2000/svg" xmlns:xlink="http://www.w3.org/1999/xlink" x="0px" y="0px"
	 viewBox="0 0 103 103" style="enable-background:new 0 0 103 103;" xml:space="preserve">
<style type="text/css">
	.st0{fill:#FFFFFF;stroke:#070606;stroke-width:3;stroke-miterlimit:10;}
	.st1{fill:none;stroke:#070606;stroke-width:3;stroke-linecap:round;stroke-linejoin:round;}
	.st2{fill:none;stroke:#070606;stroke-width:2;stroke-linecap:round;stroke-miterlimit:10;}
	.st3{fill:#070606;}
	.st4{enable-background:new    ;}
	.st5{fill:#231815;}
</style>
<g id="Four_Color_Sequence_Plot">
	<path id="square" class="st0" d="M9.3,1.5h84.4c4.3,0,7.8,3.5,7.8,7.8v84.4c0,4.3-3.5,7.8-7.8,7.8H9.3c-4.3,0-7.8-3.5-7.8-7.8V9.3
		C1.5,5,5,1.5,9.3,1.5z"/>
</g>
<path class="st1" d="M45.8,64.3h-28c-1.9,0.1-3.6-1.5-3.6-3.4c0-0.1,0-0.1,0-0.2c0-12.7,0-25.3,0-38c0-0.4,0.2-0.7,0.4-1
	c4.5-4.6,9.1-9.1,13.7-13.6c0.3-0.3,0.7-0.6,1-0.9h24.9c0.1,0,0.2,0.1,0.3,0.1c1.6,0.4,2.6,1.9,2.6,3.5c0,10.6,0,21,0,31.6"/>
<path class="st1" d="M29.9,8v0.8c0,3.3,0,6.5,0,9.8c0,1.9-1,3.3-2.7,3.7c-0.4,0.1-0.8,0.1-1.3,0.1c-3.2,0-6.4,0-9.6,0h-0.7"/>
<path class="st1" d="M85.9,38.7c0.1,0,0.2,0.1,0.3,0.1c1.6,0.4,2.6,1.9,2.6,3.5c0,16.6,0,33.3,0,49.9c0.1,1.9-1.5,3.6-3.4,3.6
	c-0.1,0-0.1,0-0.2,0H49.5c-1.9,0.1-3.6-1.5-3.6-3.4c0-0.1,0-0.1,0-0.2c0-12.7,0-25.3,0-38c0-0.4,0.2-0.7,0.4-1
	c4.5-4.6,9.1-9.1,13.7-13.6c0.3-0.3,0.7-0.6,1-0.9L85.9,38.7z"/>
<path class="st1" d="M61.6,39.5v0.8c0,3.3,0,6.5,0,9.8c0,1.9-1,3.3-2.7,3.7c-0.4,0.1-0.9,0.1-1.3,0.1c-3.2,0-6.4,0-9.6,0h-0.7"/>
<path class="st2" d="M19.7,72.4c-3.3,5.2-1.7,12.1,3.5,15.4s12.1,1.7,15.4-3.5l0,0"/>
<polygon class="st3" points="40.5,90.1 39.3,90.3 38.7,84.3 32.8,85.3 32.6,84.1 39.8,82.8 "/>
<g class="st4">
	<path class="st5" d="M19.1,32.4c0-0.2,0.1-0.4,0.4-0.4h5.4c0.5,0,0.9,0.1,1.4,0.3c0.4,0.2,0.8,0.4,1.1,0.8s0.6,0.7,0.8,1.1
		c0.2,0.4,0.3,0.9,0.3,1.4c0,0.4-0.1,0.8-0.2,1.1c-0.1,0.4-0.3,0.7-0.5,0.9c0.4,0.4,0.7,0.8,0.9,1.3c0.2,0.5,0.4,1,0.4,1.6
		c0,0.5-0.1,1-0.3,1.4c-0.2,0.4-0.5,0.8-0.8,1.2c-0.3,0.3-0.7,0.6-1.1,0.8c-0.4,0.2-0.9,0.3-1.4,0.3h-5.9c-0.2,0-0.4-0.1-0.4-0.4
		V32.4z M22.3,34.4v2.4H24c0.2,0,0.4,0,0.5-0.1c0.2-0.1,0.3-0.1,0.4-0.2c0.1-0.1,0.2-0.2,0.3-0.4c0.1-0.1,0.1-0.3,0.1-0.5
		c0-0.2,0-0.3-0.1-0.5c-0.1-0.1-0.1-0.3-0.3-0.4c-0.1-0.1-0.2-0.2-0.4-0.3c-0.2-0.1-0.3-0.1-0.5-0.1H22.3z M22.3,39v2.7h2.2
		c0.2,0,0.3,0,0.5-0.1c0.2-0.1,0.3-0.2,0.4-0.3c0.1-0.1,0.2-0.3,0.3-0.4c0.1-0.2,0.1-0.3,0.1-0.5c0-0.2,0-0.3-0.1-0.5
		s-0.2-0.3-0.3-0.4c-0.1-0.1-0.2-0.2-0.4-0.3C24.8,39,24.6,39,24.5,39H22.3z"/>
	<path class="st5" d="M30.7,32.4c0-0.2,0.1-0.4,0.4-0.4h8.2c0.2,0,0.4,0.1,0.4,0.4v2.1c0,0.2-0.1,0.4-0.4,0.4h-5.3v2h4.1
		c0.1,0,0.2,0,0.3,0.1c0.1,0.1,0.1,0.2,0.1,0.3v1.7c0,0.2-0.1,0.4-0.4,0.4h-4.1v2.1h5.5c0.2,0,0.4,0.1,0.4,0.4v2.1
		c0,0.2-0.1,0.4-0.4,0.4H31c-0.2,0-0.4-0.1-0.4-0.4V32.4z"/>
	<path class="st5" d="M41.6,32.4c0-0.2,0.1-0.4,0.4-0.4h4.3c0.5,0,1,0.1,1.5,0.2c0.5,0.1,1,0.3,1.4,0.6c0.4,0.3,0.9,0.6,1.2,1
		s0.7,0.8,1,1.2s0.5,0.9,0.7,1.5c0.2,0.5,0.2,1.1,0.2,1.6c0,0.5-0.1,1-0.2,1.6c-0.1,0.5-0.3,1-0.6,1.4c-0.3,0.4-0.6,0.9-0.9,1.2
		c-0.4,0.4-0.8,0.7-1.2,1c-0.5,0.3-0.9,0.5-1.4,0.6s-1.1,0.2-1.6,0.2H42c-0.2,0-0.4-0.1-0.4-0.4V32.4z M48.9,36.8
		c-0.2-0.4-0.4-0.7-0.7-1c-0.3-0.3-0.6-0.5-1-0.7c-0.4-0.2-0.8-0.3-1.3-0.3h-1.1v6.4h1.1c0.5,0,0.9-0.1,1.3-0.3
		c0.4-0.2,0.7-0.4,1-0.7c0.3-0.3,0.5-0.6,0.7-1s0.2-0.8,0.2-1.2C49.1,37.6,49,37.2,48.9,36.8z"/>
</g>
<g class="st4">
	<path class="st5" d="M58.3,74.5c0.2,0,0.4-0.1,0.6-0.1v-2.2c0-0.2,0.1-0.4,0.4-0.4h2.3c0.1,0,0.1,0,0.2,0.1c0.1,0,0.1,0.1,0.1,0.3
		v4c0,0.1,0,0.2,0,0.2s-0.1,0.1-0.2,0.2c-0.5,0.3-1.1,0.6-1.8,0.7c-0.7,0.2-1.4,0.3-2.1,0.3c-0.9,0-1.7-0.2-2.5-0.5s-1.4-0.8-2-1.4
		c-0.6-0.6-1-1.2-1.4-2s-0.5-1.6-0.5-2.5s0.2-1.7,0.5-2.4c0.3-0.8,0.8-1.4,1.3-2c0.6-0.6,1.2-1,2-1.3c0.8-0.3,1.6-0.5,2.4-0.5
		c0.7,0,1.4,0.1,2,0.3c0.6,0.2,1.1,0.5,1.6,0.8c0.1,0.1,0.1,0.1,0.2,0.2c0,0.1,0,0.2-0.1,0.2L60,68.5c-0.1,0.1-0.1,0.1-0.3,0.1
		c-0.1,0-0.2,0-0.2-0.1c-0.3-0.2-0.5-0.3-0.8-0.4c-0.3-0.1-0.6-0.2-1-0.2c-0.5,0-0.9,0.1-1.3,0.3c-0.4,0.2-0.7,0.4-1,0.7
		c-0.3,0.3-0.5,0.6-0.6,1c-0.1,0.4-0.2,0.8-0.2,1.3c0,0.5,0.1,0.9,0.2,1.3c0.2,0.4,0.4,0.7,0.6,1c0.3,0.3,0.6,0.5,1,0.7
		c0.4,0.2,0.8,0.3,1.2,0.3C57.9,74.5,58.1,74.5,58.3,74.5z"/>
	<path class="st5" d="M64.3,65.5c0-0.2,0.1-0.4,0.4-0.4h7.8c0.2,0,0.4,0.1,0.4,0.4v2.1c0,0.2-0.1,0.4-0.4,0.4h-5v2.5h3.7
		c0.2,0,0.4,0.1,0.4,0.4v2c0,0.2-0.1,0.4-0.4,0.4h-3.7V77c0,0.2-0.1,0.4-0.4,0.4h-2.5c-0.2,0-0.4-0.1-0.4-0.4V65.5z"/>
	<path class="st5" d="M74.9,65.5c0-0.2,0.1-0.4,0.4-0.4h7.8c0.2,0,0.4,0.1,0.4,0.4v2.1c0,0.2-0.1,0.4-0.4,0.4h-5v2.5h3.7
		c0.2,0,0.4,0.1,0.4,0.4v2c0,0.2-0.1,0.4-0.4,0.4h-3.7V77c0,0.2-0.1,0.4-0.4,0.4h-2.5c-0.2,0-0.4-0.1-0.4-0.4V65.5z"/>
</g>
</svg>
