<?xml version="1.0" encoding="utf-8"?>
<!-- Generator: Adobe Illustrator 24.2.3, SVG Export Plug-In . SVG Version: 6.00 Build 0)  -->
<svg version="1.1" id="Layer_1" xmlns="http://www.w3.org/2000/svg" xmlns:xlink="http://www.w3.org/1999/xlink" x="0px" y="0px"
	 viewBox="0 0 103 103" style="enable-background:new 0 0 103 103;" xml:space="preserve">
<style type="text/css">
	.st0{fill:#FFFFFF;stroke:#070606;stroke-width:3;stroke-miterlimit:10;}
	.st1{fill:none;stroke:#070606;stroke-width:3;stroke-linecap:round;stroke-linejoin:round;}
	.st2{fill:none;stroke:#070606;stroke-width:3;stroke-linecap:round;stroke-miterlimit:10;}
	.st3{fill:none;stroke:#070606;stroke-width:2;stroke-linecap:round;stroke-linejoin:round;}
	.st4{fill:#070606;}
	.st5{enable-background:new    ;}
	.st6{fill:#231815;}
</style>
<g id="Four_Color_Sequence_Plot">
	<path id="square" class="st0" d="M9.3,1.5h84.4c4.3,0,7.8,3.5,7.8,7.8v84.4c0,4.3-3.5,7.8-7.8,7.8H9.3c-4.3,0-7.8-3.5-7.8-7.8V9.3
		C1.5,5,5,1.5,9.3,1.5z"/>
</g>
<path class="st1" d="M51.3,21.8c0.1,0,0.2,0.1,0.3,0.1c1.6,0.4,2.6,1.9,2.6,3.5v49.9c0,1.9-1.5,3.6-3.4,3.6c-0.1,0-0.1,0-0.2,0
	c-11.9,0-23.8,0-35.7,0c-1.9,0.1-3.6-1.5-3.6-3.4c0-0.1,0-0.1,0-0.2c0-12.7,0-25.3,0-38c0-0.4,0.2-0.7,0.4-1
	c4.5-4.6,9.1-9.1,13.7-13.6c0.3-0.3,0.7-0.6,1-0.9L51.3,21.8z"/>
<path class="st1" d="M27,22.6v0.8c0,3.3,0,6.5,0,9.8c0,1.9-1,3.3-2.7,3.7C23.8,36.9,23.4,37,23,37c-3.2,0-6.4,0-9.6,0h-0.7"/>
<line class="st2" x1="91.7" y1="40.4" x2="60.5" y2="40.4"/>
<line class="st2" x1="91.7" y1="46.2" x2="60.5" y2="46.2"/>
<line class="st2" x1="91.7" y1="52.3" x2="60.5" y2="52.3"/>
<line class="st2" x1="82.6" y1="58.4" x2="60.5" y2="58.4"/>
<line class="st2" x1="82.6" y1="64.4" x2="60.5" y2="64.4"/>
<line class="st2" x1="78.1" y1="70.5" x2="60.5" y2="70.5"/>
<line class="st2" x1="78.1" y1="76.6" x2="60.5" y2="76.6"/>
<line class="st2" x1="91.7" y1="34.6" x2="60.5" y2="34.6"/>
<line class="st2" x1="91.7" y1="28.8" x2="60.5" y2="28.8"/>
<line class="st2" x1="91.7" y1="22.7" x2="60.5" y2="22.7"/>
<line class="st3" x1="87.1" y1="56" x2="87.1" y2="77.6"/>
<polygon class="st4" points="80.7,72.4 81.9,71.4 87.1,77 92.4,71.4 93.5,72.4 87.1,79.3 "/>
<g class="st5">
	<path class="st6" d="M16.3,48.6c0-0.2,0.1-0.4,0.4-0.4h5.4c0.5,0,0.9,0.1,1.4,0.3c0.4,0.2,0.8,0.4,1.1,0.8s0.6,0.7,0.8,1.1
		c0.2,0.4,0.3,0.9,0.3,1.4c0,0.4-0.1,0.8-0.2,1.1c-0.1,0.4-0.3,0.7-0.5,0.9c0.4,0.4,0.7,0.8,0.9,1.3c0.2,0.5,0.4,1,0.4,1.6
		c0,0.5-0.1,1-0.3,1.4c-0.2,0.4-0.5,0.8-0.8,1.2c-0.3,0.3-0.7,0.6-1.1,0.8c-0.4,0.2-0.9,0.3-1.4,0.3h-5.9c-0.2,0-0.4-0.1-0.4-0.4
		V48.6z M19.5,50.7v2.4h1.7c0.2,0,0.4,0,0.5-0.1c0.2-0.1,0.3-0.1,0.4-0.2c0.1-0.1,0.2-0.2,0.3-0.4c0.1-0.1,0.1-0.3,0.1-0.5
		c0-0.2,0-0.3-0.1-0.5c-0.1-0.1-0.1-0.3-0.3-0.4c-0.1-0.1-0.2-0.2-0.4-0.3c-0.2-0.1-0.3-0.1-0.5-0.1H19.5z M19.5,55.3V58h2.2
		c0.2,0,0.3,0,0.5-0.1c0.2-0.1,0.3-0.2,0.4-0.3c0.1-0.1,0.2-0.3,0.3-0.4c0.1-0.2,0.1-0.3,0.1-0.5c0-0.2,0-0.3-0.1-0.5
		s-0.2-0.3-0.3-0.4c-0.1-0.1-0.2-0.2-0.4-0.3c-0.2-0.1-0.3-0.1-0.5-0.1H19.5z"/>
	<path class="st6" d="M27.9,48.6c0-0.2,0.1-0.4,0.4-0.4h8.2c0.2,0,0.4,0.1,0.4,0.4v2.1c0,0.2-0.1,0.4-0.4,0.4h-5.3v2h4.1
		c0.1,0,0.2,0,0.3,0.1c0.1,0.1,0.1,0.2,0.1,0.3v1.7c0,0.2-0.1,0.4-0.4,0.4h-4.1v2.1h5.5c0.2,0,0.4,0.1,0.4,0.4v2.1
		c0,0.2-0.1,0.4-0.4,0.4h-8.3c-0.2,0-0.4-0.1-0.4-0.4V48.6z"/>
	<path class="st6" d="M38.8,48.6c0-0.2,0.1-0.4,0.4-0.4h4.3c0.5,0,1,0.1,1.5,0.2c0.5,0.1,1,0.3,1.4,0.6c0.4,0.3,0.9,0.6,1.2,1
		s0.7,0.8,1,1.2s0.5,0.9,0.7,1.5c0.2,0.5,0.2,1.1,0.2,1.6c0,0.5-0.1,1-0.2,1.6c-0.1,0.5-0.3,1-0.6,1.4c-0.3,0.4-0.6,0.9-0.9,1.2
		c-0.4,0.4-0.8,0.7-1.2,1c-0.5,0.3-0.9,0.5-1.4,0.6s-1.1,0.2-1.6,0.2h-4.3c-0.2,0-0.4-0.1-0.4-0.4V48.6z M46.1,53.1
		c-0.2-0.4-0.4-0.7-0.7-1c-0.3-0.3-0.6-0.5-1-0.7c-0.4-0.2-0.8-0.3-1.3-0.3H42v6.4h1.1c0.5,0,0.9-0.1,1.3-0.3c0.4-0.2,0.7-0.4,1-0.7
		c0.3-0.3,0.5-0.6,0.7-1s0.2-0.8,0.2-1.2C46.3,53.9,46.3,53.5,46.1,53.1z"/>
</g>
</svg>
