<?xml version="1.0" encoding="utf-8"?>
<!-- Generator: Adobe Illustrator 24.2.3, SVG Export Plug-In . SVG Version: 6.00 Build 0)  -->
<svg version="1.1" id="Layer_1" xmlns="http://www.w3.org/2000/svg" xmlns:xlink="http://www.w3.org/1999/xlink" x="0px" y="0px"
	 viewBox="0 0 103 103" style="enable-background:new 0 0 103 103;" xml:space="preserve">
<style type="text/css">
	.st0{fill:#FFFFFF;stroke:#070606;stroke-width:3;stroke-miterlimit:10;}
	.st1{fill:none;stroke:#070606;stroke-width:3;stroke-linecap:round;stroke-linejoin:round;}
	.st2{enable-background:new    ;}
	.st3{fill:#231815;}
	.st4{fill:none;stroke:#070606;stroke-width:3;stroke-linecap:round;stroke-miterlimit:10;}
	.st5{fill:none;stroke:#070606;stroke-width:2;stroke-linecap:round;stroke-linejoin:round;}
	.st6{fill:#070606;}
</style>
<g id="Four_Color_Sequence_Plot">
	<path id="square" class="st0" d="M9.3,1.5h84.4c4.3,0,7.8,3.5,7.8,7.8v84.4c0,4.3-3.5,7.8-7.8,7.8H9.3c-4.3,0-7.8-3.5-7.8-7.8V9.3
		C1.5,5,5,1.5,9.3,1.5z"/>
</g>
<path class="st1" d="M51.5,22.7c0.1,0,0.2,0.1,0.3,0.1c1.6,0.4,2.6,1.9,2.6,3.5v49.9c0.1,1.9-1.5,3.6-3.4,3.6c-0.1,0-0.1,0-0.2,0
	H15.1c-1.9,0.1-3.6-1.5-3.6-3.4c0-0.1,0-0.1,0-0.2c0-12.7,0-25.3,0-38c0-0.4,0.2-0.7,0.4-1c4.5-4.6,9.1-9.1,13.7-13.6
	c0.3-0.3,0.7-0.6,1-0.9H51.5z"/>
<path class="st1" d="M27.2,23.5v0.8c0,3.3,0,6.5,0,9.8c0,1.9-1,3.3-2.7,3.7c-0.4,0.1-0.9,0.1-1.3,0.1c-3.2,0-6.4,0-9.6,0h-0.7"/>
<g class="st2">
	<path class="st3" d="M23.9,58.5c0.2,0,0.4-0.1,0.6-0.1v-2.2c0-0.2,0.1-0.4,0.4-0.4h2.3c0.1,0,0.1,0,0.2,0.1c0.1,0,0.1,0.1,0.1,0.3
		v4c0,0.1,0,0.2,0,0.2c0,0.1-0.1,0.1-0.2,0.2c-0.5,0.3-1.1,0.6-1.8,0.7c-0.7,0.2-1.4,0.3-2.1,0.3c-0.9,0-1.7-0.2-2.5-0.5
		c-0.8-0.3-1.4-0.8-2-1.4c-0.6-0.6-1-1.2-1.4-2c-0.3-0.8-0.5-1.6-0.5-2.5s0.2-1.7,0.5-2.4c0.3-0.8,0.8-1.4,1.3-2
		c0.6-0.6,1.2-1,2-1.3s1.6-0.5,2.4-0.5c0.7,0,1.4,0.1,2,0.3c0.6,0.2,1.1,0.5,1.6,0.8c0.1,0.1,0.1,0.1,0.2,0.2c0,0.1,0,0.2-0.1,0.2
		l-1.4,1.9c-0.1,0.1-0.1,0.1-0.3,0.1c-0.1,0-0.2,0-0.2-0.1c-0.3-0.2-0.5-0.3-0.8-0.4c-0.3-0.1-0.6-0.2-1-0.2c-0.5,0-0.9,0.1-1.3,0.3
		c-0.4,0.2-0.7,0.4-1,0.7c-0.3,0.3-0.5,0.6-0.6,1c-0.1,0.4-0.2,0.8-0.2,1.3c0,0.5,0.1,0.9,0.2,1.3s0.4,0.7,0.6,1
		c0.3,0.3,0.6,0.5,1,0.7c0.4,0.2,0.8,0.3,1.2,0.3C23.5,58.6,23.7,58.5,23.9,58.5z"/>
	<path class="st3" d="M29.9,49.6c0-0.2,0.1-0.4,0.4-0.4h7.8c0.2,0,0.4,0.1,0.4,0.4v2.1c0,0.2-0.1,0.4-0.4,0.4h-5v2.5h3.7
		c0.2,0,0.4,0.1,0.4,0.4v2c0,0.2-0.1,0.4-0.4,0.4h-3.7v3.8c0,0.2-0.1,0.4-0.4,0.4h-2.5c-0.2,0-0.4-0.1-0.4-0.4V49.6z"/>
	<path class="st3" d="M40.5,49.6c0-0.2,0.1-0.4,0.4-0.4h7.8c0.2,0,0.4,0.1,0.4,0.4v2.1c0,0.2-0.1,0.4-0.4,0.4h-5v2.5h3.7
		c0.2,0,0.4,0.1,0.4,0.4v2c0,0.2-0.1,0.4-0.4,0.4h-3.7v3.8c0,0.2-0.1,0.4-0.4,0.4h-2.5c-0.2,0-0.4-0.1-0.4-0.4V49.6z"/>
</g>
<line class="st4" x1="91.5" y1="41.4" x2="60.3" y2="41.4"/>
<line class="st4" x1="91.5" y1="47.2" x2="60.3" y2="47.2"/>
<line class="st4" x1="91.5" y1="53.2" x2="60.3" y2="53.2"/>
<line class="st4" x1="82.4" y1="59.3" x2="60.3" y2="59.3"/>
<line class="st4" x1="82.4" y1="65.4" x2="60.3" y2="65.4"/>
<line class="st4" x1="77.9" y1="71.5" x2="60.3" y2="71.5"/>
<line class="st4" x1="77.9" y1="77.6" x2="60.3" y2="77.6"/>
<line class="st4" x1="91.5" y1="35.6" x2="60.3" y2="35.6"/>
<line class="st4" x1="91.5" y1="29.8" x2="60.3" y2="29.8"/>
<line class="st4" x1="91.5" y1="23.7" x2="60.3" y2="23.7"/>
<line class="st5" x1="86.9" y1="57" x2="86.9" y2="78.6"/>
<polygon class="st6" points="80.6,73.4 81.7,72.3 86.9,78 92.2,72.3 93.3,73.4 86.9,80.3 "/>
</svg>
