<?xml version="1.0" encoding="utf-8"?>
<!-- Generator: Adobe Illustrator 24.2.3, SVG Export Plug-In . SVG Version: 6.00 Build 0)  -->
<svg version="1.1" id="Layer_1" xmlns="http://www.w3.org/2000/svg" xmlns:xlink="http://www.w3.org/1999/xlink" x="0px" y="0px"
	 viewBox="0 0 103 103" style="enable-background:new 0 0 103 103;" xml:space="preserve">
<style type="text/css">
	.st0{fill:#FFFFFF;stroke:#070606;stroke-width:3;stroke-miterlimit:10;}
	.st1{fill:none;stroke:#231815;stroke-miterlimit:10;}
	.st2{fill:#231815;}
	.st3{font-family:'CocogoosePro';}
	.st4{font-size:13.0391px;}
	.st5{font-size:9.375px;}
	.st6{fill:none;stroke:#221E1F;stroke-width:3;stroke-miterlimit:10;}
</style>
<g id="Four_Color_Sequence_Plot">
	<path id="square" class="st0" d="M9.3,1.5h84.4c4.3,0,7.8,3.5,7.8,7.8v84.4c0,4.3-3.5,7.8-7.8,7.8H9.3c-4.3,0-7.8-3.5-7.8-7.8V9.3
		C1.5,5,5,1.5,9.3,1.5z"/>
</g>
<line class="st1" x1="32.9" y1="37.7" x2="37" y2="41.8"/>
<line class="st1" x1="37" y1="37.7" x2="32.8" y2="41.8"/>
<line class="st1" x1="32.9" y1="66.7" x2="37" y2="70.8"/>
<line class="st1" x1="37" y1="66.8" x2="32.8" y2="70.9"/>
<text transform="matrix(1 0 0 1 39.6875 44.0471)" class="st2 st3 st4">N</text>
<text transform="matrix(1 0 0 1 40.4531 71.9494)" class="st2 st3 st5">N</text>
<path class="st1" d="M54,37.4h7"/>
<path class="st1" d="M54,40.4h7"/>
<path class="st1" d="M54,67.3h7"/>
<path class="st1" d="M54,70.4h7"/>
<path class="st6" d="M4.1,41.6c0.1,0,2,0,2.6,0c0.1,0,0.2,0,0.3,0c0.2,0,0.5-0.1,0.7-0.3c0.4-0.3,0.6-0.6,0.9-1
	c0.3-0.5,0.5-1,0.7-1.5c0.2-0.4,0.3-0.8,0.5-1.5c0.2-0.6,0.3-1,0.4-1.6c0.1-0.4,0.2-0.6,0.3-1.1c0.1-0.4,0.3-0.9,0.5-1.3
	c0.1-0.1,0.1-0.2,0.2-0.3c0,0,0.1-0.1,0.1-0.1c0,0,0.1,0,0.1,0c0,0,0.1,0,0.1,0c0.1,0,0.1,0.1,0.1,0.1c0.2,0.2,0.3,0.5,0.4,0.8
	l0.1,0.3c0.1,0.3,0.1,0.5,0.2,0.7c0.1,0.5,0.2,0.5,0.3,1c0.1,0.3,0,0.2,0.2,0.7s0.3,1,0.3,1.1c0.1,0.2,0.1,0.4,0.1,0.5
	c0,0.1,0.1,0.4,0.2,0.6c0.1,0.4,0.2,0.6,0.2,0.7c0.1,0.4,0.3,0.7,0.5,1.1c0.1,0.2,0.2,0.4,0.4,0.6c0.2,0.2,0.4,0.3,0.6,0.4
	c0.2,0.1,0.4,0.1,0.6,0.1c0.9,0.1,1.8,0.1,2.7,0"/>
<path class="st6" d="M15.6,41.7c0.1,0,2,0,2.6,0h0.2c0.2,0,0.5-0.1,0.7-0.1c0.3-0.1,0.6-0.2,0.9-0.4c0.2-0.2,0.5-0.4,0.7-0.6
	c0.2-0.2,0.3-0.4,0.5-0.6c0.2-0.2,0.3-0.4,0.4-0.6c0.1-0.1,0.2-0.3,0.3-0.5c0.1-0.2,0.3-0.4,0.5-0.5c0.1,0,0.1-0.1,0.2-0.1
	c0.1,0,0.2,0,0.2-0.1c0,0,0.1,0,0.1,0c0,0,0.1,0,0.1,0c0.2,0.1,0.3,0.2,0.4,0.3l0.1,0.1c0.1,0.1,0.1,0.2,0.2,0.3
	c0.1,0.2,0.2,0.2,0.3,0.4c0.1,0.1,0,0.1,0.2,0.3c0.1,0.2,0.3,0.4,0.3,0.5l0.1,0.2c0,0.1,0.1,0.1,0.2,0.3c0.1,0.1,0.2,0.2,0.2,0.3
	c0.1,0.2,0.3,0.3,0.5,0.4c0.1,0.1,0.3,0.2,0.4,0.2c0.2,0.1,0.4,0.1,0.6,0.2c0.2,0,0.4,0.1,0.6,0.1c0.8,0.1,2.6,0,2.7,0"/>
<path class="st6" d="M64.2,41.6c0.2,0,2.7,0,3.5,0c0.1,0,0.2,0,0.3,0c0.3-0.1,0.6-0.2,0.9-0.4c0.5-0.3,0.9-0.8,1.1-1.3
	c0.4-0.6,0.7-1.3,0.9-2c0.2-0.6,0.3-1,0.6-2c0.2-0.8,0.4-1.4,0.6-2.1c0.1-0.5,0.2-0.8,0.4-1.5c0.2-0.6,0.4-1.1,0.7-1.6
	c0.1-0.1,0.2-0.3,0.3-0.4c0-0.1,0.1-0.1,0.2-0.1c0,0,0.1,0,0.1,0c0,0,0.1,0,0.1,0c0.1,0,0.1,0.1,0.2,0.1c0.2,0.3,0.4,0.7,0.6,1.1
	c0.1,0.2,0.1,0.4,0.2,0.4c0.1,0.4,0.2,0.6,0.3,0.9c0.2,0.7,0.2,0.6,0.4,1.3c0.1,0.3,0.1,0.2,0.3,1c0.2,0.7,0.4,1.3,0.4,1.5
	c0.1,0.3,0.1,0.5,0.2,0.6c0.1,0.2,0.1,0.5,0.3,0.8c0.2,0.5,0.3,0.8,0.3,0.9c0.2,0.5,0.4,1,0.7,1.4c0.1,0.3,0.3,0.5,0.5,0.7
	c0.2,0.2,0.5,0.4,0.8,0.5c0.2,0.1,0.5,0.2,0.7,0.2c1.2,0.1,2.4,0.1,3.6,0"/>
<path class="st6" d="M79.6,41.7c0.2,0,2.7,0,3.5,0c0.1,0,0.2,0,0.3,0c0.3,0,0.6-0.1,0.9-0.1c0.4-0.1,0.8-0.3,1.1-0.5
	c0.3-0.2,0.6-0.5,0.9-0.8c0.2-0.2,0.4-0.5,0.6-0.8c0.2-0.3,0.4-0.5,0.6-0.8c0.1-0.2,0.2-0.3,0.4-0.6c0.2-0.2,0.4-0.5,0.7-0.7
	c0.1-0.1,0.2-0.1,0.3-0.2c0.1,0,0.1,0,0.2-0.1c0,0,0.1,0,0.1,0h0.1c0.1,0,0.1,0,0.2,0.1c0.2,0.1,0.4,0.3,0.6,0.4l0.2,0.2
	c0.1,0.1,0.2,0.2,0.3,0.4c0.2,0.3,0.2,0.3,0.4,0.5c0.1,0.1,0.1,0.1,0.3,0.4c0.2,0.3,0.4,0.5,0.4,0.6l0.2,0.2
	c0.1,0.1,0.1,0.2,0.3,0.3c0.1,0.1,0.3,0.3,0.3,0.4c0.2,0.2,0.4,0.4,0.7,0.5c0.2,0.1,0.4,0.2,0.5,0.3c0.3,0.1,0.6,0.2,0.8,0.2
	c0.2,0,0.5,0.1,0.7,0.1c1.1,0.1,3.5,0,3.7,0"/>
<path class="st6" d="M64.2,72.4c0.2,0,2.7,0,3.5,0c0.1,0,0.2,0,0.3,0c0.3-0.1,0.6-0.2,0.9-0.4c0.5-0.3,0.9-0.8,1.1-1.3
	c0.4-0.6,0.7-1.3,0.9-2c0.2-0.6,0.3-1,0.6-2c0.2-0.8,0.4-1.4,0.6-2.1c0.1-0.5,0.2-0.8,0.4-1.5c0.2-0.6,0.4-1.1,0.7-1.6
	c0.1-0.1,0.2-0.3,0.3-0.4c0-0.1,0.1-0.1,0.2-0.1c0,0,0.1,0,0.1,0c0,0,0.1,0,0.1,0c0.1,0,0.1,0.1,0.2,0.1c0.2,0.3,0.4,0.7,0.6,1.1
	l0.2,0.4c0.1,0.4,0.2,0.6,0.3,0.9c0.2,0.7,0.2,0.6,0.4,1.3c0.1,0.3,0.1,0.2,0.3,1c0.2,0.8,0.4,1.3,0.4,1.5c0.1,0.3,0.1,0.5,0.2,0.6
	c0.1,0.2,0.1,0.5,0.3,0.8c0.2,0.5,0.3,0.8,0.3,0.9c0.2,0.5,0.4,1,0.7,1.4c0.1,0.3,0.3,0.5,0.5,0.7c0.2,0.2,0.5,0.4,0.8,0.5
	c0.2,0.1,0.5,0.2,0.7,0.2c1.2,0.1,2.4,0.1,3.6,0"/>
<path class="st6" d="M79.6,72.4c0.2,0,2.7,0,3.5,0h0.3c0.3,0,0.6-0.1,0.9-0.1c0.4-0.1,0.8-0.3,1.1-0.5c0.3-0.2,0.6-0.5,0.9-0.8
	c0.2-0.3,0.4-0.5,0.6-0.8c0.2-0.3,0.4-0.5,0.6-0.8c0.1-0.2,0.2-0.3,0.4-0.6c0.2-0.2,0.4-0.5,0.7-0.7c0.1-0.1,0.2-0.1,0.3-0.2
	c0.1,0,0.1,0,0.2-0.1c0,0,0.1,0,0.1,0c0,0,0.1,0,0.1,0c0.1,0,0.1,0,0.2,0c0.2,0.1,0.4,0.3,0.6,0.4l0.2,0.2c0.1,0.1,0.2,0.2,0.3,0.4
	c0.2,0.3,0.2,0.3,0.4,0.5c0.1,0.1,0.1,0.1,0.3,0.4c0.2,0.3,0.4,0.5,0.4,0.6l0.2,0.2c0.1,0.1,0.1,0.2,0.3,0.3
	c0.1,0.1,0.3,0.3,0.3,0.4c0.2,0.2,0.4,0.4,0.7,0.6c0.2,0.1,0.4,0.2,0.5,0.3c0.3,0.1,0.6,0.2,0.8,0.2c0.2,0,0.4,0.1,0.7,0.1
	c1.1,0.1,3.5,0,3.7,0"/>
<path class="st6" d="M4.1,71.6c0.1,0,2,0,2.6,0c0.1,0,0.2,0,0.3,0c0.3-0.1,0.5-0.3,0.7-0.6c0.4-0.6,0.7-1.2,0.9-1.9
	c0.3-1,0.5-1.9,0.7-2.9c0.2-0.8,0.3-1.6,0.5-3c0.2-1.1,0.3-2,0.4-3.1c0.1-0.7,0.2-1.3,0.3-2.2c0,0,0.1-0.9,0.5-2.5
	c0.1-0.2,0.1-0.4,0.2-0.6c0-0.1,0.1-0.1,0.1-0.2c0,0,0.1,0,0.1,0c0,0,0.1,0,0.1,0c0.1,0,0.1,0.1,0.1,0.2c0.2,0.5,0.3,1,0.4,1.6
	c0.1,0.4,0.1,0.5,0.1,0.6c0.1,0.5,0.1,0.9,0.2,1.3c0.1,1,0.2,0.9,0.3,2c0.1,0.5,0,0.3,0.2,1.5c0.2,1.2,0.3,2,0.3,2.2
	c0.1,0.5,0.1,0.7,0.1,0.9c0,0.3,0.1,0.7,0.2,1.2c0.1,0.7,0.2,1.2,0.2,1.3c0.1,0.7,0.3,1.4,0.5,2.1c0.1,0.4,0.2,0.7,0.4,1.1
	c0.2,0.3,0.4,0.6,0.6,0.8c0.2,0.1,0.4,0.2,0.6,0.3c0.8,0.2,2.6,0.1,2.7,0.1"/>
<path class="st6" d="M15.6,71.7c0.1,0,2,0,2.6,0c0.3,0,0.6-0.1,0.9-0.2c0.3-0.2,0.6-0.5,0.9-0.8c0.3-0.4,0.5-0.8,0.7-1.2
	c0.2-0.3,0.3-0.6,0.5-1.2c0.2-0.5,0.3-0.8,0.4-1.3c0.1-0.3,0.2-0.5,0.3-0.9c0.1-0.3,0.3-0.7,0.5-1c0.1-0.1,0.1-0.2,0.2-0.2
	c0.1-0.1,0.1-0.1,0.2-0.1c0,0,0.1,0,0.1,0c0,0,0.1,0,0.1,0.1c0.2,0.2,0.3,0.4,0.4,0.6c0.1,0.1,0.1,0.2,0.1,0.3
	c0.1,0.2,0.1,0.3,0.2,0.5c0.1,0.4,0.2,0.4,0.3,0.8c0.1,0.2,0,0.1,0.2,0.6c0.1,0.4,0.3,0.8,0.3,0.9l0.1,0.4c0,0.1,0.1,0.3,0.2,0.5
	c0.1,0.3,0.2,0.5,0.2,0.5c0.1,0.3,0.3,0.6,0.5,0.9c0.1,0.2,0.3,0.3,0.4,0.4c0.2,0.1,0.4,0.3,0.6,0.3c0.2,0.1,0.4,0.1,0.6,0.1
	c0.9,0.1,1.8,0.1,2.7,0"/>
</svg>
