<?xml version="1.0" encoding="utf-8"?>
<!-- Generator: Adobe Illustrator 24.2.3, SVG Export Plug-In . SVG Version: 6.00 Build 0)  -->
<svg version="1.1" id="Layer_1" xmlns="http://www.w3.org/2000/svg" xmlns:xlink="http://www.w3.org/1999/xlink" x="0px" y="0px"
	 viewBox="0 0 103 103" style="enable-background:new 0 0 103 103;" xml:space="preserve">
<style type="text/css">
	.st0{fill:#FFFFFF;stroke:#070606;stroke-width:3;stroke-miterlimit:10;}
	.st1{fill:#070606;}
	.st2{fill:none;stroke:#070606;stroke-width:0.5;stroke-linecap:round;stroke-linejoin:round;}
	.st3{fill:none;stroke:#221E1F;stroke-width:3;stroke-miterlimit:10;}
	.st4{fill:none;stroke:#070606;stroke-width:0.75;stroke-linecap:round;stroke-miterlimit:10;}
	.st5{fill:none;stroke:#070606;stroke-width:0.75;stroke-linecap:round;stroke-miterlimit:10;stroke-dasharray:5.2,5.2;}
	.st6{fill:none;stroke:#070606;stroke-width:0.75;stroke-linecap:round;stroke-miterlimit:10;stroke-dasharray:5.23,5.23;}
</style>
<g id="Four_Color_Sequence_Plot">
	<path id="square" class="st0" d="M9.3,1.5h84.4c4.3,0,7.8,3.5,7.8,7.8v84.4c0,4.3-3.5,7.8-7.8,7.8H9.3c-4.3,0-7.8-3.5-7.8-7.8V9.3
		C1.5,5,5,1.5,9.3,1.5z"/>
</g>
<rect x="13.5" y="25.6" class="st1" width="20.2" height="3.3"/>
<rect x="13.5" y="32.7" class="st1" width="74.4" height="2.3"/>
<rect x="67.8" y="38.7" class="st1" width="20.1" height="3.3"/>
<line class="st2" x1="28.1" y1="15.9" x2="40" y2="15.9"/>
<line class="st2" x1="23.6" y1="15.9" x2="26.9" y2="15.9"/>
<line class="st2" x1="16.8" y1="20.9" x2="19.5" y2="20.9"/>
<line class="st2" x1="20.8" y1="18.2" x2="23.6" y2="18.2"/>
<line class="st2" x1="25" y1="18.2" x2="27.7" y2="18.2"/>
<line class="st2" x1="68.2" y1="44.4" x2="71.7" y2="44.4"/>
<line class="st2" x1="72.7" y1="44.4" x2="75.1" y2="44.4"/>
<line class="st2" x1="76" y1="44.4" x2="80.4" y2="44.4"/>
<line class="st2" x1="15.1" y1="27" x2="18.8" y2="27"/>
<line class="st2" x1="19.9" y1="23.3" x2="27" y2="23.3"/>
<line class="st2" x1="81.2" y1="44.4" x2="87.5" y2="44.4"/>
<line class="st2" x1="21.3" y1="20.9" x2="25" y2="20.9"/>
<line class="st2" x1="27" y1="20.9" x2="33.3" y2="20.9"/>
<line class="st2" x1="66.1" y1="47.8" x2="71.1" y2="47.8"/>
<line class="st2" x1="72.1" y1="47.8" x2="73.1" y2="47.8"/>
<line class="st2" x1="81.8" y1="47.8" x2="84.1" y2="47.8"/>
<line class="st2" x1="74.4" y1="47.8" x2="77.2" y2="47.8"/>
<line class="st2" x1="78.2" y1="47.8" x2="80.7" y2="47.8"/>
<line class="st2" x1="61.9" y1="50.9" x2="71.1" y2="50.9"/>
<line class="st2" x1="72.3" y1="50.9" x2="76.5" y2="50.9"/>
<line class="st2" x1="78" y1="50.9" x2="80.4" y2="50.9"/>
<line class="st2" x1="59.3" y1="53.6" x2="68.4" y2="53.6"/>
<line class="st2" x1="69.6" y1="53.6" x2="73.8" y2="53.6"/>
<line class="st2" x1="75.3" y1="53.6" x2="77.8" y2="53.6"/>
<line class="st2" x1="14.1" y1="23.3" x2="17.8" y2="23.3"/>
<line class="st2" x1="28.9" y1="18.2" x2="37.1" y2="18.2"/>
<path class="st3" d="M13.9,65.3c0.2,0,2.7,0,3.5,0c0.1,0,0.2,0,0.3,0c0.3,0,0.6-0.1,0.9-0.3c0.5-0.2,0.8-0.6,1.1-1
	c0.4-0.5,0.6-1,0.9-1.5c0.2-0.4,0.3-0.8,0.6-1.5c0.2-0.6,0.4-1,0.6-1.6c0.1-0.4,0.2-0.6,0.4-1.1c0.2-0.4,0.4-0.9,0.7-1.3
	c0.1-0.1,0.2-0.2,0.3-0.3c0,0,0.1-0.1,0.2-0.1c0,0,0.1,0,0.1,0c0,0,0.1,0,0.1,0c0.1,0,0.1,0.1,0.2,0.1c0.2,0.2,0.4,0.5,0.6,0.8
	l0.2,0.3c0.1,0.2,0.2,0.4,0.3,0.7c0.2,0.5,0.2,0.5,0.4,1c0.1,0.3,0.1,0.2,0.3,0.7c0.2,0.6,0.4,1,0.4,1.1c0.1,0.2,0.1,0.4,0.2,0.5
	c0,0.1,0.1,0.4,0.3,0.6c0.2,0.4,0.3,0.6,0.3,0.7c0.2,0.4,0.4,0.7,0.7,1.1c0.2,0.2,0.3,0.4,0.5,0.6c0.3,0.2,0.5,0.3,0.8,0.4
	c0.2,0.1,0.5,0.1,0.7,0.1c1.2,0.1,2.4,0.1,3.6,0"/>
<path class="st3" d="M87.8,56.7c-0.2,0-2.8,0-3.6,0c-0.1,0-0.2,0-0.3,0c-0.3,0-0.6,0.1-0.9,0.3c-0.5,0.2-0.9,0.6-1.2,1
	c-0.4,0.5-0.7,1-0.9,1.5c-0.2,0.4-0.4,0.8-0.6,1.5c-0.2,0.6-0.4,1-0.6,1.6c-0.1,0.4-0.2,0.6-0.4,1.1c-0.2,0.4-0.4,0.9-0.7,1.3
	c-0.1,0.1-0.2,0.2-0.3,0.3c0,0-0.1,0.1-0.2,0.1c0,0-0.1,0-0.1,0c0,0-0.1,0-0.1,0c-0.1,0-0.1-0.1-0.2-0.1c-0.2-0.2-0.5-0.5-0.6-0.8
	l-0.2-0.3c-0.1-0.3-0.2-0.5-0.3-0.7c-0.2-0.5-0.2-0.5-0.4-1c-0.1-0.3-0.1-0.2-0.3-0.7c-0.2-0.6-0.4-1-0.4-1.1
	c-0.1-0.2-0.1-0.4-0.2-0.5c0-0.1-0.1-0.4-0.3-0.6c-0.2-0.4-0.3-0.6-0.3-0.7c-0.2-0.4-0.4-0.7-0.7-1.1c-0.2-0.2-0.3-0.4-0.6-0.6
	c-0.3-0.2-0.6-0.3-0.9-0.4c-0.2-0.1-0.5-0.1-0.8-0.1c-1.3-0.1-2.5-0.1-3.8,0"/>
<path class="st3" d="M13.9,86.9c0.6,0,10.7,0,13.6,0c0.2,0,0.7,0,1.3-0.1c1.2-0.1,2.4-0.3,3.5-0.7c1.6-0.5,3.1-1.3,4.4-2.4
	c1.3-1.1,2.5-2.3,3.4-3.7c0.9-1.2,1.7-2.5,2.4-3.7c0.9-1.4,1.5-2.6,2.3-3.9c0.5-0.9,0.8-1.6,1.6-2.8c0.8-1.1,1.7-2.2,2.7-3.1
	c0.3-0.3,0.7-0.5,1.1-0.7c0.2-0.1,0.4-0.2,0.7-0.3c0.2,0,0.4-0.1,0.6-0.1c0.2,0,0.4,0,0.5,0.1c0.2,0,0.5,0.1,0.7,0.2
	c1,0.5,2.3,2,2.3,2c0.4,0.5,0.6,0.7,0.7,0.8c0.4,0.5,0.8,1.1,1.1,1.6c0.8,1.3,0.8,1.2,1.5,2.4c0.4,0.6,0.2,0.4,1,1.8
	c0.8,1.5,1.4,2.5,1.6,2.8c0.4,0.6,0.6,0.9,0.7,1.1c0.2,0.3,0.6,0.9,1.1,1.6c0.6,0.9,1.2,1.5,1.3,1.7c0.8,1,1.6,1.9,2.6,2.7
	c0.6,0.6,1.4,1,2.1,1.4c1.1,0.5,2.2,0.8,3.3,1c1,0.2,1.9,0.3,2.9,0.4c4.3,0.3,13.8,0.1,14.2,0.1"/>
<line class="st4" x1="13.9" y1="57.1" x2="13.9" y2="56.1"/>
<line class="st5" x1="13.9" y1="54.1" x2="13.9" y2="18.5"/>
<line class="st4" x1="13.9" y1="17.5" x2="13.9" y2="16.5"/>
<line class="st4" x1="87.5" y1="57.1" x2="87.5" y2="56.1"/>
<line class="st6" x1="87.5" y1="54.1" x2="87.5" y2="34.7"/>
<line class="st4" x1="87.5" y1="33.7" x2="87.5" y2="32.7"/>
<line class="st4" x1="33.3" y1="57.1" x2="33.3" y2="56.1"/>
<line class="st5" x1="33.3" y1="54.1" x2="33.3" y2="18.5"/>
<line class="st4" x1="33.3" y1="17.5" x2="33.3" y2="16.5"/>
<line class="st4" x1="68.2" y1="57.1" x2="68.2" y2="56.1"/>
<line class="st6" x1="68.2" y1="54.1" x2="68.2" y2="34.7"/>
<line class="st4" x1="68.2" y1="33.7" x2="68.2" y2="32.7"/>
</svg>
