<?xml version="1.0" encoding="UTF-8"?>
<svg xmlns="http://www.w3.org/2000/svg" xmlns:xlink="http://www.w3.org/1999/xlink" width="103" height="103" viewBox="0 0 103 103" version="1.1" tyle="enable-background:new 0 0 103 103; width: 103; height: 103;" xml:space="preserve">
<g id="surface1">
<path style=" stroke:none;fill-rule:evenodd;fill:rgb(6.27451%,4.705882%,3.921569%);fill-opacity:1;" d="M 8.753906 0.515625 C 4.855469 0.90625 1.691406 3.683594 0.695312 7.582031 L 0.464844 8.496094 L 0.464844 94.503906 L 0.695312 95.417969 C 1.582031 98.886719 4.113281 101.417969 7.582031 102.304688 L 8.496094 102.535156 L 94.503906 102.535156 L 95.417969 102.304688 C 98.886719 101.417969 101.417969 98.886719 102.304688 95.417969 L 102.535156 94.503906 L 102.535156 8.496094 L 102.304688 7.582031 C 101.425781 4.136719 98.9375 1.628906 95.46875 0.699219 L 94.605469 0.464844 L 52.066406 0.453125 C 28.671875 0.445312 9.179688 0.472656 8.753906 0.515625 M 95.398438 3.828125 C 97.21875 4.558594 98.441406 5.78125 99.171875 7.601562 L 99.445312 8.292969 L 99.445312 94.707031 L 99.171875 95.398438 C 98.441406 97.21875 97.21875 98.441406 95.398438 99.171875 L 94.707031 99.445312 L 8.292969 99.445312 L 7.601562 99.171875 C 5.78125 98.441406 4.558594 97.21875 3.828125 95.398438 L 3.554688 94.707031 L 3.527344 51.761719 C 3.503906 13.925781 3.519531 8.746094 3.65625 8.214844 C 4.117188 6.40625 5.382812 4.863281 7.050781 4.074219 C 8.324219 3.472656 4.933594 3.511719 51.707031 3.535156 L 94.707031 3.554688 L 95.398438 3.828125 M 6.226562 36.074219 C 6.199219 36.144531 6.191406 44.386719 6.203125 54.382812 L 6.230469 72.5625 L 10.816406 72.617188 L 10.816406 71.28125 L 9.65625 71.253906 L 8.496094 71.222656 L 8.472656 54.308594 L 8.445312 37.390625 L 10.824219 37.390625 L 10.761719 36 L 8.519531 35.96875 C 6.78125 35.949219 6.265625 35.972656 6.226562 36.074219 M 40.273438 36.664062 L 40.273438 37.382812 L 41.433594 37.410156 L 42.589844 37.441406 L 42.589844 71.222656 L 41.433594 71.253906 L 40.273438 71.28125 L 40.273438 72.613281 L 44.804688 72.613281 L 44.78125 54.308594 L 44.753906 36 L 42.511719 35.96875 L 40.273438 35.941406 L 40.273438 36.664062 M 60.976562 54.28125 L 60.976562 72.613281 L 65.507812 72.613281 L 65.507812 71.28125 L 64.347656 71.253906 L 63.191406 71.222656 L 63.191406 37.441406 L 64.347656 37.410156 L 65.507812 37.382812 L 65.507812 35.945312 L 60.976562 35.945312 L 60.976562 54.28125 M 92.492188 36.664062 L 92.492188 37.382812 L 93.652344 37.410156 L 94.8125 37.441406 L 94.8125 71.222656 L 93.652344 71.253906 L 92.492188 71.28125 L 92.492188 72.613281 L 97.027344 72.613281 L 97.027344 35.945312 L 92.492188 35.945312 L 92.492188 36.664062 M 65.40625 42.746094 L 65.40625 44.808594 L 67.46875 44.78125 L 69.535156 44.753906 L 69.535156 40.738281 L 67.46875 40.707031 L 65.40625 40.679688 L 65.40625 42.746094 M 89.824219 41.550781 C 89.195312 42.589844 89.195312 42.351562 89.828125 43.46875 L 90.359375 44.398438 L 91.5 44.371094 L 92.644531 44.339844 L 93.152344 43.425781 L 93.660156 42.507812 L 93.414062 42.042969 C 93.28125 41.789062 93.042969 41.378906 92.886719 41.132812 L 92.601562 40.683594 L 90.34375 40.683594 L 89.824219 41.550781 M 73.59375 42.230469 L 72.15625 43.671875 L 75.011719 43.671875 C 76.582031 43.671875 77.867188 43.636719 77.867188 43.59375 C 77.867188 43.507812 75.167969 40.789062 75.085938 40.789062 C 75.054688 40.789062 74.386719 41.4375 73.59375 42.230469 M 82.347656 41.039062 C 80.613281 41.886719 81.070312 44.289062 82.964844 44.289062 C 85.105469 44.289062 85.285156 41.148438 83.15625 40.9375 C 82.835938 40.90625 82.546875 40.941406 82.347656 41.039062 M 11.949219 43.054688 L 11.949219 45.113281 L 16.066406 45.113281 L 16.066406 40.992188 L 11.949219 40.992188 L 11.949219 43.054688 M 19.902344 43.027344 L 19.929688 45.0625 L 24.050781 45.0625 L 24.105469 40.992188 L 19.875 40.992188 L 19.902344 43.027344 M 27.914062 43.054688 L 27.914062 45.113281 L 32.03125 45.113281 L 32.03125 40.992188 L 27.914062 40.992188 L 27.914062 43.054688 M 35.84375 43.054688 L 35.84375 45.113281 L 39.964844 45.113281 L 39.964844 40.992188 L 35.84375 40.992188 L 35.84375 43.054688 M 89.828125 50.363281 C 89.527344 50.871094 89.296875 51.328125 89.316406 51.375 C 89.335938 51.421875 89.582031 51.863281 89.859375 52.355469 L 90.367188 53.25 L 92.582031 53.25 L 93.105469 52.335938 C 93.738281 51.230469 93.738281 51.394531 93.097656 50.324219 L 92.570312 49.441406 L 90.375 49.441406 L 89.828125 50.363281 M 65.449219 49.675781 C 65.421875 49.746094 65.414062 50.6875 65.429688 51.761719 L 65.457031 53.714844 L 69.542969 53.714844 L 69.535156 51.707031 C 69.53125 50.601562 69.527344 49.664062 69.527344 49.621094 C 69.523438 49.472656 65.507812 49.527344 65.449219 49.675781 M 82.082031 49.933594 C 80.640625 50.863281 81.242188 53.046875 82.941406 53.046875 C 85.132812 53.046875 85.285156 49.84375 83.101562 49.671875 C 82.632812 49.636719 82.488281 49.671875 82.082031 49.933594 M 73.605469 51.382812 C 72.820312 52.167969 72.226562 52.839844 72.277344 52.875 C 72.488281 53.003906 77.867188 52.941406 77.867188 52.808594 C 77.867188 52.691406 75.199219 49.953125 75.085938 49.953125 C 75.054688 49.953125 74.390625 50.597656 73.605469 51.382812 M 12.410156 51.5 L 10.972656 52.941406 L 16.835938 52.941406 L 15.398438 51.5 C 14.605469 50.707031 13.933594 50.058594 13.90625 50.058594 C 13.875 50.058594 13.203125 50.707031 12.410156 51.5 M 20.859375 51.5 L 19.417969 52.941406 L 22.273438 52.941406 C 23.847656 52.941406 25.132812 52.90625 25.132812 52.863281 C 25.132812 52.777344 22.433594 50.058594 22.347656 50.058594 C 22.320312 50.058594 21.648438 50.707031 20.859375 51.5 M 28.351562 51.460938 C 27.601562 52.222656 26.984375 52.867188 26.984375 52.894531 C 26.984375 52.917969 28.261719 52.941406 29.820312 52.941406 C 31.375 52.941406 32.652344 52.921875 32.652344 52.902344 C 32.652344 52.820312 29.863281 50.058594 29.789062 50.066406 C 29.75 50.070312 29.101562 50.699219 28.351562 51.460938 M 36.824219 51.5 L 35.382812 52.941406 L 38.238281 52.941406 C 39.8125 52.941406 41.097656 52.90625 41.097656 52.863281 C 41.097656 52.777344 38.398438 50.058594 38.3125 50.058594 C 38.285156 50.058594 37.613281 50.707031 36.824219 51.5 M 55.414062 52.375 L 55.414062 53.25 L 46.863281 53.25 L 46.863281 55.207031 L 55.414062 55.207031 L 55.414062 56.648438 L 57.9375 55.390625 C 59.324219 54.695312 60.460938 54.105469 60.460938 54.074219 C 60.460938 54.046875 59.324219 53.453125 57.9375 52.761719 L 55.414062 51.5 L 55.414062 52.375 M 13.132812 57.511719 C 11.445312 58.292969 12.074219 60.875 13.921875 60.746094 C 16.046875 60.597656 16.109375 57.546875 13.988281 57.402344 C 13.664062 57.382812 13.316406 57.425781 13.132812 57.511719 M 21.046875 57.628906 C 19.613281 58.488281 20.121094 60.609375 21.796875 60.75 C 22.910156 60.84375 23.652344 60.074219 23.566406 58.921875 C 23.472656 57.597656 22.191406 56.945312 21.046875 57.628906 M 28.859375 57.652344 C 27.449219 58.566406 27.957031 60.609375 29.625 60.75 C 30.738281 60.84375 31.480469 60.074219 31.394531 58.921875 C 31.296875 57.582031 29.980469 56.925781 28.859375 57.652344 M 37.132812 57.511719 C 35.539062 58.246094 36.03125 60.769531 37.769531 60.769531 C 39.980469 60.769531 40.1875 57.550781 37.984375 57.402344 C 37.664062 57.382812 37.316406 57.425781 37.132812 57.511719 M 65.40625 59.738281 L 65.40625 61.800781 L 67.449219 61.800781 C 68.570312 61.800781 69.511719 61.78125 69.535156 61.757812 C 69.558594 61.734375 69.5625 60.808594 69.546875 59.695312 L 69.515625 57.679688 L 65.40625 57.679688 L 65.40625 59.738281 M 90.070312 58.246094 C 89.890625 58.53125 89.636719 58.949219 89.507812 59.175781 L 89.273438 59.589844 L 90.359375 61.496094 L 92.625 61.441406 L 93.144531 60.523438 L 93.664062 59.609375 L 93.378906 59.082031 C 93.222656 58.792969 92.972656 58.378906 92.820312 58.160156 L 92.546875 57.761719 L 90.398438 57.730469 L 90.070312 58.246094 M 73.492188 59.328125 L 72.050781 60.769531 L 74.90625 60.769531 C 76.480469 60.769531 77.765625 60.734375 77.765625 60.691406 C 77.765625 60.605469 75.066406 57.886719 74.980469 57.886719 C 74.953125 57.886719 74.28125 58.535156 73.492188 59.328125 M 82.398438 58.097656 C 80.625 58.84375 81.0625 61.386719 82.964844 61.386719 C 85.117188 61.386719 85.296875 58.238281 83.15625 58.039062 C 82.882812 58.011719 82.542969 58.039062 82.398438 58.097656 M 12.28125 64.96875 C 12.175781 65.121094 11.910156 65.542969 11.699219 65.898438 L 11.3125 66.542969 L 11.863281 67.492188 L 12.414062 68.445312 L 14.652344 68.445312 L 15.152344 67.566406 C 15.765625 66.492188 15.765625 66.59375 15.132812 65.546875 L 14.613281 64.683594 L 13.542969 64.683594 C 12.496094 64.683594 12.472656 64.6875 12.28125 64.96875 M 20.109375 65.570312 C 19.460938 66.636719 19.460938 66.425781 20.105469 67.558594 L 20.644531 68.496094 L 22.847656 68.496094 L 23.371094 67.554688 C 24.003906 66.421875 24.003906 66.652344 23.367188 65.578125 L 22.839844 64.683594 L 20.644531 64.683594 L 20.109375 65.570312 M 28.335938 65.550781 C 27.695312 66.613281 27.699219 66.472656 28.332031 67.582031 L 28.855469 68.496094 L 31.054688 68.496094 L 31.601562 67.511719 L 32.148438 66.53125 L 31.601562 65.632812 L 31.050781 64.734375 L 29.957031 64.707031 L 28.863281 64.675781 L 28.335938 65.550781 M 36.808594 65.117188 C 36.65625 65.359375 36.402344 65.777344 36.242188 66.046875 L 35.953125 66.535156 L 36.496094 67.488281 L 37.035156 68.445312 L 39.28125 68.445312 L 39.824219 67.484375 L 40.367188 66.527344 L 39.824219 65.632812 L 39.28125 64.734375 L 38.183594 64.707031 L 37.085938 64.675781 L 36.808594 65.117188 M 65.453125 65.226562 C 65.421875 65.300781 65.414062 66.238281 65.429688 67.3125 L 65.457031 69.265625 L 69.539062 69.265625 L 69.539062 65.148438 L 67.519531 65.121094 C 65.9375 65.097656 65.492188 65.121094 65.453125 65.226562 M 89.816406 66.101562 L 89.277344 67 L 89.664062 67.722656 C 90.398438 69.078125 90.300781 69.011719 91.445312 69.007812 C 92.636719 69.007812 92.566406 69.046875 93.097656 68.074219 C 93.632812 67.089844 93.628906 66.925781 93.054688 65.976562 L 92.582031 65.199219 L 90.355469 65.199219 L 89.816406 66.101562 M 73.566406 66.679688 C 72.816406 67.433594 72.203125 68.105469 72.203125 68.171875 C 72.203125 68.257812 72.957031 68.289062 74.984375 68.289062 C 77.15625 68.289062 77.765625 68.261719 77.765625 68.160156 C 77.765625 68.039062 75.09375 65.296875 74.984375 65.304688 C 74.957031 65.304688 74.320312 65.925781 73.566406 66.679688 M 82.464844 65.554688 C 80.992188 66.085938 80.847656 68.082031 82.234375 68.710938 C 83.769531 69.40625 85.289062 67.742188 84.4375 66.289062 C 84.050781 65.628906 83.171875 65.300781 82.464844 65.554688 "/>
<path style=" stroke:none;fill-rule:evenodd;fill:rgb(98.431373%,98.431373%,98.431373%);fill-opacity:1;" d="M 8.160156 3.660156 C 5.949219 4.257812 4.222656 6.003906 3.65625 8.214844 C 3.519531 8.746094 3.503906 13.925781 3.527344 51.761719 L 3.554688 94.707031 L 3.828125 95.398438 C 4.558594 97.21875 5.78125 98.441406 7.601562 99.171875 L 8.292969 99.445312 L 94.707031 99.445312 L 95.398438 99.171875 C 97.21875 98.441406 98.441406 97.21875 99.171875 95.398438 L 99.445312 94.707031 L 99.445312 8.292969 L 99.171875 7.601562 C 98.441406 5.78125 97.21875 4.558594 95.398438 3.828125 L 94.707031 3.554688 L 51.707031 3.535156 C 14.738281 3.519531 8.628906 3.535156 8.160156 3.660156 M 10.792969 36.695312 L 10.824219 37.390625 L 8.445312 37.390625 L 8.472656 54.308594 L 8.496094 71.222656 L 9.65625 71.253906 L 10.816406 71.28125 L 10.816406 72.617188 L 6.230469 72.5625 L 6.203125 54.382812 C 6.191406 44.386719 6.199219 36.144531 6.226562 36.074219 C 6.265625 35.972656 6.78125 35.949219 8.519531 35.96875 L 10.761719 36 L 10.792969 36.695312 M 44.78125 54.308594 L 44.804688 72.613281 L 40.273438 72.613281 L 40.273438 71.28125 L 41.433594 71.253906 L 42.589844 71.222656 L 42.589844 37.441406 L 41.433594 37.410156 L 40.273438 37.382812 L 40.273438 35.941406 L 42.511719 35.96875 L 44.753906 36 L 44.78125 54.308594 M 65.507812 36.664062 L 65.507812 37.382812 L 64.347656 37.410156 L 63.191406 37.441406 L 63.191406 71.222656 L 64.347656 71.253906 L 65.507812 71.28125 L 65.507812 72.613281 L 60.976562 72.613281 L 60.976562 35.945312 L 65.507812 35.945312 L 65.507812 36.664062 M 97.027344 54.28125 L 97.027344 72.613281 L 92.492188 72.613281 L 92.492188 71.28125 L 93.652344 71.253906 L 94.8125 71.222656 L 94.8125 37.441406 L 93.652344 37.410156 L 92.492188 37.382812 L 92.492188 35.945312 L 97.027344 35.945312 L 97.027344 54.28125 M 69.535156 42.746094 L 69.535156 44.753906 L 67.46875 44.78125 L 65.40625 44.808594 L 65.40625 40.679688 L 67.46875 40.707031 L 69.535156 40.738281 L 69.535156 42.746094 M 92.886719 41.132812 C 93.042969 41.378906 93.28125 41.789062 93.414062 42.042969 L 93.660156 42.507812 L 93.152344 43.425781 L 92.644531 44.339844 L 91.5 44.371094 L 90.359375 44.398438 L 89.828125 43.46875 C 89.195312 42.351562 89.195312 42.589844 89.824219 41.550781 L 90.34375 40.683594 L 92.601562 40.683594 L 92.886719 41.132812 M 76.503906 42.152344 C 77.253906 42.902344 77.867188 43.550781 77.867188 43.59375 C 77.867188 43.636719 76.582031 43.671875 75.011719 43.671875 L 72.15625 43.671875 L 73.59375 42.230469 C 74.386719 41.4375 75.054688 40.789062 75.085938 40.789062 C 75.113281 40.789062 75.75 41.402344 76.503906 42.152344 M 84.019531 41.261719 C 84.699219 41.78125 84.867188 42.746094 84.410156 43.519531 C 83.796875 44.570312 82.136719 44.570312 81.519531 43.519531 C 80.574219 41.90625 82.539062 40.132812 84.019531 41.261719 M 16.066406 43.054688 L 16.066406 45.113281 L 11.949219 45.113281 L 11.949219 40.992188 L 16.066406 40.992188 L 16.066406 43.054688 M 24.078125 43.027344 L 24.050781 45.0625 L 19.929688 45.0625 L 19.875 40.992188 L 24.105469 40.992188 L 24.078125 43.027344 M 32.03125 43.054688 L 32.03125 45.113281 L 27.914062 45.113281 L 27.914062 40.992188 L 32.03125 40.992188 L 32.03125 43.054688 M 39.964844 43.054688 L 39.964844 45.113281 L 35.84375 45.113281 L 35.84375 40.992188 L 39.964844 40.992188 L 39.964844 43.054688 M 93.097656 50.324219 C 93.738281 51.394531 93.738281 51.230469 93.105469 52.335938 L 92.582031 53.25 L 90.367188 53.25 L 89.859375 52.355469 C 89.582031 51.863281 89.335938 51.421875 89.316406 51.375 C 89.296875 51.328125 89.527344 50.871094 89.828125 50.363281 L 90.375 49.441406 L 92.570312 49.441406 L 93.097656 50.324219 M 69.527344 49.621094 C 69.527344 49.664062 69.53125 50.601562 69.535156 51.707031 L 69.542969 53.714844 L 65.457031 53.714844 L 65.429688 51.761719 C 65.414062 50.6875 65.421875 49.746094 65.449219 49.675781 C 65.507812 49.527344 69.523438 49.472656 69.527344 49.621094 M 83.917969 49.917969 C 85.308594 50.957031 84.65625 53.046875 82.941406 53.046875 C 81.242188 53.046875 80.640625 50.863281 82.082031 49.933594 C 82.644531 49.574219 83.445312 49.566406 83.917969 49.917969 M 76.503906 51.316406 C 77.253906 52.066406 77.867188 52.738281 77.867188 52.808594 C 77.867188 52.941406 72.488281 53.003906 72.277344 52.875 C 72.191406 52.820312 74.949219 49.953125 75.085938 49.953125 C 75.113281 49.953125 75.75 50.570312 76.503906 51.316406 M 15.398438 51.5 L 16.835938 52.941406 L 10.972656 52.941406 L 12.410156 51.5 C 13.203125 50.707031 13.875 50.058594 13.90625 50.058594 C 13.933594 50.058594 14.605469 50.707031 15.398438 51.5 M 23.765625 51.421875 C 24.515625 52.171875 25.132812 52.820312 25.132812 52.863281 C 25.132812 52.90625 23.847656 52.941406 22.273438 52.941406 L 19.417969 52.941406 L 20.859375 51.5 C 21.648438 50.707031 22.320312 50.058594 22.347656 50.058594 C 22.375 50.058594 23.015625 50.671875 23.765625 51.421875 M 31.257812 51.457031 C 32.023438 52.230469 32.652344 52.878906 32.652344 52.902344 C 32.652344 52.921875 31.375 52.941406 29.820312 52.941406 C 28.261719 52.941406 26.984375 52.917969 26.984375 52.894531 C 26.984375 52.816406 29.707031 50.074219 29.789062 50.066406 C 29.832031 50.0625 30.492188 50.6875 31.257812 51.457031 M 39.730469 51.421875 C 40.480469 52.171875 41.097656 52.820312 41.097656 52.863281 C 41.097656 52.90625 39.8125 52.941406 38.238281 52.941406 L 35.382812 52.941406 L 36.824219 51.5 C 37.613281 50.707031 38.285156 50.058594 38.3125 50.058594 C 38.339844 50.058594 38.980469 50.671875 39.730469 51.421875 M 60.460938 54.074219 C 60.460938 54.105469 59.324219 54.695312 57.9375 55.390625 L 55.414062 56.648438 L 55.414062 55.207031 L 46.863281 55.207031 L 46.863281 53.25 L 55.414062 53.25 L 55.414062 51.5 L 57.9375 52.761719 C 59.324219 53.453125 60.460938 54.046875 60.460938 54.074219 M 14.804688 57.644531 C 16.148438 58.648438 15.585938 60.632812 13.921875 60.746094 C 12.074219 60.875 11.445312 58.292969 13.132812 57.511719 C 13.558594 57.3125 14.457031 57.386719 14.804688 57.644531 M 22.722656 57.539062 C 23.480469 57.898438 23.828125 59.046875 23.429688 59.882812 C 22.859375 61.089844 20.945312 61.039062 20.382812 59.800781 C 19.714844 58.328125 21.253906 56.839844 22.722656 57.539062 M 30.550781 57.539062 C 31.683594 58.074219 31.726562 59.882812 30.625 60.527344 C 29.164062 61.382812 27.488281 59.867188 28.21875 58.355469 C 28.628906 57.507812 29.699219 57.132812 30.550781 57.539062 M 38.804688 57.644531 C 40.195312 58.683594 39.503906 60.769531 37.769531 60.769531 C 36.03125 60.769531 35.539062 58.246094 37.132812 57.511719 C 37.554688 57.3125 38.457031 57.386719 38.804688 57.644531 M 69.546875 59.695312 C 69.5625 60.808594 69.558594 61.734375 69.535156 61.757812 C 69.511719 61.78125 68.570312 61.800781 67.449219 61.800781 L 65.40625 61.800781 L 65.40625 57.679688 L 69.515625 57.679688 L 69.546875 59.695312 M 92.820312 58.160156 C 92.972656 58.378906 93.222656 58.792969 93.378906 59.082031 L 93.664062 59.609375 L 93.144531 60.523438 L 92.625 61.441406 L 90.359375 61.496094 L 89.273438 59.589844 L 89.507812 59.175781 C 89.636719 58.949219 89.890625 58.53125 90.070312 58.246094 L 90.398438 57.730469 L 92.546875 57.761719 L 92.820312 58.160156 M 76.398438 59.25 C 77.148438 60 77.765625 60.648438 77.765625 60.691406 C 77.765625 60.734375 76.480469 60.769531 74.90625 60.769531 L 72.050781 60.769531 L 73.492188 59.328125 C 74.28125 58.535156 74.953125 57.886719 74.980469 57.886719 C 75.007812 57.886719 75.648438 58.5 76.398438 59.25 M 84.019531 58.359375 C 84.96875 59.085938 84.847656 60.726562 83.800781 61.222656 C 82.972656 61.613281 81.945312 61.34375 81.519531 60.617188 C 80.578125 59.011719 82.542969 57.234375 84.019531 58.359375 M 15.132812 65.546875 C 15.765625 66.59375 15.765625 66.492188 15.152344 67.566406 L 14.652344 68.445312 L 12.414062 68.445312 L 11.863281 67.492188 L 11.3125 66.542969 L 11.699219 65.898438 C 12.488281 64.582031 12.332031 64.683594 13.542969 64.683594 L 14.613281 64.683594 L 15.132812 65.546875 M 23.367188 65.578125 C 24.003906 66.652344 24.003906 66.421875 23.371094 67.554688 L 22.847656 68.496094 L 20.644531 68.496094 L 20.105469 67.558594 C 19.460938 66.425781 19.460938 66.636719 20.109375 65.570312 L 20.644531 64.683594 L 22.839844 64.683594 L 23.367188 65.578125 M 31.601562 65.632812 L 32.148438 66.53125 L 31.601562 67.511719 L 31.054688 68.496094 L 28.855469 68.496094 L 28.332031 67.582031 C 27.699219 66.472656 27.695312 66.613281 28.335938 65.550781 L 28.863281 64.675781 L 29.957031 64.707031 L 31.050781 64.734375 L 31.601562 65.632812 M 39.824219 65.632812 L 40.367188 66.527344 L 39.824219 67.484375 L 39.28125 68.445312 L 37.035156 68.445312 L 36.496094 67.488281 L 35.953125 66.535156 L 36.242188 66.046875 C 36.402344 65.777344 36.65625 65.359375 36.808594 65.117188 L 37.085938 64.675781 L 38.183594 64.707031 L 39.28125 64.734375 L 39.824219 65.632812 M 69.539062 67.207031 L 69.539062 69.265625 L 65.457031 69.265625 L 65.429688 67.3125 C 65.414062 66.238281 65.421875 65.300781 65.453125 65.226562 C 65.492188 65.121094 65.9375 65.097656 67.519531 65.121094 L 69.539062 65.148438 L 69.539062 67.207031 M 93.054688 65.976562 C 93.628906 66.925781 93.632812 67.089844 93.097656 68.074219 C 92.566406 69.046875 92.636719 69.007812 91.445312 69.007812 C 90.300781 69.011719 90.398438 69.078125 89.664062 67.722656 L 89.277344 67 L 89.816406 66.101562 L 90.355469 65.199219 L 92.582031 65.199219 L 93.054688 65.976562 M 76.398438 66.664062 C 77.148438 67.414062 77.765625 68.085938 77.765625 68.160156 C 77.765625 68.261719 77.15625 68.289062 74.984375 68.289062 C 72.957031 68.289062 72.203125 68.257812 72.203125 68.171875 C 72.203125 68.0625 74.871094 65.3125 74.984375 65.304688 C 75.011719 65.304688 75.648438 65.914062 76.398438 66.664062 M 83.84375 65.707031 C 84.390625 65.980469 84.683594 66.558594 84.636719 67.285156 C 84.511719 69.320312 81.519531 69.4375 81.292969 67.417969 C 81.128906 65.96875 82.511719 65.039062 83.84375 65.707031 "/>
</g>
</svg>
