<svg id="Layer_1" data-name="Layer 1" xmlns="http://www.w3.org/2000/svg" viewBox="0 0 103 103"><defs><style>.cls-1{fill:#fff;}.cls-1,.cls-2,.cls-6{stroke:#070606;}.cls-1,.cls-8{stroke-miterlimit:10;}.cls-1,.cls-6,.cls-8{stroke-width:3px;}.cls-2,.cls-6,.cls-8{fill:none;}.cls-2,.cls-6{stroke-linecap:round;stroke-linejoin:round;}.cls-2{stroke-width:2px;}.cls-3{fill:#070606;}.cls-4{isolation:isolate;}.cls-5{fill:#231815;}.cls-7{fill:#040000;}.cls-8{stroke:#221f20;}</style></defs><g id="c"><rect id="d" class="cls-1" x="1.5" y="1.5" width="100" height="100" rx="7.81"/></g><g id="e"><line class="cls-2" x1="22.92" y1="55.12" x2="22.92" y2="72.85"/><polygon class="cls-3" points="16.53 67.67 17.68 66.61 22.92 72.25 28.16 66.61 29.31 67.67 22.92 74.55 16.53 67.67"/></g><g id="f"><g class="cls-4"><g class="cls-4"><path class="cls-5" d="M14.85,6c0-.2.09-.3.29-.3h4.4a2.7,2.7,0,0,1,1.1.22,2.88,2.88,0,0,1,.91.62,2.9,2.9,0,0,1,.84,2,2.6,2.6,0,0,1-.16.93,2.27,2.27,0,0,1-.44.77,3.29,3.29,0,0,1,.76,1,3.14,3.14,0,0,1,.28,1.28,2.94,2.94,0,0,1-.23,1.14,3.28,3.28,0,0,1-.63,1,2.84,2.84,0,0,1-.93.65,2.64,2.64,0,0,1-1.11.24H15.14c-.2,0-.29-.09-.29-.29Zm2.56,1.66V9.55h1.41a1.12,1.12,0,0,0,.42-.08.83.83,0,0,0,.32-.2.81.81,0,0,0,.21-.3,1,1,0,0,0,.08-.38,1.17,1.17,0,0,0-.07-.38,1,1,0,0,0-.21-.3,1,1,0,0,0-.32-.21,1.07,1.07,0,0,0-.41-.08Zm0,3.71v2.22h1.78a.86.86,0,0,0,.39-.09,1.27,1.27,0,0,0,.33-.24,1.15,1.15,0,0,0,.22-.35,1,1,0,0,0,.08-.42,1.09,1.09,0,0,0-.07-.4,1.13,1.13,0,0,0-.22-.36,1.35,1.35,0,0,0-.32-.26,1,1,0,0,0-.41-.1Z"/><path class="cls-5" d="M30.18,12.74a.22.22,0,0,1,.19.1L31.22,14a.4.4,0,0,1,.1.24.31.31,0,0,1-.11.21,5.93,5.93,0,0,1-.83.6,4.3,4.3,0,0,1-.8.36,3.66,3.66,0,0,1-.78.18,5.11,5.11,0,0,1-.78.05,4,4,0,0,1-1.64-.34A4.58,4.58,0,0,1,25,14.39,4.31,4.31,0,0,1,24,13a4,4,0,0,1-.36-1.69A4.53,4.53,0,0,1,24,9.63a4.12,4.12,0,0,1,.88-1.38,3.92,3.92,0,0,1,1.35-.93A4.24,4.24,0,0,1,28,7a3.74,3.74,0,0,1,.85.11,4.45,4.45,0,0,1,.88.32,4.09,4.09,0,0,1,.83.57,3.33,3.33,0,0,1,.71.82,4.55,4.55,0,0,1,.49,1.09,4.91,4.91,0,0,1,.18,1.38,1.72,1.72,0,0,1-.05.44.51.51,0,0,1-.17.25.77.77,0,0,1-.31.12,3,3,0,0,1-.46,0H26.11a2.28,2.28,0,0,0,.28.61,1.88,1.88,0,0,0,.43.46,2.22,2.22,0,0,0,.55.29,2,2,0,0,0,.64.11,3.43,3.43,0,0,0,.79-.08,2,2,0,0,0,.9-.44c.1-.08.2-.17.3-.24A.27.27,0,0,1,30.18,12.74ZM27.35,9.08a1.61,1.61,0,0,0-.46.26,2,2,0,0,0-.37.39,2.4,2.4,0,0,0-.27.47H29.6a2.15,2.15,0,0,0-.7-.9,1.74,1.74,0,0,0-1-.32A1.32,1.32,0,0,0,27.35,9.08Z"/><path class="cls-5" d="M41.83,15.23a.26.26,0,0,1-.3.29H39.94a.28.28,0,0,1-.19-.07.61.61,0,0,1-.14-.17,1.24,1.24,0,0,1-.1-.2,2,2,0,0,0-.07-.19l-.08-.21a3.4,3.4,0,0,1-1,.72,2.76,2.76,0,0,1-1.19.26,4.08,4.08,0,0,1-2.9-1.19,4.32,4.32,0,0,1-.89-1.37,4.94,4.94,0,0,1,0-3.47,4.34,4.34,0,0,1,.84-1.39,4,4,0,0,1,1.3-.93A4,4,0,0,1,37.2,7a3.05,3.05,0,0,1,1.17.21,3.32,3.32,0,0,1,.92.6V4.88a.27.27,0,0,1,.3-.3h1.94a.27.27,0,0,1,.3.3Zm-2.52-4.76a2.08,2.08,0,0,0-.45-.67,2,2,0,0,0-.67-.44,2.06,2.06,0,0,0-.81-.17,1.82,1.82,0,0,0-.78.17,2,2,0,0,0-.6.46,2.3,2.3,0,0,0-.4.68,2.36,2.36,0,0,0-.14.8,2.43,2.43,0,0,0,.14.82,2.13,2.13,0,0,0,.4.67,1.79,1.79,0,0,0,.6.45,1.81,1.81,0,0,0,.78.16,2.05,2.05,0,0,0,.81-.16,2.16,2.16,0,0,0,.67-.44,2.12,2.12,0,0,0,.45-2.33Z"/><path class="cls-5" d="M52.21,14.15a5.15,5.15,0,0,1-.36,2,4,4,0,0,1-1,1.41,3.91,3.91,0,0,1-1.37.82,4.73,4.73,0,0,1-1.58.27,5.46,5.46,0,0,1-.9-.07,4.51,4.51,0,0,1-.88-.21,4.77,4.77,0,0,1-.83-.37,4.29,4.29,0,0,1-.72-.55c-.09-.08-.12-.16-.1-.22a1,1,0,0,1,.1-.21l.76-1.11a.36.36,0,0,1,.28-.18.39.39,0,0,1,.26.12,2.45,2.45,0,0,0,.78.43,3.35,3.35,0,0,0,1.08.15,2.34,2.34,0,0,0,.74-.12,2.08,2.08,0,0,0,.66-.35,2,2,0,0,0,.47-.56,1.73,1.73,0,0,0,.17-.76v-.18a3.28,3.28,0,0,1-1,.71,2.83,2.83,0,0,1-1.19.26,4.18,4.18,0,0,1-1.57-.3,4.25,4.25,0,0,1-1.31-.86,4.12,4.12,0,0,1-1.23-3,4.25,4.25,0,0,1,.33-1.67,5,5,0,0,1,.9-1.38,4.69,4.69,0,0,1,1.31-.94,3.7,3.7,0,0,1,1.57-.34,3,3,0,0,1,1.35.3A3.64,3.64,0,0,1,50,8.06l.23-.62a1.69,1.69,0,0,1,.13-.29.27.27,0,0,1,.24-.09h1.26a.39.39,0,0,1,.23.06.3.3,0,0,1,.09.25Zm-2.42-3.67a2,2,0,0,0-1.92-1.29,1.78,1.78,0,0,0-.81.17,1.69,1.69,0,0,0-.6.46,2,2,0,0,0-.38.67,2.47,2.47,0,0,0-.13.82,2.37,2.37,0,0,0,.13.81,2.2,2.2,0,0,0,.4.66,1.84,1.84,0,0,0,.62.44,2,2,0,0,0,.82.16,1.88,1.88,0,0,0,.78-.16,2,2,0,0,0,.65-.44,2.31,2.31,0,0,0,.44-.66,2.18,2.18,0,0,0,0-1.64Z"/></g><g class="cls-4"><path class="cls-5" d="M53.8,7.35c0-.2.09-.3.29-.3h1.14a.76.76,0,0,1,.27,0,.51.51,0,0,1,.23.3l.29.74c.13-.16.27-.3.4-.44a2.6,2.6,0,0,1,.43-.38,2,2,0,0,1,.53-.26A2.31,2.31,0,0,1,58.07,7a2.4,2.4,0,0,1,.8.13,3.78,3.78,0,0,1,.7.32,4.22,4.22,0,0,1,.54.35,3.14,3.14,0,0,1,.31.25q.18.15.18.27a.5.5,0,0,1-.1.26l-.87,1.23a.27.27,0,0,1-.2.13.39.39,0,0,1-.22-.1L59,9.62a2.43,2.43,0,0,0-.29-.21,2.85,2.85,0,0,0-.39-.17,1.72,1.72,0,0,0-.47-.07,1.57,1.57,0,0,0-.58.1,1.18,1.18,0,0,0-.47.28,1.16,1.16,0,0,0-.32.46,1.67,1.67,0,0,0-.12.65v4.57c0,.19-.1.29-.31.29H54.09a.25.25,0,0,1-.29-.29Z"/></g><g class="cls-4"><path class="cls-5" d="M69.64,15.23a.26.26,0,0,1-.29.29H67.83a.24.24,0,0,1-.18-.07.47.47,0,0,1-.14-.17,1.24,1.24,0,0,1-.1-.2c0-.07,0-.14-.07-.19l-.09-.23a3.3,3.3,0,0,1-1,.74,3.07,3.07,0,0,1-1.25.26,4.27,4.27,0,0,1-3-1.19,4.13,4.13,0,0,1-.94-1.37,4.49,4.49,0,0,1-.35-1.78A4.4,4.4,0,0,1,61,9.62a4.34,4.34,0,0,1,.9-1.38,4.15,4.15,0,0,1,1.35-.94A4.1,4.1,0,0,1,65,7a3,3,0,0,1,1.37.3,3.18,3.18,0,0,1,1,.82l.27-.73a.86.86,0,0,1,.1-.23.21.21,0,0,1,.19-.07h1.42a.26.26,0,0,1,.29.3ZM67,10.5a2.26,2.26,0,0,0-.43-.67,2.06,2.06,0,0,0-.64-.45,1.83,1.83,0,0,0-.8-.17,1.94,1.94,0,0,0-.76.15,1.81,1.81,0,0,0-.63.43,2.06,2.06,0,0,0-.44.66,2.38,2.38,0,0,0,0,1.69,2.25,2.25,0,0,0,.42.66,1.79,1.79,0,0,0,.63.44,1.89,1.89,0,0,0,.79.16,2,2,0,0,0,.8-.17,2.06,2.06,0,0,0,.64-.45,2,2,0,0,0,.43-.67,2.24,2.24,0,0,0,0-1.61Z"/><path class="cls-5" d="M71.21,7.35a.27.27,0,0,1,.09-.22.31.31,0,0,1,.22-.08h1.41a.25.25,0,0,1,.17.06.47.47,0,0,1,.11.13l.06.18c0,.07,0,.13,0,.18l.14.56a3.4,3.4,0,0,1,1.05-.87A3,3,0,0,1,75.93,7a3.89,3.89,0,0,1,1.57.31,3.64,3.64,0,0,1,1.28.87,4.21,4.21,0,0,1,.86,1.36A4.82,4.82,0,0,1,80,11.28,5,5,0,0,1,79.66,13a4,4,0,0,1-.82,1.38,3.61,3.61,0,0,1-1.28.93,3.93,3.93,0,0,1-1.67.35,2.91,2.91,0,0,1-1.19-.25,3.63,3.63,0,0,1-1-.62v3a.27.27,0,0,1-.3.3H71.52A.31.31,0,0,1,71.3,18a.29.29,0,0,1-.09-.23Zm2.48,4.72a2.14,2.14,0,0,0,.39.67,1.8,1.8,0,0,0,.62.46,1.86,1.86,0,0,0,.84.18,2.06,2.06,0,0,0,.84-.16,1.89,1.89,0,0,0,.65-.45,2.06,2.06,0,0,0,.41-.65,2.21,2.21,0,0,0,.14-.82,2.47,2.47,0,0,0-.13-.82,1.94,1.94,0,0,0-.39-.67,1.81,1.81,0,0,0-.63-.45,2.23,2.23,0,0,0-.88-.17,1.78,1.78,0,0,0-.8.19,1.89,1.89,0,0,0-.63.48,2.2,2.2,0,0,0-.41.67,2.07,2.07,0,0,0-.15.77A2.22,2.22,0,0,0,73.69,12.07Z"/><path class="cls-5" d="M86.62,11.09a2.84,2.84,0,0,0-.1-.75,1.63,1.63,0,0,0-.28-.56,1.19,1.19,0,0,0-.43-.35,1.25,1.25,0,0,0-.54-.12,1.37,1.37,0,0,0-.54.11,1,1,0,0,0-.44.31,1.58,1.58,0,0,0-.29.51,2.16,2.16,0,0,0-.11.71v4.26a.31.31,0,0,1-.08.23.32.32,0,0,1-.23.08H81.66a.27.27,0,0,1-.31-.31V4.9a.33.33,0,0,1,.08-.24.35.35,0,0,1,.23-.07h1.92a.36.36,0,0,1,.23.08.36.36,0,0,1,.08.23v3a5,5,0,0,1,1-.69A2.31,2.31,0,0,1,86,7a3.42,3.42,0,0,1,1.6.34,2.63,2.63,0,0,1,1,.93A4.13,4.13,0,0,1,89,9.62a10.4,10.4,0,0,1,.13,1.73v3.86a.31.31,0,0,1-.08.23.32.32,0,0,1-.23.08H86.93a.27.27,0,0,1-.31-.31Z"/></g></g></g><g id="g"><line class="cls-6" x1="101.5" y1="20.42" x2="1.5" y2="20.42"/></g><rect class="cls-7" x="15.86" y="29.49" width="16.16" height="1.05"/><rect class="cls-7" x="15.86" y="33.83" width="28.03" height="1.05"/><rect class="cls-7" x="15.86" y="38.16" width="43.55" height="1.05"/><rect class="cls-7" x="15.86" y="42.77" width="51.71" height="1.05"/><rect class="cls-7" x="15.86" y="47.75" width="53.3" height="1.05"/><rect class="cls-7" x="30.54" y="52.68" width="45.93" height="1.05"/><rect class="cls-7" x="38.81" y="57.71" width="43.64" height="1.05"/><rect class="cls-7" x="38.81" y="63.11" width="45.06" height="1.05"/><rect class="cls-7" x="52.72" y="29.53" width="38.48" height="1.05"/><rect class="cls-7" x="68.99" y="33.82" width="22.21" height="1.05"/><rect class="cls-7" x="74.95" y="38.23" width="16.26" height="1.05"/><rect class="cls-7" x="79.31" y="42.83" width="11.89" height="1.05"/><path class="cls-8" d="M16,92.23c.31,0,5.63,0,7.21,0a4,4,0,0,0,.69-.07,4.87,4.87,0,0,0,1.87-.75,7.84,7.84,0,0,0,2.35-2.65,22,22,0,0,0,1.81-4c.43-1.16.72-2.14,1.29-4.09.46-1.55.81-2.8,1.21-4.28.26-.95.45-1.73.83-3a22.55,22.55,0,0,1,1.4-3.39,5.45,5.45,0,0,1,.58-.8.83.83,0,0,1,.35-.28.73.73,0,0,1,.58,0,1.17,1.17,0,0,1,.37.24,9,9,0,0,1,1.23,2.18c.2.5.31.75.34.86a17.64,17.64,0,0,1,.57,1.79c.41,1.42.43,1.3.82,2.66.2.7.12.46.53,2s.76,2.7.87,3.07c.19.67.29,1,.36,1.24s.3,1,.56,1.69c.33.94.61,1.65.68,1.8a18.1,18.1,0,0,0,1.37,2.89A6.71,6.71,0,0,0,45,90.72a5.67,5.67,0,0,0,1.74,1.12,6.07,6.07,0,0,0,1.53.4,58.5,58.5,0,0,0,7.54.07"/><path class="cls-8" d="M47.93,92.2c.34,0,6.06.15,7.78.14.12,0,.4,0,.75,0a11.74,11.74,0,0,0,2-.3,8.35,8.35,0,0,0,2.56-1.07,10.12,10.12,0,0,0,2-1.63,19.88,19.88,0,0,0,1.4-1.65c.5-.63.88-1.14,1.32-1.73.28-.39.48-.7.9-1.24a8.61,8.61,0,0,1,1.53-1.37,4.57,4.57,0,0,1,.63-.32,1,1,0,0,1,.38-.12,2.53,2.53,0,0,1,.32,0l.31,0a2.65,2.65,0,0,1,.41.1,5.29,5.29,0,0,1,1.33.88l.38.35a5.64,5.64,0,0,1,.62.72c.44.57.46.52.89,1.07.21.29.12.19.57.81s.82,1.09.94,1.24l.4.5c.13.15.33.39.61.68s.67.67.74.73a8.55,8.55,0,0,0,1.49,1.17,6.4,6.4,0,0,0,1.23.6,11.64,11.64,0,0,0,1.9.45c.42.06,1,.12,1.67.16,2.48.13,7.91,0,8.2,0"/></svg>