<?xml version="1.0" encoding="utf-8"?>
<!-- Generator: Adobe Illustrator 24.2.3, SVG Export Plug-In . SVG Version: 6.00 Build 0)  -->
<svg version="1.1" id="Layer_1" xmlns="http://www.w3.org/2000/svg" xmlns:xlink="http://www.w3.org/1999/xlink" x="0px" y="0px"
	 viewBox="0 0 103 103" style="enable-background:new 0 0 103 103;" xml:space="preserve">
<style type="text/css">
	.st0{fill:#FFFFFF;stroke:#070606;stroke-width:3;stroke-miterlimit:10;}
	.st1{fill:none;stroke:#221E1F;stroke-width:3;stroke-miterlimit:10;}
	.st2{fill:#221E1F;}
	.st3{fill:#231815;}
	.st4{font-family:'COCOGOOSE';}
	.st5{font-size:16.2539px;}
</style>
<path id="square" class="st0" d="M9.3,1.5h84.4c4.3,0,7.8,3.5,7.8,7.8v84.4c0,4.3-3.5,7.8-7.8,7.8H9.3c-4.3,0-7.8-3.5-7.8-7.8V9.3
	C1.5,5,5,1.5,9.3,1.5z"/>
<line class="st1" x1="13" y1="35.5" x2="90" y2="35.5"/>
<circle class="st2" cx="24.7" cy="27.8" r="2.7"/>
<circle class="st2" cx="34.7" cy="27.8" r="2.7"/>
<circle class="st2" cx="44.5" cy="27.8" r="2.7"/>
<path class="st1" d="M52.6,79H18.6c-3.1,0-5.6-2.5-5.6-5.6V24.9c0-3.1,2.5-5.6,5.6-5.6c0,0,0,0,0,0h65.9c3.1,0,5.6,2.5,5.6,5.6v0
	v48.5c0,3.1-2.5,5.6-5.6,5.6h-7.7"/>
<text transform="matrix(1 0 0 1 31.5039 60.2502)" class="st3 st4 st5">MD5</text>
<path d="M50.3,70.1c0.2-0.4,0.4-0.8,0.6-1.2c1.1-1.5,3.1-1.6,4.5-0.2c2.6,2.6,5.1,5.1,7.7,7.7c0.1,0.1,0.2,0.2,0.3,0.4
	c0.2-0.1,0.3-0.2,0.4-0.3c6-6,11.9-11.9,17.9-17.9c0.6-0.7,1.6-1.1,2.5-1c1.6,0.1,2.8,1.5,2.6,3.1c0,0.5-0.2,1-0.5,1.4
	c-0.1,0.2-0.3,0.4-0.5,0.5C79.1,69.3,72.4,76,65.7,82.7c-0.9,0.9-2,1.3-3.2,0.8c-0.5-0.2-0.9-0.4-1.2-0.8c-3.3-3.3-6.7-6.6-10-10
	c-0.5-0.5-0.8-1-1-1.7L50.3,70.1z"/>
</svg>
