<?xml version="1.0" encoding="utf-8"?>
<!-- Generator: Adobe Illustrator 24.2.3, SVG Export Plug-In . SVG Version: 6.00 Build 0)  -->
<svg version="1.1" id="Layer_1" xmlns="http://www.w3.org/2000/svg" xmlns:xlink="http://www.w3.org/1999/xlink" x="0px" y="0px"
	 viewBox="0 0 103 103" style="enable-background:new 0 0 103 103;" xml:space="preserve">
<style type="text/css">
	.st0{fill:#FFFFFF;stroke:#070606;stroke-width:3;stroke-miterlimit:10;}
	.st1{fill:none;stroke:#070606;stroke-width:3;stroke-linecap:round;stroke-linejoin:round;}
	.st2{enable-background:new    ;}
	.st3{fill:#231815;}
	.st4{fill:none;stroke:#070606;stroke-width:2;stroke-linecap:square;}
	.st5{fill:#070606;}
</style>
<g id="Four_Color_Sequence_Plot">
	<path id="square" class="st0" d="M9.3,1.5h84.4c4.3,0,7.8,3.5,7.8,7.8v84.4c0,4.3-3.5,7.8-7.8,7.8H9.3c-4.3,0-7.8-3.5-7.8-7.8V9.3
		C1.5,5,5,1.5,9.3,1.5z"/>
</g>
<path class="st1" d="M47.8,22.9c0.1,0,0.2,0.1,0.3,0.1c1.6,0.4,2.6,1.9,2.6,3.5c0,16.6,0,33.3,0,49.9c0,1.9-1.5,3.6-3.4,3.6
	c-0.1,0-0.1,0-0.2,0H11.5c-1.9,0.1-3.6-1.5-3.6-3.4c0-0.1,0-0.1,0-0.2c0-12.7,0-25.3,0-38c0-0.4,0.2-0.7,0.4-1
	c4.6-4.6,9.1-9.1,13.7-13.6c0.3-0.3,0.7-0.6,1-0.9C23,22.9,47.8,22.9,47.8,22.9z"/>
<path class="st1" d="M23.5,23.7v0.8c0,3.3,0,6.5,0,9.8c0,1.9-1,3.3-2.7,3.7c-0.4,0.1-0.9,0.1-1.3,0.1c-3.2,0-6.4,0-9.6,0H9.2"/>
<g class="st2">
	<path class="st3" d="M12.8,49.8c0-0.2,0.1-0.4,0.4-0.4h5.4c0.5,0,0.9,0.1,1.4,0.3c0.4,0.2,0.8,0.4,1.1,0.8s0.6,0.7,0.8,1.1
		c0.2,0.4,0.3,0.9,0.3,1.4c0,0.4-0.1,0.8-0.2,1.1c-0.1,0.4-0.3,0.7-0.5,0.9c0.4,0.4,0.7,0.8,0.9,1.3c0.2,0.5,0.4,1,0.4,1.6
		c0,0.5-0.1,1-0.3,1.4c-0.2,0.4-0.5,0.8-0.8,1.2c-0.3,0.3-0.7,0.6-1.1,0.8s-0.9,0.3-1.4,0.3h-5.9c-0.2,0-0.4-0.1-0.4-0.4L12.8,49.8
		L12.8,49.8z M16,51.9v2.4h1.7c0.2,0,0.4,0,0.5-0.1c0.2-0.1,0.3-0.1,0.4-0.2c0.1-0.1,0.2-0.2,0.3-0.4C19,53.4,19,53.2,19,53
		s0-0.3-0.1-0.5c-0.1-0.1-0.1-0.3-0.3-0.4c-0.1-0.1-0.2-0.2-0.4-0.3c-0.2-0.1-0.3-0.1-0.5-0.1H16V51.9z M16,56.4v2.7h2.2
		c0.2,0,0.3,0,0.5-0.1s0.3-0.2,0.4-0.3s0.2-0.3,0.3-0.4c0.1-0.2,0.1-0.3,0.1-0.5s0-0.3-0.1-0.5s-0.2-0.3-0.3-0.4
		c-0.1-0.1-0.2-0.2-0.4-0.3c-0.2-0.1-0.3-0.1-0.5-0.1H16V56.4z"/>
	<path class="st3" d="M24.4,49.8c0-0.2,0.1-0.4,0.4-0.4H33c0.2,0,0.4,0.1,0.4,0.4v2.1c0,0.2-0.1,0.4-0.4,0.4h-5.3v2h4.1
		c0.1,0,0.2,0,0.3,0.1c0.1,0.1,0.1,0.2,0.1,0.3v1.7c0,0.2-0.1,0.4-0.4,0.4h-4.1v2.1h5.5c0.2,0,0.4,0.1,0.4,0.4v2.1
		c0,0.2-0.1,0.4-0.4,0.4h-8.3c-0.2,0-0.4-0.1-0.4-0.4V49.8H24.4z"/>
	<path class="st3" d="M35.3,49.8c0-0.2,0.1-0.4,0.4-0.4H40c0.5,0,1,0.1,1.5,0.2c0.5,0.1,1,0.3,1.4,0.6s0.9,0.6,1.2,1s0.7,0.8,1,1.2
		s0.5,0.9,0.7,1.5C46,54.4,46,55,46,55.5s-0.1,1-0.2,1.6c-0.1,0.5-0.3,1-0.6,1.4s-0.6,0.9-0.9,1.2c-0.4,0.4-0.8,0.7-1.2,1
		c-0.5,0.3-0.9,0.5-1.4,0.6s-1.1,0.2-1.6,0.2h-4.3c-0.2,0-0.4-0.1-0.4-0.4L35.3,49.8L35.3,49.8z M42.6,54.3c-0.2-0.4-0.4-0.7-0.7-1
		s-0.6-0.5-1-0.7s-0.8-0.3-1.3-0.3h-1.1v6.4h1.1c0.5,0,0.9-0.1,1.3-0.3c0.4-0.2,0.7-0.4,1-0.7s0.5-0.6,0.7-1s0.2-0.8,0.2-1.2
		C42.9,55.1,42.8,54.7,42.6,54.3z"/>
</g>
<line class="st4" x1="71.2" y1="53.4" x2="55.5" y2="53.4"/>
<polygon class="st5" points="58.3,48.6 59.1,49.5 54.9,53.4 59.1,57.4 58.3,58.2 53.1,53.4 "/>
<line class="st4" x1="78.2" y1="53.4" x2="93.9" y2="53.4"/>
<polygon class="st5" points="90.9,58.1 90.1,57.3 94.4,53.4 90.1,49.4 90.9,48.6 96.1,53.4 "/>
<rect x="64.7" y="36.5" class="st5" width="20.3" height="3.5"/>
<rect x="57.1" y="69.4" class="st5" width="35.7" height="3.5"/>
</svg>
