<?xml version="1.0" encoding="utf-8"?>
<!-- Generator: Adobe Illustrator 24.2.3, SVG Export Plug-In . SVG Version: 6.00 Build 0)  -->
<svg version="1.1" id="Layer_1" xmlns="http://www.w3.org/2000/svg" xmlns:xlink="http://www.w3.org/1999/xlink" x="0px" y="0px"
	 viewBox="0 0 103 103" style="enable-background:new 0 0 103 103;" xml:space="preserve">
<style type="text/css">
	.st0{fill:#FFFFFF;stroke:#070606;stroke-width:3;stroke-miterlimit:10;}
	.st1{fill:none;stroke:#070606;stroke-width:3;stroke-linecap:round;stroke-linejoin:round;}
	.st2{enable-background:new    ;}
	.st3{fill:#231815;}
	.st4{fill:#070606;}
	.st5{fill:none;stroke:#070606;stroke-width:2;stroke-linecap:square;}
</style>
<g id="Four_Color_Sequence_Plot">
	<path id="square" class="st0" d="M9.3,1.5h84.4c4.3,0,7.8,3.5,7.8,7.8v84.4c0,4.3-3.5,7.8-7.8,7.8H9.3c-4.3,0-7.8-3.5-7.8-7.8V9.3
		C1.5,5,5,1.5,9.3,1.5z"/>
</g>
<path class="st1" d="M47.8,22.9c0.1,0,0.2,0.1,0.3,0.1c1.6,0.4,2.6,1.9,2.6,3.5v49.9c0,1.9-1.5,3.6-3.4,3.6c-0.1,0-0.1,0-0.2,0H11.5
	c-1.9,0.1-3.6-1.5-3.6-3.4c0-0.1,0-0.1,0-0.2c0-12.7,0-25.3,0-38c0-0.4,0.2-0.7,0.4-1c4.5-4.6,9.1-9.1,13.7-13.6
	c0.3-0.3,0.7-0.6,1-0.9L47.8,22.9z"/>
<path class="st1" d="M23.5,23.7v0.8c0,3.3,0,6.5,0,9.8c0,1.9-1,3.3-2.7,3.7c-0.4,0.1-0.8,0.1-1.3,0.1c-3.2,0-6.4,0-9.6,0H9.1"/>
<g class="st2">
	<path class="st3" d="M20.2,58.7c0.2,0,0.4-0.1,0.6-0.1v-2.2c0-0.2,0.1-0.4,0.4-0.4h2.3c0.1,0,0.1,0,0.2,0.1c0.1,0,0.1,0.1,0.1,0.3
		v4c0,0.1,0,0.2,0,0.2c0,0.1-0.1,0.1-0.2,0.2c-0.5,0.3-1.1,0.6-1.8,0.7c-0.7,0.2-1.4,0.3-2.1,0.3c-0.9,0-1.7-0.2-2.5-0.5
		s-1.4-0.8-2-1.4c-0.6-0.6-1-1.2-1.4-2c-0.3-0.8-0.5-1.6-0.5-2.5s0.2-1.7,0.5-2.4c0.3-0.8,0.8-1.4,1.3-2c0.6-0.6,1.2-1,2-1.3
		s1.6-0.5,2.4-0.5c0.7,0,1.4,0.1,2,0.3s1.1,0.5,1.6,0.8c0.1,0.1,0.1,0.1,0.2,0.2c0,0.1,0,0.2-0.1,0.2L22,52.8
		c-0.1,0.1-0.1,0.1-0.3,0.1c-0.1,0-0.2,0-0.2-0.1c-0.3-0.2-0.5-0.3-0.8-0.4c-0.3-0.1-0.6-0.2-1-0.2c-0.5,0-0.9,0.1-1.3,0.3
		s-0.7,0.4-1,0.7s-0.5,0.6-0.6,1s-0.2,0.8-0.2,1.3s0.1,0.9,0.2,1.3s0.4,0.7,0.6,1c0.3,0.3,0.6,0.5,1,0.7s0.8,0.3,1.2,0.3
		C19.8,58.8,20,58.7,20.2,58.7z"/>
	<path class="st3" d="M26.2,49.8c0-0.2,0.1-0.4,0.4-0.4h7.8c0.2,0,0.4,0.1,0.4,0.4v2.1c0,0.2-0.1,0.4-0.4,0.4h-5v2.5H33
		c0.2,0,0.4,0.1,0.4,0.4v2c0,0.2-0.1,0.4-0.4,0.4h-3.7v3.8c0,0.2-0.1,0.4-0.4,0.4h-2.5c-0.2,0-0.4-0.1-0.4-0.4V49.8H26.2z"/>
	<path class="st3" d="M36.8,49.8c0-0.2,0.1-0.4,0.4-0.4H45c0.2,0,0.4,0.1,0.4,0.4v2.1c0,0.2-0.1,0.4-0.4,0.4h-5v2.5h3.7
		c0.2,0,0.4,0.1,0.4,0.4v2c0,0.2-0.1,0.4-0.4,0.4H40v3.8c0,0.2-0.1,0.4-0.4,0.4h-2.5c-0.2,0-0.4-0.1-0.4-0.4V49.8H36.8z"/>
</g>
<rect x="64.7" y="36.5" class="st4" width="20.3" height="3.5"/>
<rect x="57.1" y="69.4" class="st4" width="35.7" height="3.5"/>
<line class="st5" x1="71.2" y1="53.4" x2="55.5" y2="53.4"/>
<polygon class="st4" points="58.6,48.6 59.4,49.5 55.2,53.4 59.4,57.4 58.6,58.2 53.5,53.4 "/>
<line class="st5" x1="78.2" y1="53.4" x2="93.9" y2="53.4"/>
<polygon class="st4" points="90.8,58.1 90,57.3 94.2,53.4 90,49.4 90.8,48.6 96,53.4 "/>
</svg>
