<?xml version="1.0" encoding="utf-8"?>
<!-- Generator: Adobe Illustrator 24.2.3, SVG Export Plug-In . SVG Version: 6.00 Build 0)  -->
<svg version="1.1" id="Layer_1" xmlns="http://www.w3.org/2000/svg" xmlns:xlink="http://www.w3.org/1999/xlink" x="0px" y="0px"
	 viewBox="0 0 103 103" style="enable-background:new 0 0 103 103;" xml:space="preserve">
<style type="text/css">
	.st0{fill:#FFFFFF;stroke:#070606;stroke-width:3;stroke-miterlimit:10;}
	.st1{fill:none;stroke:#070606;stroke-width:3;stroke-linecap:round;stroke-linejoin:round;}
	.st2{fill:#231815;}
	.st3{fill:none;stroke:#070606;stroke-width:0.5;stroke-linecap:round;stroke-linejoin:round;}
	.st4{fill:none;stroke:#000000;stroke-linecap:round;stroke-linejoin:round;stroke-miterlimit:10;}
	.st5{fill:none;stroke:#000000;stroke-width:3;stroke-linecap:round;stroke-linejoin:round;stroke-miterlimit:10;}
	.st6{fill:none;stroke:#000000;stroke-width:0.75;stroke-linecap:round;stroke-linejoin:round;stroke-miterlimit:10;}
</style>
<g id="Four_Color_Sequence_Plot">
	<path id="square" class="st0" d="M9.3,1.5h84.4c4.3,0,7.8,3.5,7.8,7.8v84.4c0,4.3-3.5,7.8-7.8,7.8H9.3c-4.3,0-7.8-3.5-7.8-7.8V9.3
		C1.5,5,5,1.5,9.3,1.5z"/>
</g>
<line class="st1" x1="34.5" y1="16.2" x2="34.5" y2="86.9"/>
<rect x="12.8" y="16.1" class="st1" width="77.4" height="70.8"/>
<path class="st2" d="M19.6,30.1V19c0-0.1,0-0.2,0.1-0.3c0.1-0.1,0.1-0.1,0.2-0.1h7.6c0.1,0,0.2,0,0.3,0.1c0.1,0.1,0.1,0.2,0.1,0.3v2
	c0,0.1,0,0.2-0.1,0.3c-0.1,0.1-0.2,0.1-0.3,0.1h-4.8v2.4h3.6c0.1,0,0.2,0,0.3,0.1c0.1,0.1,0.1,0.2,0.1,0.3v1.9c0,0.1,0,0.2-0.1,0.3
	c-0.1,0.1-0.2,0.1-0.3,0.1h-3.6v3.6c0,0.2-0.1,0.3-0.4,0.3h-2.4C19.8,30.4,19.6,30.3,19.6,30.1C19.6,30.1,19.6,30.1,19.6,30.1z"/>
<path class="st2" d="M17.7,43.5L22,32.4c0,0,0-0.1,0.1-0.1c0,0,0.1-0.1,0.1-0.1c0,0,0.1-0.1,0.1-0.1c0,0,0.1,0,0.1,0h2
	c0.1,0,0.2,0,0.2,0.1c0.1,0.1,0.1,0.1,0.1,0.1l0.2,0.4l4.2,10.8c0,0.1,0,0.2,0,0.3c-0.1,0.1-0.2,0.1-0.3,0.1h-2.3
	c-0.1,0-0.2,0-0.3-0.1c-0.1-0.1-0.1-0.1-0.2-0.2l-0.3-0.8c-0.1-0.3-0.2-0.5-0.3-0.8h-4.2c-0.1,0.3-0.2,0.5-0.3,0.8l-0.3,0.8
	c0,0.2-0.2,0.3-0.4,0.3H18c-0.1,0-0.2,0-0.2-0.1C17.7,43.7,17.7,43.6,17.7,43.5z M22.2,39.4h2.4l-1.2-3.6c-0.1,0.3-0.2,0.6-0.3,0.9
	c-0.1,0.3-0.2,0.6-0.3,0.9s-0.2,0.6-0.3,0.9S22.3,39.1,22.2,39.4z"/>
<path class="st2" d="M18.8,55c0-0.1,0.1-0.2,0.2-0.3l1.4-1.3c0.1-0.1,0.2-0.1,0.3-0.1c0.1,0,0.1,0,0.2,0.1c0.1,0,0.1,0.1,0.2,0.1
	l0.3,0.3c0.2,0.1,0.3,0.3,0.5,0.4c0.2,0.2,0.5,0.3,0.8,0.4c0.3,0.1,0.6,0.2,0.8,0.1c0.2,0,0.5,0,0.7-0.1c0.2,0,0.3-0.1,0.4-0.2
	c0.1-0.1,0.2-0.2,0.2-0.3c0-0.1,0.1-0.3,0.1-0.4c0-0.2-0.1-0.3-0.2-0.4c-0.1-0.1-0.3-0.3-0.5-0.3c-0.2-0.1-0.4-0.2-0.6-0.3
	c-0.2-0.1-0.4-0.1-0.5-0.2c-0.6-0.2-1.1-0.4-1.7-0.7c-0.4-0.2-0.8-0.5-1.2-0.9c-0.6-0.6-1-1.4-1-2.3c0-0.5,0.1-0.9,0.3-1.3
	c0.2-0.4,0.5-0.8,0.9-1c0.4-0.3,0.8-0.5,1.3-0.7c0.6-0.2,1.2-0.2,1.7-0.2c0.5,0,0.9,0.1,1.4,0.2c0.5,0.1,0.9,0.3,1.3,0.5
	c0.2,0.1,0.4,0.2,0.5,0.3s0.3,0.2,0.4,0.3c0.1,0.1,0.2,0.2,0.3,0.3c0.1,0.1,0.1,0.2,0.1,0.2c0,0.1,0,0.1,0,0.2
	c0,0.1-0.1,0.1-0.2,0.2l-1.2,1.3c-0.1,0.1-0.2,0.1-0.3,0.1c-0.1,0-0.1,0-0.2-0.1c-0.1,0-0.1-0.1-0.2-0.2l-0.1-0.1
	c-0.1-0.1-0.2-0.2-0.4-0.3c-0.1-0.1-0.3-0.2-0.4-0.3c-0.1-0.1-0.3-0.1-0.5-0.2c-0.2-0.1-0.3-0.1-0.5-0.1c-0.2,0-0.3,0-0.5,0
	c-0.1,0-0.3,0.1-0.4,0.1c-0.1,0.1-0.2,0.1-0.3,0.2c-0.1,0.2-0.1,0.5,0,0.8c0.1,0.1,0.2,0.2,0.3,0.3c0.2,0.1,0.4,0.2,0.6,0.3l0.8,0.3
	c0.6,0.2,1.1,0.4,1.6,0.6c0.4,0.2,0.9,0.4,1.2,0.7c0.3,0.3,0.6,0.6,0.8,1c0.2,0.4,0.3,0.9,0.3,1.4c0,0.5-0.1,1.1-0.4,1.6
	c-0.2,0.5-0.6,0.9-1,1.2c-0.4,0.3-0.9,0.6-1.5,0.8c-0.6,0.2-1.2,0.3-1.8,0.3c-0.6,0-1.2-0.1-1.8-0.3c-0.6-0.2-1.1-0.5-1.6-0.9
	c-0.2-0.1-0.4-0.3-0.5-0.5c-0.1-0.1-0.3-0.3-0.3-0.4l0,0c0,0,0,0,0,0l0,0l0,0l0,0C18.9,55.3,18.9,55.2,18.8,55z"/>
<path class="st2" d="M18.8,61.2v-2c0-0.1,0-0.2,0.1-0.3c0.1-0.1,0.2-0.1,0.3-0.1h8.6c0.1,0,0.2,0,0.2,0.1c0.1,0.1,0.1,0.2,0.1,0.3v2
	c0,0.1,0,0.2-0.1,0.3c-0.1,0.1-0.2,0.1-0.3,0.1H25v8.7c0,0.1,0,0.2-0.1,0.3c-0.1,0.1-0.2,0.1-0.3,0.1h-2.3c-0.1,0-0.2,0-0.2-0.1
	c-0.1-0.1-0.1-0.2-0.1-0.3v-8.7h-2.7c-0.1,0-0.2,0-0.3-0.1C18.8,61.5,18.8,61.3,18.8,61.2z"/>
<path class="st2" d="M17.7,83.8L22,72.6c0,0,0-0.1,0.1-0.1c0,0,0.1-0.1,0.1-0.1c0,0,0.1-0.1,0.1-0.1c0,0,0.1,0,0.1,0h2
	c0.1,0,0.2,0,0.2,0.1c0.1,0,0.1,0.1,0.1,0.1L25,73l4.2,10.7c0,0.1,0,0.2,0,0.3c-0.1,0.1-0.2,0.1-0.3,0.1h-2.3c-0.1,0-0.2,0-0.3-0.1
	c-0.1-0.1-0.1-0.1-0.2-0.2c-0.1-0.3-0.2-0.5-0.3-0.8s-0.2-0.5-0.3-0.8h-4.2c-0.1,0.3-0.2,0.5-0.3,0.8s-0.2,0.5-0.3,0.8
	c0,0.2-0.2,0.3-0.4,0.3H18c-0.1,0-0.2,0-0.2-0.1C17.7,84,17.7,83.9,17.7,83.8z M22.2,79.7h2.4L23.5,76c-0.1,0.3-0.2,0.6-0.3,0.9
	c-0.1,0.3-0.2,0.6-0.3,0.9s-0.2,0.6-0.3,0.9C22.4,79.1,22.3,79.4,22.2,79.7z"/>
<line class="st3" x1="55.7" y1="38.1" x2="59.7" y2="38.1"/>
<g>
	<line class="st3" x1="39.3" y1="20.7" x2="43.5" y2="20.7"/>
	<line class="st3" x1="44.5" y1="20.7" x2="51.1" y2="20.7"/>
	<line class="st3" x1="39.3" y1="24" x2="43.5" y2="24"/>
	<line class="st3" x1="44.5" y1="24" x2="52.7" y2="24"/>
	<line class="st3" x1="51.9" y1="20.7" x2="54.7" y2="20.7"/>
	<line class="st3" x1="53.7" y1="24" x2="56.5" y2="24"/>
	<line class="st3" x1="39.3" y1="27.6" x2="43.5" y2="27.6"/>
	<line class="st3" x1="44.5" y1="27.6" x2="47.3" y2="27.6"/>
	<line class="st3" x1="48.3" y1="27.6" x2="57.9" y2="27.6"/>
	<line class="st3" x1="39.3" y1="31.2" x2="43.5" y2="31.2"/>
	<line class="st3" x1="44.5" y1="31.2" x2="47.3" y2="31.2"/>
	<line class="st3" x1="48.6" y1="31.2" x2="55.1" y2="31.2"/>
	<line class="st3" x1="39.3" y1="34.8" x2="43.5" y2="34.8"/>
	<line class="st3" x1="44.5" y1="34.8" x2="45.9" y2="34.8"/>
	<line class="st3" x1="47" y1="34.8" x2="59.7" y2="34.8"/>
	<line class="st3" x1="39.3" y1="38.1" x2="45" y2="38.1"/>
	<line class="st3" x1="48.6" y1="38.1" x2="54.4" y2="38.1"/>
	<line class="st3" x1="46.2" y1="38.1" x2="47.3" y2="38.1"/>
	<line class="st3" x1="43.4" y1="41.4" x2="47.8" y2="41.4"/>
	<line class="st3" x1="48.8" y1="41.4" x2="59.7" y2="41.4"/>
	<line class="st3" x1="43.6" y1="44.6" x2="46.7" y2="44.6"/>
	<line class="st3" x1="47.8" y1="44.6" x2="51" y2="44.6"/>
	<line class="st3" x1="51.9" y1="44.6" x2="58.3" y2="44.6"/>
	<line class="st3" x1="46.2" y1="47.9" x2="47.3" y2="47.9"/>
	<line class="st3" x1="48.2" y1="47.9" x2="56.7" y2="47.9"/>
	<line class="st3" x1="39.4" y1="41.4" x2="42.2" y2="41.4"/>
	<line class="st3" x1="39.4" y1="44.6" x2="42.6" y2="44.6"/>
	<line class="st3" x1="39.3" y1="47.9" x2="42.4" y2="47.9"/>
	<line class="st3" x1="43.5" y1="47.9" x2="45.1" y2="47.9"/>
	<line class="st3" x1="39.3" y1="51.4" x2="43.5" y2="51.4"/>
	<line class="st3" x1="44.5" y1="51.4" x2="51.1" y2="51.4"/>
	<line class="st3" x1="39.3" y1="54.8" x2="43.5" y2="54.8"/>
	<line class="st3" x1="44.5" y1="54.8" x2="52.7" y2="54.8"/>
	<line class="st3" x1="51.9" y1="51.4" x2="54.7" y2="51.4"/>
	<line class="st3" x1="39.3" y1="58.3" x2="43.5" y2="58.3"/>
	<line class="st3" x1="44.5" y1="58.3" x2="47.3" y2="58.3"/>
	<line class="st3" x1="48.3" y1="58.3" x2="57.9" y2="58.3"/>
	<line class="st3" x1="39.3" y1="61.9" x2="43.5" y2="61.9"/>
	<line class="st3" x1="44.5" y1="61.9" x2="47.3" y2="61.9"/>
	<line class="st3" x1="48.6" y1="61.9" x2="55.1" y2="61.9"/>
	<line class="st3" x1="39.3" y1="65.5" x2="43.5" y2="65.5"/>
	<line class="st3" x1="44.5" y1="65.5" x2="45.9" y2="65.5"/>
	<line class="st3" x1="47" y1="65.5" x2="59.7" y2="65.5"/>
	<line class="st3" x1="39.3" y1="68.8" x2="45" y2="68.8"/>
	<line class="st3" x1="48.6" y1="68.8" x2="54.4" y2="68.8"/>
	<line class="st3" x1="46.2" y1="68.8" x2="47.3" y2="68.8"/>
	<line class="st3" x1="43.4" y1="72.1" x2="47.8" y2="72.1"/>
	<line class="st3" x1="48.8" y1="72.1" x2="57.7" y2="72.1"/>
	<line class="st3" x1="43.6" y1="75.4" x2="46.7" y2="75.4"/>
	<line class="st3" x1="47.8" y1="75.4" x2="51" y2="75.4"/>
	<line class="st3" x1="51.9" y1="75.4" x2="56.2" y2="75.4"/>
	<line class="st3" x1="46.2" y1="78.6" x2="47.3" y2="78.6"/>
	<line class="st3" x1="48.2" y1="78.6" x2="54.4" y2="78.6"/>
	<line class="st3" x1="39.4" y1="72.1" x2="42.2" y2="72.1"/>
	<line class="st3" x1="39.4" y1="75.4" x2="42.6" y2="75.4"/>
	<line class="st3" x1="39.3" y1="78.6" x2="42.4" y2="78.6"/>
	<line class="st3" x1="43.5" y1="78.6" x2="45.1" y2="78.6"/>
	<line class="st3" x1="48.2" y1="81.8" x2="54.4" y2="81.8"/>
	<line class="st3" x1="39.3" y1="81.8" x2="42.4" y2="81.8"/>
	<line class="st3" x1="43.5" y1="81.8" x2="47.3" y2="81.8"/>
</g>
<path d="M60.9,21.9c0.1,4.1,2,7.3,5,9.9c2.4,2.1,5.2,3.7,8,5.3c2.6,1.5,5.2,2.9,7.5,4.7c1.8,1.4,3.5,3,4.5,5.2
	c1.7,4,1.1,7.7-1.3,11.2c-1.4,2.1-3.4,3.7-5.6,5.1c-2.4,1.5-4.9,2.9-7.4,4.4s-4.8,2.9-6.9,4.9c-2.6,2.5-3.9,5.5-3.9,9.1
	c0,0.3-0.1,0.6-0.2,0.9c-0.3,0.5-0.9,0.7-1.4,0.5c-0.6-0.2-0.9-0.7-0.9-1.3c-0.1-1.9,0.3-3.9,1-5.7c1.1-2.8,2.9-4.9,5.2-6.8
	c2.6-2.1,5.5-3.7,8.4-5.4c2.5-1.4,5-2.8,7.2-4.7c1.5-1.3,2.8-2.8,3.5-4.6c1.3-3.5,0.6-6.5-1.9-9.2c-1.7-1.8-3.8-3.2-6-4.4
	c-2.8-1.7-5.6-3.3-8.4-5c-2.7-1.8-5.1-3.9-6.8-6.7c-1.5-2.5-2.3-5.5-2.1-8.5c0-0.7,0.6-1.3,1.3-1.3c0,0,0,0,0,0
	c0.7,0,1.3,0.6,1.2,1.3c0,0,0,0,0,0L60.9,21.9z"/>
<path d="M71.5,39.8c-1.2,0.7-2.3,1.4-3.4,2c-1.7,1-3.3,2.3-4.7,3.7c-3.2,3.4-3.3,7.8-0.5,11.5c1.5,2,3.5,3.4,5.6,4.7
	c1,0.6,2,1.2,3,1.8c-0.8,0.5-1.5,0.9-2.3,1.3c-0.1,0.1-0.3,0.1-0.5,0c-2.8-1.7-5.6-3.4-7.7-6c-2.8-3.6-3.6-7.5-1.8-11.8
	c0.9-2.1,2.4-3.8,4.2-5.1c1.7-1.2,3.5-2.3,5.3-3.5c0.2-0.1,0.3-0.1,0.5,0C70,38.9,70.7,39.3,71.5,39.8z"/>
<path d="M73.6,35.7c0.7-0.4,1.3-0.8,2-1.2c2-1.2,3.8-2.7,5.4-4.4c2.2-2.4,3.4-5.6,3.3-8.9c0-0.3,0-0.6,0.1-0.9
	c0.2-0.5,0.8-0.8,1.3-0.7c0.6,0.1,1,0.5,1,1.1c0,1.1,0,2.3-0.2,3.4c-0.7,4.2-3,7.4-6.2,10c-1.2,1-2.6,1.9-3.8,2.8
	c-0.2,0.2-0.6,0.2-0.8,0C75,36.5,74.4,36.2,73.6,35.7z"/>
<path d="M73.6,67.7c0.8-0.5,1.6-0.9,2.3-1.3c0.1-0.1,0.3,0,0.4,0c3.1,1.9,6.1,4,8.1,7.1c1.6,2.4,2.4,5.3,2.3,8.3
	c0,0.7-0.5,1.3-1.2,1.4c0,0-0.1,0-0.1,0c-0.7,0-1.2-0.6-1.2-1.2c0,0,0,0,0-0.1c0.2-4.6-2-8.1-5.5-10.8c-1.4-1.1-2.9-2-4.3-3
	C74.2,68,73.9,67.9,73.6,67.7z"/>
<polygon class="st4" points="70.8,25.8 73.5,22.9 66.5,19.9 63.9,22.7 "/>
<polyline class="st4" points="63.9,22.7 63.9,23.9 70.1,26.7 "/>
<path class="st4" d="M69.3,27.5c0.1-0.1,2.7-2.9,2.7-2.9l7.1,2.9l-2.6,2.9L69.3,27.5z"/>
<polyline class="st4" points="73.5,22.9 73.5,24.2 72.8,25 "/>
<polyline class="st4" points="69.3,27.5 69.3,28.8 76.4,31.7 76.4,30.4 "/>
<polyline class="st4" points="79.1,27.5 79.1,28.6 76.4,31.7 "/>
<path class="st4" d="M61.5,20.7l0.8,0.6l0.5,0.2l1-0.4l0.7,0.9l-0.6,1l-1.2-0.3l0-1.2"/>
<line class="st4" x1="64.5" y1="21.9" x2="65.1" y2="21.9"/>
<path class="st4" d="M62.3,46.9l0.6,0.7l0.4,0.2l1-0.2l0.4,0.9l-0.7,0.7L63,48.8l0.3-1"/>
<line class="st4" x1="64.6" y1="48.6" x2="65.2" y2="48.7"/>
<path class="st4" d="M61,79.2l1-0.2l0.5-0.2l0.5-1.1l1.1,0.1l0.2,1.1l-1.1,0.6l-0.7-0.8"/>
<line class="st4" x1="64.1" y1="77.9" x2="64.6" y2="77.5"/>
<path class="st4" d="M78,29.9l0.8,0.1l0.4-0.1l0.5-0.7l0.8,0.3v0.9l-0.9,0.3l-0.4-0.8"/>
<line class="st4" x1="80.4" y1="29.5" x2="80.8" y2="29.3"/>
<path class="st4" d="M79.3,55.9l0.5,0.4l0.3,0.1l0.7-0.2l0.4,0.7l-0.5,0.7L80,57.3l0.1-0.8"/>
<line class="st4" x1="81.3" y1="56.9" x2="81.7" y2="56.9"/>
<path class="st4" d="M81.4,77.6l0.5,0.4l0.3,0.1l0.7-0.2l0.4,0.6L82.8,79l-0.7-0.2l0.1-0.7"/>
<line class="st5" x1="83.2" y1="78.5" x2="83.6" y2="78.5"/>
<polygon class="st4" points="80.4,48.5 65.7,54.4 63.3,51.5 78.1,45.7 "/>
<polyline class="st6" points="65.7,54.4 65.7,56.2 63.3,53.2 63.3,51.5 "/>
<polyline class="st4" points="80.4,48.5 80.4,50.2 65.7,56.2 "/>
<polyline class="st4" points="70.4,48.7 72.8,51.6 72.8,53.3 "/>
<polyline class="st4" points="63.5,51.5 63.2,51.3 66,48.3 68.9,49.3 "/>
<polyline class="st4" points="75.6,52.2 80.7,54.1 77.8,57.3 70.5,54.2 70.5,55.5 77.9,58.7 77.8,57.3 "/>
<polyline class="st4" points="80.7,54.1 80.7,55.4 77.9,58.7 "/>
<line class="st4" x1="70.5" y1="55.5" x2="69" y2="54.9"/>
<path class="st4" d="M63.2,51.3c0,0.1,0,1.4,0,1.4"/>
<polygon class="st4" points="63.1,74.9 70.1,72 72.5,74.8 65.5,77.7 "/>
<path class="st4" d="M63.1,74.9v1.3l2.3,2.8l0-1.3"/>
<polyline class="st4" points="65.5,79 72.5,76 72.5,74.8 "/>
<polygon class="st4" points="79.7,77.9 82.3,74.7 75.1,71.9 72.7,74.9 "/>
<line class="st4" x1="79.8" y1="79.2" x2="79.8" y2="77.9"/>
<polyline class="st4" points="72.7,74.9 72.7,76.2 79.8,79.3 82.3,76.2 82.3,74.7 "/>
</svg>
