<?xml version="1.0" encoding="utf-8"?>
<!-- Generator: Adobe Illustrator 24.2.3, SVG Export Plug-In . SVG Version: 6.00 Build 0)  -->
<svg version="1.1" id="Layer_1" xmlns="http://www.w3.org/2000/svg" xmlns:xlink="http://www.w3.org/1999/xlink" x="0px" y="0px"
	 viewBox="0 0 103 103" style="enable-background:new 0 0 103 103;" xml:space="preserve">
<style type="text/css">
	.st0{fill:#FFFFFF;stroke:#070606;stroke-width:3;stroke-miterlimit:10;}
	.st1{fill:#070606;}
	.st2{fill:#231815;}
	.st3{font-family:'CocogoosePro';}
	.st4{font-size:7.875px;}
	.st5{fill:none;stroke:#070606;stroke-width:0.75;stroke-linecap:round;stroke-miterlimit:10;}
	.st6{fill:none;stroke:#070606;stroke-width:0.75;stroke-linecap:round;stroke-miterlimit:10;stroke-dasharray:4.88,4.88;}
</style>
<g id="Four_Color_Sequence_Plot">
	<path id="square" class="st0" d="M9.3,1.5h84.4c4.3,0,7.8,3.5,7.8,7.8v84.4c0,4.3-3.5,7.8-7.8,7.8H9.3c-4.3,0-7.8-3.5-7.8-7.8V9.3
		C1.5,5,5,1.5,9.3,1.5z"/>
</g>
<rect x="12" y="37.6" class="st1" width="15.3" height="3.8"/>
<rect x="32.8" y="37.6" class="st1" width="20.8" height="3.8"/>
<rect x="63.4" y="37.6" class="st1" width="21.3" height="3.8"/>
<text transform="matrix(1 0 0 1 6.6211 28.3908)" class="st2 st3 st4">A</text>
<text transform="matrix(1 0 0 1 11.8672 28.3908)" class="st2 st3 st4">T</text>
<text transform="matrix(1 0 0 1 16.6211 28.3908)" class="st2 st3 st4">C</text>
<text transform="matrix(1 0 0 1 21.7578 28.3908)" class="st2 st3 st4">C</text>
<text transform="matrix(1 0 0 1 27.3047 28.3908)" class="st2 st3 st4">A</text>
<text transform="matrix(1 0 0 1 32.8789 28.3908)" class="st2 st3 st4">C</text>
<text transform="matrix(1 0 0 1 38.4258 28.3908)" class="st2 st3 st4">T</text>
<text transform="matrix(1 0 0 1 43.1797 28.3908)" class="st2 st3 st4">CC</text>
<text transform="matrix(1 0 0 1 53.4531 28.3908)" class="st2 st3 st4">C</text>
<text transform="matrix(1 0 0 1 59 28.3908)" class="st2 st3 st4">T</text>
<text transform="matrix(1 0 0 1 63.2617 28.3908)" class="st2 st3 st4">A</text>
<text transform="matrix(1 0 0 1 68.8398 28.3908)" class="st2 st3 st4">CC</text>
<text transform="matrix(1 0 0 1 79.1133 28.3908)" class="st2 st3 st4">C</text>
<text transform="matrix(1 0 0 1 84.6562 28.3908)" class="st2 st3 st4">T</text>
<text transform="matrix(1 0 0 1 89.4141 28.3908)" class="st2 st3 st4">C</text>
<text transform="matrix(1 0 0 1 12.168 78.4416)" class="st2 st3 st4">T</text>
<text transform="matrix(1 0 0 1 16.9219 78.4416)" class="st2 st3 st4">C</text>
<text transform="matrix(1 0 0 1 22.0586 78.4416)" class="st2 st3 st4">C</text>
<text transform="matrix(1 0 0 1 32.6602 78.4416)" class="st2 st3 st4">C</text>
<text transform="matrix(1 0 0 1 38.207 78.4416)" class="st2 st3 st4">T</text>
<text transform="matrix(1 0 0 1 42.9609 78.4416)" class="st2 st3 st4">C</text>
<text transform="matrix(1 0 0 1 48.0977 78.4416)" class="st2 st3 st4">C</text>
<text transform="matrix(1 0 0 1 63.1172 78.6955)" class="st2 st3 st4">A</text>
<text transform="matrix(1 0 0 1 68.6914 78.6955)" class="st2 st3 st4">CC</text>
<text transform="matrix(1 0 0 1 78.9648 78.6955)" class="st2 st3 st4">C</text>
<line class="st5" x1="12.4" y1="71" x2="12.4" y2="70.1"/>
<line class="st6" x1="12.4" y1="68.2" x2="12.4" y2="31"/>
<line class="st5" x1="12.4" y1="30" x2="12.4" y2="29.1"/>
<line class="st5" x1="27" y1="71" x2="27" y2="70.1"/>
<line class="st6" x1="27" y1="68.2" x2="27" y2="31"/>
<line class="st5" x1="27" y1="30" x2="27" y2="29.1"/>
<line class="st5" x1="33.2" y1="71" x2="33.2" y2="70.1"/>
<line class="st6" x1="33.2" y1="68.2" x2="33.2" y2="31"/>
<line class="st5" x1="33.2" y1="30" x2="33.2" y2="29.1"/>
<line class="st5" x1="63.8" y1="71" x2="63.8" y2="70.1"/>
<line class="st6" x1="63.8" y1="68.2" x2="63.8" y2="31"/>
<line class="st5" x1="63.8" y1="30" x2="63.8" y2="29.1"/>
<line class="st5" x1="53.3" y1="71" x2="53.3" y2="70.1"/>
<line class="st6" x1="53.3" y1="68.2" x2="53.3" y2="31"/>
<line class="st5" x1="53.3" y1="30" x2="53.3" y2="29.1"/>
<line class="st5" x1="84.4" y1="71" x2="84.4" y2="70.1"/>
<line class="st6" x1="84.4" y1="68.2" x2="84.4" y2="31"/>
<line class="st5" x1="84.4" y1="30" x2="84.4" y2="29.1"/>
</svg>
