<?xml version="1.0" encoding="utf-8"?>
<!-- Generator: Adobe Illustrator 24.2.3, SVG Export Plug-In . SVG Version: 6.00 Build 0)  -->
<svg version="1.1" id="Layer_1" xmlns="http://www.w3.org/2000/svg" xmlns:xlink="http://www.w3.org/1999/xlink" x="0px" y="0px"
	 viewBox="0 0 103 103" style="enable-background:new 0 0 103 103;" xml:space="preserve">
<style type="text/css">
	.st0{fill:#FFFFFF;stroke:#070606;stroke-width:3;stroke-miterlimit:10;}
	.st1{fill:#231815;}
	.st2{font-family:'CocogoosePro';}
	.st3{font-size:3.9062px;}
	.st4{opacity:0.65;fill:#231815;enable-background:new    ;}
	.st5{fill:none;stroke:#231815;stroke-width:6;stroke-miterlimit:10;}
	.st6{fill:none;stroke:#231815;stroke-width:6;stroke-linecap:round;stroke-linejoin:round;}
	.st7{font-size:14.8438px;}
	.st8{font-size:18.75px;}
</style>
<g id="Four_Color_Sequence_Plot">
	<path id="square" class="st0" d="M9.3,1.5h84.4c4.3,0,7.8,3.5,7.8,7.8v84.4c0,4.3-3.5,7.8-7.8,7.8H9.3c-4.3,0-7.8-3.5-7.8-7.8V9.3
		C1.5,5,5,1.5,9.3,1.5z"/>
</g>
<text transform="matrix(1 0 0 1 7.5625 11.2111)" class="st1 st2 st3">T</text>
<text transform="matrix(1 0 0 1 9.6758 11.2111)" class="st1 st2 st3">A</text>
<text transform="matrix(1 0 0 1 12.4414 11.2111)" class="st1 st2 st3">C</text>
<text transform="matrix(1 0 0 1 15.1914 11.2111)" class="st1 st2 st3">T</text>
<text transform="matrix(1 0 0 1 17.5508 11.2111)" class="st1 st2 st3">G</text>
<text transform="matrix(1 0 0 1 20.4844 11.2111)" class="st1 st2 st3">T</text>
<text transform="matrix(1 0 0 1 22.5977 11.2111)" class="st1 st2 st3">A</text>
<text transform="matrix(1 0 0 1 25.3633 11.2111)" class="st1 st2 st3">C</text>
<text transform="matrix(1 0 0 1 27.9102 11.2111)" class="st1 st2 st3">GTT</text>
<text transform="matrix(1 0 0 1 40.3867 11.2111)" class="st1 st2 st3">T</text>
<text transform="matrix(1 0 0 1 42.5 11.2111)" class="st1 st2 st3">A</text>
<text transform="matrix(1 0 0 1 45.2656 11.2111)" class="st1 st2 st3">C</text>
<text transform="matrix(1 0 0 1 48.0156 11.2111)" class="st1 st2 st3">T</text>
<text transform="matrix(1 0 0 1 50.375 11.2111)" class="st1 st2 st3">G</text>
<text transform="matrix(1 0 0 1 53.3086 11.2111)" class="st1 st2 st3">T</text>
<text transform="matrix(1 0 0 1 55.4219 11.2111)" class="st1 st2 st3">A</text>
<text transform="matrix(1 0 0 1 58.1875 11.2111)" class="st1 st2 st3">C</text>
<text transform="matrix(1 0 0 1 60.7344 11.2111)" class="st1 st2 st3">G</text>
<text transform="matrix(1 0 0 1 66.9219 11.2111)" class="st1 st2 st3">T</text>
<text transform="matrix(1 0 0 1 69.0352 11.2111)" class="st1 st2 st3">A</text>
<text transform="matrix(1 0 0 1 71.8008 11.2111)" class="st1 st2 st3">C</text>
<text transform="matrix(1 0 0 1 74.5508 11.2111)" class="st1 st2 st3">T</text>
<text transform="matrix(1 0 0 1 76.9102 11.2111)" class="st1 st2 st3">G</text>
<text transform="matrix(1 0 0 1 79.8438 11.2111)" class="st1 st2 st3">T</text>
<text transform="matrix(1 0 0 1 81.957 11.2111)" class="st1 st2 st3">A</text>
<text transform="matrix(1 0 0 1 84.7227 11.2111)" class="st1 st2 st3">C</text>
<text transform="matrix(1 0 0 1 87.2695 11.2111)" class="st1 st2 st3">GTT</text>
<text transform="matrix(1 0 0 1 7.5625 17.133)" class="st1 st2 st3">T</text>
<text transform="matrix(1 0 0 1 9.6758 17.133)" class="st1 st2 st3">A</text>
<text transform="matrix(1 0 0 1 12.4414 17.133)" class="st1 st2 st3">C</text>
<text transform="matrix(1 0 0 1 15.1914 17.133)" class="st1 st2 st3">T</text>
<text transform="matrix(1 0 0 1 17.5508 17.133)" class="st1 st2 st3">G</text>
<text transform="matrix(1 0 0 1 20.4844 17.133)" class="st1 st2 st3">T</text>
<text transform="matrix(1 0 0 1 22.5977 17.133)" class="st1 st2 st3">A</text>
<text transform="matrix(1 0 0 1 25.3633 17.133)" class="st1 st2 st3">C</text>
<text transform="matrix(1 0 0 1 27.9102 17.133)" class="st1 st2 st3">GTT</text>
<text transform="matrix(1 0 0 1 41.5898 17.133)" class="st1 st2 st3">T</text>
<text transform="matrix(1 0 0 1 43.7031 17.133)" class="st1 st2 st3">A</text>
<text transform="matrix(1 0 0 1 46.4688 17.133)" class="st1 st2 st3">C</text>
<text transform="matrix(1 0 0 1 49.2188 17.133)" class="st1 st2 st3">T</text>
<text transform="matrix(1 0 0 1 51.5781 17.133)" class="st1 st2 st3">G</text>
<text transform="matrix(1 0 0 1 54.5117 17.133)" class="st1 st2 st3">T</text>
<text transform="matrix(1 0 0 1 56.625 17.133)" class="st1 st2 st3">A</text>
<text transform="matrix(1 0 0 1 59.3906 17.133)" class="st1 st2 st3">C</text>
<text transform="matrix(1 0 0 1 61.9375 17.133)" class="st1 st2 st3">GTT</text>
<text transform="matrix(1 0 0 1 79.7773 17.133)" class="st1 st2 st3">T</text>
<text transform="matrix(1 0 0 1 81.8906 17.133)" class="st1 st2 st3">A</text>
<text transform="matrix(1 0 0 1 84.6562 17.133)" class="st1 st2 st3">C</text>
<text transform="matrix(1 0 0 1 87.4062 17.133)" class="st1 st2 st3">T</text>
<text transform="matrix(1 0 0 1 89.7656 17.133)" class="st1 st2 st3">GT</text>
<text transform="matrix(1 0 0 1 7.5625 88.1994)" class="st1 st2 st3">T</text>
<text transform="matrix(1 0 0 1 9.6758 88.1994)" class="st1 st2 st3">A</text>
<text transform="matrix(1 0 0 1 12.4414 88.1994)" class="st1 st2 st3">C</text>
<text transform="matrix(1 0 0 1 15.1914 88.1994)" class="st1 st2 st3">T</text>
<text transform="matrix(1 0 0 1 17.5508 88.1994)" class="st1 st2 st3">G</text>
<text transform="matrix(1 0 0 1 20.4844 88.1994)" class="st1 st2 st3">T</text>
<text transform="matrix(1 0 0 1 22.5977 88.1994)" class="st1 st2 st3">A</text>
<text transform="matrix(1 0 0 1 25.3633 88.1994)" class="st1 st2 st3">C</text>
<text transform="matrix(1 0 0 1 27.9102 88.1994)" class="st1 st2 st3">GTT</text>
<text transform="matrix(1 0 0 1 40.3867 88.1994)" class="st1 st2 st3">T</text>
<text transform="matrix(1 0 0 1 42.5 88.1994)" class="st1 st2 st3">A</text>
<text transform="matrix(1 0 0 1 45.2656 88.1994)" class="st1 st2 st3">C</text>
<text transform="matrix(1 0 0 1 48.0156 88.1994)" class="st1 st2 st3">T</text>
<text transform="matrix(1 0 0 1 50.375 88.1994)" class="st1 st2 st3">G</text>
<text transform="matrix(1 0 0 1 53.3086 88.1994)" class="st1 st2 st3">T</text>
<text transform="matrix(1 0 0 1 55.4219 88.1994)" class="st1 st2 st3">A</text>
<text transform="matrix(1 0 0 1 58.1875 88.1994)" class="st1 st2 st3">C</text>
<text transform="matrix(1 0 0 1 60.7344 88.1994)" class="st1 st2 st3">G</text>
<text transform="matrix(1 0 0 1 66.9219 88.1994)" class="st1 st2 st3">T</text>
<text transform="matrix(1 0 0 1 69.0352 88.1994)" class="st1 st2 st3">A</text>
<text transform="matrix(1 0 0 1 71.8008 88.1994)" class="st1 st2 st3">C</text>
<text transform="matrix(1 0 0 1 74.5508 88.1994)" class="st1 st2 st3">T</text>
<text transform="matrix(1 0 0 1 76.9102 88.1994)" class="st1 st2 st3">G</text>
<text transform="matrix(1 0 0 1 79.8438 88.1994)" class="st1 st2 st3">T</text>
<text transform="matrix(1 0 0 1 81.957 88.1994)" class="st1 st2 st3">A</text>
<text transform="matrix(1 0 0 1 84.7227 88.1994)" class="st1 st2 st3">C</text>
<text transform="matrix(1 0 0 1 87.2695 88.1994)" class="st1 st2 st3">GTT</text>
<text transform="matrix(1 0 0 1 7.5625 94.1213)" class="st1 st2 st3">T</text>
<text transform="matrix(1 0 0 1 9.6758 94.1213)" class="st1 st2 st3">A</text>
<text transform="matrix(1 0 0 1 12.4414 94.1213)" class="st1 st2 st3">C</text>
<text transform="matrix(1 0 0 1 15.1914 94.1213)" class="st1 st2 st3">T</text>
<text transform="matrix(1 0 0 1 17.5508 94.1213)" class="st1 st2 st3">G</text>
<text transform="matrix(1 0 0 1 20.4844 94.1213)" class="st1 st2 st3">T</text>
<text transform="matrix(1 0 0 1 22.5977 94.1213)" class="st1 st2 st3">A</text>
<text transform="matrix(1 0 0 1 25.3633 94.1213)" class="st1 st2 st3">C</text>
<text transform="matrix(1 0 0 1 27.9102 94.1213)" class="st1 st2 st3">GTT</text>
<text transform="matrix(1 0 0 1 41.5898 94.1213)" class="st1 st2 st3">T</text>
<text transform="matrix(1 0 0 1 43.7031 94.1213)" class="st1 st2 st3">A</text>
<text transform="matrix(1 0 0 1 46.4688 94.1213)" class="st1 st2 st3">C</text>
<text transform="matrix(1 0 0 1 49.2188 94.1213)" class="st1 st2 st3">T</text>
<text transform="matrix(1 0 0 1 51.5781 94.1213)" class="st1 st2 st3">G</text>
<text transform="matrix(1 0 0 1 54.5117 94.1213)" class="st1 st2 st3">T</text>
<text transform="matrix(1 0 0 1 56.625 94.1213)" class="st1 st2 st3">A</text>
<text transform="matrix(1 0 0 1 59.3906 94.1213)" class="st1 st2 st3">C</text>
<text transform="matrix(1 0 0 1 61.9375 94.1213)" class="st1 st2 st3">GTT</text>
<text transform="matrix(1 0 0 1 79.7773 94.1213)" class="st1 st2 st3">T</text>
<text transform="matrix(1 0 0 1 81.8906 94.1213)" class="st1 st2 st3">A</text>
<text transform="matrix(1 0 0 1 84.6562 94.1213)" class="st1 st2 st3">C</text>
<text transform="matrix(1 0 0 1 87.4062 94.1213)" class="st1 st2 st3">T</text>
<text transform="matrix(1 0 0 1 89.7656 94.1213)" class="st1 st2 st3">GT</text>
<text transform="matrix(1 0 0 1 7.7188 23.0549)" class="st1 st2 st3">T</text>
<text transform="matrix(1 0 0 1 9.832 23.0549)" class="st1 st2 st3">A</text>
<text transform="matrix(1 0 0 1 12.5977 23.0549)" class="st1 st2 st3">C</text>
<text transform="matrix(1 0 0 1 15.1445 23.0549)" class="st1 st2 st3">C</text>
<text transform="matrix(1 0 0 1 17.8945 23.0549)" class="st1 st2 st3">A</text>
<text transform="matrix(1 0 0 1 20.6602 23.0549)" class="st1 st2 st3">CA</text>
<text transform="matrix(1 0 0 1 26.3984 23.0549)" class="st1 st2 st3">A</text>
<text transform="matrix(1 0 0 1 29.1641 23.0549)" class="st1 st2 st3">C</text>
<text transform="matrix(1 0 0 1 31.9141 23.0549)" class="st1 st2 st3">T</text>
<text transform="matrix(1 0 0 1 34.2734 23.0549)" class="st1 st2 st3">C</text>
<text transform="matrix(1 0 0 1 36.8203 23.0549)" class="st1 st2 st3">G</text>
<text transform="matrix(1 0 0 1 7.7188 28.9767)" class="st1 st2 st3">T</text>
<text transform="matrix(1 0 0 1 9.832 28.9767)" class="st1 st2 st3">A</text>
<text transform="matrix(1 0 0 1 12.5977 28.9767)" class="st1 st2 st3">C</text>
<text transform="matrix(1 0 0 1 15.1445 28.9767)" class="st1 st2 st3">C</text>
<text transform="matrix(1 0 0 1 17.8945 28.9767)" class="st1 st2 st3">A</text>
<text transform="matrix(1 0 0 1 20.6602 28.9767)" class="st1 st2 st3">CA</text>
<text transform="matrix(1 0 0 1 26.3984 28.9767)" class="st1 st2 st3">A</text>
<text transform="matrix(1 0 0 1 29.1641 28.9767)" class="st1 st2 st3">CT</text>
<text transform="matrix(1 0 0 1 7.7188 34.8986)" class="st1 st2 st3">T</text>
<text transform="matrix(1 0 0 1 9.832 34.8986)" class="st1 st2 st3">A</text>
<text transform="matrix(1 0 0 1 12.5977 34.8986)" class="st1 st2 st3">C</text>
<text transform="matrix(1 0 0 1 15.1445 34.8986)" class="st1 st2 st3">C</text>
<text transform="matrix(1 0 0 1 17.8945 34.8986)" class="st1 st2 st3">A</text>
<text transform="matrix(1 0 0 1 20.6602 34.8986)" class="st1 st2 st3">CAA</text>
<text transform="matrix(1 0 0 1 7.7188 40.8244)" class="st1 st2 st3">T</text>
<text transform="matrix(1 0 0 1 9.832 40.8244)" class="st1 st2 st3">A</text>
<text transform="matrix(1 0 0 1 12.5977 40.8244)" class="st1 st2 st3">C</text>
<text transform="matrix(1 0 0 1 15.1445 40.8244)" class="st1 st2 st3">C</text>
<text transform="matrix(1 0 0 1 17.8945 40.8244)" class="st1 st2 st3">A</text>
<text transform="matrix(1 0 0 1 20.6602 40.8244)" class="st1 st2 st3">CAA</text>
<text transform="matrix(1 0 0 1 7.7188 64.5119)" class="st1 st2 st3">T</text>
<text transform="matrix(1 0 0 1 9.832 64.5119)" class="st1 st2 st3">A</text>
<text transform="matrix(1 0 0 1 12.5977 64.5119)" class="st1 st2 st3">C</text>
<text transform="matrix(1 0 0 1 15.1445 64.5119)" class="st1 st2 st3">C</text>
<text transform="matrix(1 0 0 1 17.8945 64.5119)" class="st1 st2 st3">A</text>
<text transform="matrix(1 0 0 1 20.6602 64.5119)" class="st1 st2 st3">CA</text>
<text transform="matrix(1 0 0 1 81.1133 64.5119)" class="st1 st2 st3">C</text>
<text transform="matrix(1 0 0 1 83.6602 64.5119)" class="st1 st2 st3">C</text>
<text transform="matrix(1 0 0 1 86.4102 64.5119)" class="st1 st2 st3">A</text>
<text transform="matrix(1 0 0 1 89.1758 64.5119)" class="st1 st2 st3">CA</text>
<text transform="matrix(1 0 0 1 7.7188 70.4338)" class="st1 st2 st3">T</text>
<text transform="matrix(1 0 0 1 9.832 70.4338)" class="st1 st2 st3">A</text>
<text transform="matrix(1 0 0 1 12.5977 70.4338)" class="st1 st2 st3">C</text>
<text transform="matrix(1 0 0 1 15.1445 70.4338)" class="st1 st2 st3">C</text>
<text transform="matrix(1 0 0 1 17.8945 70.4338)" class="st1 st2 st3">A</text>
<text transform="matrix(1 0 0 1 20.6602 70.4338)" class="st1 st2 st3">CAA</text>
<text transform="matrix(1 0 0 1 86.6016 70.4338)" class="st4 st2 st3">CAA</text>
<text transform="matrix(1 0 0 1 89.2812 76.3557)" class="st4 st2 st3">CA</text>
<text transform="matrix(1 0 0 1 7.7188 46.7463)" class="st1 st2 st3">T</text>
<text transform="matrix(1 0 0 1 9.832 46.7463)" class="st1 st2 st3">A</text>
<text transform="matrix(1 0 0 1 7.7188 52.6682)" class="st1 st2 st3">T</text>
<text transform="matrix(1 0 0 1 9.832 52.6682)" class="st1 st2 st3">A</text>
<text transform="matrix(1 0 0 1 90.0391 46.7463)" class="st4 st2 st3">CT</text>
<text transform="matrix(1 0 0 1 90.0391 52.6682)" class="st4 st2 st3">CT</text>
<text transform="matrix(1 0 0 1 7.7188 58.59)" class="st4 st2 st3">CA</text>
<text transform="matrix(1 0 0 1 90.0391 58.59)" class="st4 st2 st3">TT</text>
<text transform="matrix(1 0 0 1 43.5469 23.0549)" class="st1 st2 st3">A</text>
<text transform="matrix(1 0 0 1 46.1484 23.0549)" class="st1 st2 st3">T</text>
<text transform="matrix(1 0 0 1 48.5078 23.0549)" class="st1 st2 st3">C</text>
<text transform="matrix(1 0 0 1 51.0547 23.0549)" class="st1 st2 st3">C</text>
<text transform="matrix(1 0 0 1 53.8047 23.0549)" class="st1 st2 st3">A</text>
<text transform="matrix(1 0 0 1 56.5703 23.0549)" class="st1 st2 st3">C</text>
<text transform="matrix(1 0 0 1 59.3203 23.0549)" class="st1 st2 st3">T</text>
<text transform="matrix(1 0 0 1 61.6797 23.0549)" class="st1 st2 st3">CC</text>
<text transform="matrix(1 0 0 1 66.7734 23.0549)" class="st1 st2 st3">C</text>
<text transform="matrix(1 0 0 1 69.5234 23.0549)" class="st1 st2 st3">T</text>
<text transform="matrix(1 0 0 1 71.6367 23.0549)" class="st1 st2 st3">A</text>
<text transform="matrix(1 0 0 1 74.4023 23.0549)" class="st1 st2 st3">CC</text>
<text transform="matrix(1 0 0 1 79.4961 23.0549)" class="st1 st2 st3">C</text>
<text transform="matrix(1 0 0 1 82.2461 23.0549)" class="st1 st2 st3">T</text>
<text transform="matrix(1 0 0 1 84.6055 23.0549)" class="st1 st2 st3">C</text>
<text transform="matrix(1 0 0 1 87.1523 23.0549)" class="st1 st2 st3">C</text>
<text transform="matrix(1 0 0 1 89.9023 23.0549)" class="st1 st2 st3">T</text>
<text transform="matrix(1 0 0 1 92.0156 23.0549)" class="st1 st2 st3">A</text>
<text transform="matrix(1 0 0 1 7.7188 82.2775)" class="st1 st2 st3">A</text>
<text transform="matrix(1 0 0 1 10.3203 82.2775)" class="st1 st2 st3">T</text>
<text transform="matrix(1 0 0 1 12.6797 82.2775)" class="st1 st2 st3">C</text>
<text transform="matrix(1 0 0 1 15.2266 82.2775)" class="st1 st2 st3">C</text>
<text transform="matrix(1 0 0 1 17.9766 82.2775)" class="st1 st2 st3">A</text>
<text transform="matrix(1 0 0 1 20.7422 82.2775)" class="st1 st2 st3">C</text>
<text transform="matrix(1 0 0 1 23.4922 82.2775)" class="st1 st2 st3">T</text>
<text transform="matrix(1 0 0 1 25.8516 82.2775)" class="st1 st2 st3">CC</text>
<text transform="matrix(1 0 0 1 30.9453 82.2775)" class="st1 st2 st3">C</text>
<text transform="matrix(1 0 0 1 33.6953 82.2775)" class="st1 st2 st3">T</text>
<text transform="matrix(1 0 0 1 35.8086 82.2775)" class="st1 st2 st3">A</text>
<text transform="matrix(1 0 0 1 38.5742 82.2775)" class="st1 st2 st3">CC</text>
<text transform="matrix(1 0 0 1 43.668 82.2775)" class="st1 st2 st3">C</text>
<text transform="matrix(1 0 0 1 46.418 82.2775)" class="st1 st2 st3">T</text>
<text transform="matrix(1 0 0 1 48.7773 82.2775)" class="st1 st2 st3">C</text>
<text transform="matrix(1 0 0 1 51.3242 82.2775)" class="st1 st2 st3">C</text>
<text transform="matrix(1 0 0 1 54.0742 82.2775)" class="st1 st2 st3">T</text>
<text transform="matrix(1 0 0 1 56.1875 82.2775)" class="st1 st2 st3">A</text>
<text transform="matrix(1 0 0 1 58.7891 82.2775)" class="st1 st2 st3">T</text>
<text transform="matrix(1 0 0 1 61.3906 82.2775)" class="st1 st2 st3">T</text>
<text transform="matrix(1 0 0 1 63.5039 82.2775)" class="st1 st2 st3">A</text>
<text transform="matrix(1 0 0 1 66.2695 82.2775)" class="st1 st2 st3">CC</text>
<text transform="matrix(1 0 0 1 71.3672 82.2775)" class="st1 st2 st3">C</text>
<text transform="matrix(1 0 0 1 7.7461 76.3557)" class="st1 st2 st3">A</text>
<text transform="matrix(1 0 0 1 10.3477 76.3557)" class="st1 st2 st3">T</text>
<text transform="matrix(1 0 0 1 12.707 76.3557)" class="st1 st2 st3">C</text>
<text transform="matrix(1 0 0 1 15.2539 76.3557)" class="st1 st2 st3">C</text>
<text transform="matrix(1 0 0 1 18.0039 76.3557)" class="st1 st2 st3">A</text>
<text transform="matrix(1 0 0 1 20.7695 76.3557)" class="st1 st2 st3">C</text>
<text transform="matrix(1 0 0 1 23.5195 76.3557)" class="st1 st2 st3">T</text>
<text transform="matrix(1 0 0 1 25.8789 76.3557)" class="st1 st2 st3">CC</text>
<text transform="matrix(1 0 0 1 30.9727 76.3557)" class="st1 st2 st3">C</text>
<text transform="matrix(1 0 0 1 33.7227 76.3557)" class="st1 st2 st3">T</text>
<text transform="matrix(1 0 0 1 35.8359 76.3557)" class="st1 st2 st3">A</text>
<text transform="matrix(1 0 0 1 71.4453 28.9767)" class="st1 st2 st3">A</text>
<text transform="matrix(1 0 0 1 74.2109 28.9767)" class="st1 st2 st3">CC</text>
<text transform="matrix(1 0 0 1 79.3047 28.9767)" class="st1 st2 st3">C</text>
<text transform="matrix(1 0 0 1 82.0547 28.9767)" class="st1 st2 st3">T</text>
<text transform="matrix(1 0 0 1 84.4141 28.9767)" class="st1 st2 st3">C</text>
<text transform="matrix(1 0 0 1 86.9609 28.9767)" class="st1 st2 st3">C</text>
<text transform="matrix(1 0 0 1 89.7109 28.9767)" class="st1 st2 st3">T</text>
<text transform="matrix(1 0 0 1 91.8242 28.9767)" class="st1 st2 st3">A</text>
<text transform="matrix(1 0 0 1 77.0117 34.8986)" class="st1 st2 st3">C</text>
<text transform="matrix(1 0 0 1 79.5586 34.8986)" class="st1 st2 st3">C</text>
<text transform="matrix(1 0 0 1 82.3086 34.8986)" class="st1 st2 st3">T</text>
<text transform="matrix(1 0 0 1 84.668 34.8986)" class="st1 st2 st3">C</text>
<text transform="matrix(1 0 0 1 87.2148 34.8986)" class="st1 st2 st3">C</text>
<text transform="matrix(1 0 0 1 89.9648 34.8986)" class="st1 st2 st3">T</text>
<text transform="matrix(1 0 0 1 92.0781 34.8986)" class="st1 st2 st3">A</text>
<text transform="matrix(1 0 0 1 82.1328 40.8244)" class="st1 st2 st3">T</text>
<text transform="matrix(1 0 0 1 84.4922 40.8244)" class="st1 st2 st3">C</text>
<text transform="matrix(1 0 0 1 87.0391 40.8244)" class="st1 st2 st3">C</text>
<text transform="matrix(1 0 0 1 89.7891 40.8244)" class="st1 st2 st3">T</text>
<text transform="matrix(1 0 0 1 91.9023 40.8244)" class="st1 st2 st3">A</text>
<circle class="st5" cx="54.2" cy="50" r="21.2"/>
<line class="st6" x1="70.3" y1="64.7" x2="86.9" y2="81.3"/>
<text transform="matrix(1 0 0 1 15.2188 55.9807)" class="st1 st2 st7">T</text>
<text transform="matrix(1 0 0 1 76.6562 55.9807)" class="st1 st2 st7">C</text>
<text transform="matrix(1 0 0 1 25.5195 55.9807)" class="st1 st2 st7">T</text>
<text transform="matrix(1 0 0 1 34.1602 56.5939)" class="st1 st2 st8">A</text>
<text transform="matrix(1 0 0 1 48.2617 56.5939)" class="st1 st2 st8">C</text>
<text transform="matrix(1 0 0 1 60.7031 56.5939)" class="st1 st2 st8">C</text>
</svg>
