<?xml version="1.0" encoding="utf-8"?>
<!-- Generator: Adobe Illustrator 24.2.3, SVG Export Plug-In . SVG Version: 6.00 Build 0)  -->
<svg version="1.1" id="Layer_1" xmlns="http://www.w3.org/2000/svg" xmlns:xlink="http://www.w3.org/1999/xlink" x="0px" y="0px"
	 viewBox="0 0 103 103" style="enable-background:new 0 0 103 103;" xml:space="preserve">
<style type="text/css">
	.st0{fill:#FFFFFF;stroke:#070606;stroke-width:3;stroke-miterlimit:10;}
	.st1{fill:none;}
	.st2{fill:none;stroke:#070606;stroke-width:3;stroke-linecap:round;stroke-linejoin:round;}
	.st3{fill:#231815;}
	.st4{font-family:'CocogoosePro';}
	.st5{font-size:10.1562px;}
	.st6{letter-spacing:-1;}
	.st7{font-size:12.5px;}
	.st8{fill:none;stroke:#070606;stroke-width:2;stroke-linecap:round;stroke-linejoin:round;}
</style>
<g id="Four_Color_Sequence_Plot">
	<path id="square" class="st0" d="M9.3,1.5h84.4c4.3,0,7.8,3.5,7.8,7.8v84.4c0,4.3-3.5,7.8-7.8,7.8H9.3c-4.3,0-7.8-3.5-7.8-7.8V9.3
		C1.5,5,5,1.5,9.3,1.5z"/>
</g>
<rect x="17.8" y="30.9" class="st1" width="68" height="55.1"/>
<rect x="17.2" y="16.7" class="st1" width="68" height="14.4"/>
<polyline class="st2" points="85.8,86.3 17.8,86.3 17.8,17.5 "/>
<polyline class="st2" points="17.8,16.7 85.8,16.7 85.8,86.3 "/>
<line class="st2" x1="17.8" y1="31.1" x2="85.8" y2="31.1"/>
<path d="M72.7,21.6l-0.7-0.7c-0.1-0.1-0.1-0.2-0.1-0.3c0-0.2,0.2-0.3,0.3-0.3c0.1,0,0.1,0,0.2,0.1c0,0,0,0,0.1,0l1.2,1.2
	c0.1,0.1,0.2,0.3,0,0.5c0,0,0,0,0,0l-1.2,1.2c-0.1,0.1-0.3,0.1-0.5,0c0,0,0,0,0,0c-0.1-0.1-0.1-0.3,0-0.5c0,0,0,0,0,0l0.7-0.7l0,0
	c-0.3,0-0.6,0-0.9,0c-0.5,0-0.9,0.3-1.1,0.7c-0.7,0.9-1.3,1.9-2,2.8c-0.3,0.5-0.9,0.9-1.5,1c-0.1,0-0.2,0-0.3,0c-0.5,0-1.1,0-1.6,0
	c-0.2,0-0.3-0.1-0.4-0.3c0-0.2,0.1-0.3,0.3-0.4c0,0,0,0,0.1,0h1.5c0.6,0,1.1-0.3,1.4-0.7c0.7-1,1.4-1.9,2.1-2.9
	c0.4-0.5,1.1-0.8,1.7-0.8C72.1,21.6,72.4,21.6,72.7,21.6z"/>
<path d="M72.7,26.7c-0.2,0-0.4,0-0.6,0c-0.4,0-0.8,0-1.2-0.2c-0.3-0.2-0.6-0.4-0.9-0.7c-0.1-0.2-0.2-0.3-0.3-0.5c0,0,0-0.1,0-0.1
	c0.1-0.2,0.2-0.3,0.4-0.5c0,0,0,0,0.1,0.1c0.1,0.2,0.3,0.4,0.4,0.6c0.3,0.4,0.8,0.7,1.3,0.7c0.3,0,0.5,0,0.8,0L72.6,26l-0.7-0.7
	c-0.1-0.1-0.1-0.2-0.1-0.4c0.1-0.1,0.2-0.2,0.3-0.2c0.1,0,0.1,0,0.2,0.1c0.4,0.4,0.9,0.8,1.3,1.3c0.1,0.1,0.1,0.3,0,0.4c0,0,0,0,0,0
	c-0.4,0.4-0.9,0.9-1.3,1.3c-0.1,0.1-0.3,0.1-0.4,0c0,0,0,0,0,0c-0.1-0.1-0.1-0.3,0-0.4c0,0,0,0,0,0L72.7,26.7L72.7,26.7z"/>
<path d="M68.5,23.6c-0.2-0.2-0.3-0.4-0.5-0.6c-0.3-0.5-0.9-0.8-1.4-0.7c-0.5,0-1,0-1.5,0c-0.2,0-0.3-0.1-0.4-0.3
	c0-0.2,0.1-0.3,0.3-0.4c0,0,0,0,0.1,0c0.5,0,1,0,1.5,0c0.7,0,1.4,0.3,1.8,0.9c0.1,0.2,0.2,0.3,0.3,0.5c0,0,0,0.1,0,0.1
	C68.8,23.3,68.6,23.4,68.5,23.6z"/>
<text transform="matrix(1 0 0 1 29.8867 27.9846)" class="st3 st4 st5 st6">F</text>
<text transform="matrix(1 0 0 1 35.4102 27.9846)" class="st3 st4 st5">A</text>
<text transform="matrix(1 0 0 1 42.9688 27.9846)" class="st3 st4 st5">S</text>
<text transform="matrix(1 0 0 1 49.6328 27.9846)" class="st3 st4 st5 st6">T</text>
<text transform="matrix(1 0 0 1 55.1289 27.9846)" class="st3 st4 st5">A</text>
<path class="st3" d="M47.1,44.7l-0.6,0.9c0,0.1-0.1,0.1-0.2,0.1c-0.1,0-0.1,0-0.2-0.1c-0.2-0.1-0.4-0.3-0.6-0.3
	c-0.2-0.1-0.5-0.1-0.8-0.1c-0.3,0-0.7,0.1-1,0.2c-0.3,0.1-0.5,0.3-0.8,0.5c-0.2,0.2-0.4,0.5-0.5,0.8c-0.1,0.3-0.2,0.6-0.2,1
	c0,0.3,0.1,0.7,0.2,1c0.2,0.6,0.7,1.1,1.2,1.3c0.3,0.1,0.6,0.2,0.9,0.2c0.1,0,0.3,0,0.4,0c0.1,0,0.3,0,0.4-0.1v-1.7
	c0-0.1,0.1-0.3,0.2-0.3c0,0,0,0,0.1,0h1.7c0.1,0,0.1,0,0.2,0c0.1,0,0.1,0.1,0.1,0.2v3c0,0.1,0,0.1,0,0.2c0,0.1-0.1,0.1-0.1,0.1
	c-0.4,0.3-0.9,0.5-1.3,0.6c-0.5,0.1-1.1,0.2-1.6,0.2c-0.6,0-1.3-0.1-1.9-0.4c-0.6-0.2-1.1-0.6-1.5-1c-0.4-0.4-0.8-1-1-1.5
	c-0.5-1.2-0.5-2.5,0-3.7c0.2-0.4,0.4-0.8,0.6-1.1"/>
<text transform="matrix(1 0 0 1 70.5391 60.6799)" class="st3 st4 st7">G</text>
<text transform="matrix(1 0 0 1 54.9531 60.6799)" class="st3 st4 st7">C</text>
<text transform="matrix(1 0 0 1 39.2695 68.715)" class="st3 st4 st7">A</text>
<path class="st3" d="M56.7,68.7l2-5c0.1-0.2,0.2-0.3,0.4-0.3h1.5c0.2,0,0.3,0.1,0.4,0.3l2,5 M60.6,68.7l-0.8-2.3L59,68.7 M59,68.7
	h1.6"/>
<rect x="37.4" y="45.3" class="st8" width="12.9" height="22.9"/>
<text transform="matrix(1 0 0 1 24.168 60.6799)" class="st3 st4 st7">T</text>
<path class="st3" d="M74.8,68.7v-3.1h-2.2c-0.1,0-0.3-0.1-0.3-0.2c0,0,0,0,0-0.1v-1.6c0-0.1,0.1-0.3,0.2-0.3c0,0,0,0,0.1,0h6.8
	c0.1,0,0.3,0.1,0.3,0.2c0,0,0,0,0,0.1v1.6c0,0.1-0.1,0.3-0.2,0.3c0,0,0,0-0.1,0h-2.2v3.1"/>
<rect x="21.6" y="45.3" class="st8" width="12.9" height="22.9"/>
<rect x="53.2" y="45.3" class="st8" width="12.9" height="22.9"/>
<rect x="69.1" y="45.3" class="st8" width="12.9" height="22.9"/>
</svg>
