<?xml version="1.0" encoding="utf-8"?>
<!-- Generator: Adobe Illustrator 24.2.3, SVG Export Plug-In . SVG Version: 6.00 Build 0)  -->
<svg version="1.1" id="Layer_1" xmlns="http://www.w3.org/2000/svg" xmlns:xlink="http://www.w3.org/1999/xlink" x="0px" y="0px"
	 viewBox="0 0 103 103" style="enable-background:new 0 0 103 103;" xml:space="preserve">
<style type="text/css">
	.st0{fill:#FFFFFF;stroke:#070606;stroke-width:3;stroke-miterlimit:10;}
	.st1{fill:#0000FF;}
	.st2{fill:#FF0000;}
	.st3{fill:#FFFFFF;}
	.st4{fill:none;stroke:#000000;stroke-miterlimit:10;}
</style>
<g id="Four_Color_Sequence_Plot">
	<path id="square" class="st0" d="M9.3,1.5h84.4c4.3,0,7.8,3.5,7.8,7.8v84.4c0,4.3-3.5,7.8-7.8,7.8H9.3c-4.3,0-7.8-3.5-7.8-7.8V9.3
		C1.5,5,5,1.5,9.3,1.5z"/>
</g>
<g id="BAM_Correlation">
	<rect x="67.8" y="67.8" class="st1" width="16.3" height="16.3"/>
	<rect x="67.8" y="51.5" class="st2" width="16.3" height="16.3"/>
	<rect x="67.8" y="35.2" class="st1" width="16.3" height="16.2"/>
	<rect x="67.8" y="19" class="st2" width="16.3" height="16.3"/>
	<rect x="51.5" y="67.8" class="st3" width="16.3" height="16.3"/>
	<rect x="51.5" y="51.5" class="st1" width="16.3" height="16.3"/>
	<rect x="51.5" y="35.2" class="st2" width="16.3" height="16.2"/>
	<rect x="51.5" y="19" class="st3" width="16.3" height="16.3"/>
	<rect x="35.2" y="67.8" class="st1" width="16.3" height="16.3"/>
	<rect x="35.2" y="51.5" class="st2" width="16.3" height="16.3"/>
	<rect x="35.2" y="35.2" class="st1" width="16.3" height="16.2"/>
	<rect x="35.2" y="19" class="st3" width="16.3" height="16.3"/>
	<rect x="19" y="67.8" class="st3" width="16.2" height="16.3"/>
	<rect x="19" y="51.5" class="st1" width="16.2" height="16.3"/>
	<rect x="19" y="35.2" class="st3" width="16.2" height="16.2"/>
	<rect x="19" y="19" class="st1" width="16.2" height="16.3"/>
	<polyline class="st4" points="19,35.2 19,19 35.2,19 	"/>
	<polyline class="st4" points="19,51.5 19,35.2 35.2,35.2 	"/>
	<polyline class="st4" points="19,67.8 19,51.5 35.2,51.5 	"/>
	<polyline class="st4" points="35.2,84 19,84 19,67.8 35.2,67.8 	"/>
	<polyline class="st4" points="35.2,35.2 35.2,19 51.5,19 	"/>
	<polyline class="st4" points="51.5,35.2 51.5,19 67.8,19 	"/>
	<polyline class="st4" points="67.8,35.2 67.8,19 84,19 84,35.2 	"/>
	<polyline class="st4" points="35.2,51.5 35.2,35.2 51.5,35.2 	"/>
	<polyline class="st4" points="51.5,51.5 51.5,35.2 67.8,35.2 	"/>
	<polyline class="st4" points="67.8,51.5 67.8,35.2 84,35.2 84,51.5 	"/>
	<polyline class="st4" points="35.2,67.8 35.2,51.5 51.5,51.5 	"/>
	<polyline class="st4" points="51.5,67.8 51.5,51.5 67.8,51.5 	"/>
	<polyline class="st4" points="67.8,67.8 67.8,51.5 84,51.5 84,67.8 	"/>
	<polyline class="st4" points="51.5,84 35.2,84 35.2,67.8 51.5,67.8 	"/>
	<polyline class="st4" points="67.8,84 51.5,84 51.5,67.8 67.8,67.8 	"/>
	<rect x="67.8" y="67.8" class="st4" width="16.3" height="16.3"/>
</g>
</svg>
