<?xml version="1.0" encoding="utf-8"?>
<!-- Generator: Adobe Illustrator 24.2.3, SVG Export Plug-In . SVG Version: 6.00 Build 0)  -->
<svg version="1.1" id="Layer_1" xmlns="http://www.w3.org/2000/svg" xmlns:xlink="http://www.w3.org/1999/xlink" x="0px" y="0px"
	 viewBox="0 0 103 103" style="enable-background:new 0 0 103 103;" xml:space="preserve">
<style type="text/css">
	.st0{fill:#FFFFFF;stroke:#070606;stroke-width:3;stroke-miterlimit:10;}
	.st1{fill:none;stroke:#221E1F;stroke-width:3;stroke-miterlimit:10;}
	.st2{fill:#231815;}
	.st3{font-family:'CocogoosePro';}
	.st4{font-size:10.1562px;}
	.st5{fill:none;stroke:#040000;stroke-width:4;stroke-miterlimit:10;}
</style>
<g id="Layer_2_1_">
	<g id="Layer_1-2">
		<path id="square" class="st0" d="M9.5,1.5h84.4c4.3,0,7.8,3.5,7.8,7.8v84.4c0,4.3-3.5,7.8-7.8,7.8H9.5c-4.3,0-7.8-3.5-7.8-7.8V9.3
			C1.6,5,5.1,1.5,9.5,1.5z"/>
		<path class="st1" d="M21,60.2c0.5,0,8.7,0,11.1,0c0.4,0,0.7,0,1.1-0.1c1-0.1,2-0.4,2.9-0.9c1.4-0.7,2.7-1.8,3.6-3.1
			c0.4-0.5,1.4-1.8,2.8-4.7c0.7-1.4,1.1-2.5,2-4.8c0.7-1.8,1.2-3.3,1.9-5c0.4-1.1,0.7-2,1.3-3.5c0.6-1.4,1.3-2.7,2.2-3.9
			c0.3-0.3,0.6-0.6,0.9-0.9c0.2-0.2,0.3-0.3,0.5-0.3c0.1,0,0.3-0.1,0.5-0.1c0.1,0,0.3,0,0.4,0.1c0.2,0.1,0.4,0.2,0.6,0.3
			c0.9,0.6,1.9,2.5,1.9,2.5c0.3,0.6,0.5,0.9,0.5,1c0.3,0.7,0.6,1.4,0.9,2.1c0.6,1.6,0.7,1.5,1.3,3.1c0.3,0.8,0.2,0.5,0.8,2.3
			c0.7,1.9,1.2,3.1,1.3,3.6c0.3,0.8,0.4,1.1,0.6,1.4c0.2,0.4,0.5,1.1,0.9,2c0.5,1.1,1,1.9,1,2.1c0.6,1.2,1.3,2.3,2.1,3.4
			c0.5,0.7,1.1,1.2,1.7,1.7c0.8,0.6,1.7,1,2.7,1.3c0.8,0.2,1.5,0.4,2.3,0.5c3.5,0.4,11.2,0.1,11.6,0.1"/>
		<text transform="matrix(1 0 0 1 40.3497 95.1252)" class="st2 st3 st4">PNG</text>
		<rect x="16.6" y="12.4" class="st5" width="70" height="70"/>
	</g>
</g>
</svg>
