<?xml version="1.0" encoding="utf-8"?>
<!-- Generator: Adobe Illustrator 24.2.3, SVG Export Plug-In . SVG Version: 6.00 Build 0)  -->
<svg version="1.1" id="Layer_1" xmlns="http://www.w3.org/2000/svg" xmlns:xlink="http://www.w3.org/1999/xlink" x="0px" y="0px"
	 viewBox="0 0 103 103" style="enable-background:new 0 0 103 103;" xml:space="preserve">
<style type="text/css">
	.st0{fill:#FFFFFF;stroke:#070606;stroke-width:3;stroke-miterlimit:10;}
	.st1{fill:none;stroke:#040000;stroke-width:2;stroke-miterlimit:10;}
	.st2{fill:none;stroke:#070606;stroke-width:2;stroke-linecap:round;stroke-miterlimit:10;}
	.st3{fill:#070606;}
	.st4{fill:#231815;}
	.st5{font-family:'CocogoosePro';}
	.st6{font-size:16.4062px;}
	.st7{fill:none;stroke:#070606;stroke-width:0.75;stroke-linecap:square;stroke-miterlimit:10;}
	.st8{font-size:4.6875px;}
	.st9{font-family:'COCOGOOSE';}
	.st10{font-size:3.9062px;}
</style>
<g id="Four_Color_Sequence_Plot">
	<path id="square" class="st0" d="M9.3,1.5h84.4c4.3,0,7.8,3.5,7.8,7.8v84.4c0,4.3-3.5,7.8-7.8,7.8H9.3c-4.3,0-7.8-3.5-7.8-7.8V9.3
		C1.5,5,5,1.5,9.3,1.5z"/>
</g>
<polyline class="st1" points="47.7,46.8 15.6,46.8 15.6,5.9 56.4,5.9 56.4,38.9 "/>
<rect x="47.8" y="39.1" class="st1" width="40.9" height="40.9"/>
<g id="BED_TO_GFF">
	<path class="st2" d="M17.7,60.5c-3.3,5.2-1.7,12.1,3.5,15.4c5.2,3.3,12.1,1.7,15.4-3.5l0,0"/>
	<polygon class="st3" points="38.5,78.3 37.2,78.5 36.6,72.5 30.7,73.6 30.5,72.4 37.7,71 	"/>
</g>
<g id="Sort_BED">
	<text transform="matrix(1 0 0 1 17.6875 32.4563)" class="st4 st5 st6">PNG</text>
	<text transform="matrix(1 0 0 1 51.0508 65.6047)" class="st4 st5 st6">S</text>
	<text transform="matrix(1 0 0 1 61.1328 65.6047)" class="st4 st5 st6">V</text>
	<text transform="matrix(1 0 0 1 72.3945 65.6047)" class="st4 st5 st6">G</text>
</g>
<g id="Filter_PIP-seq">
	<line class="st7" x1="47.4" y1="93.7" x2="47.4" y2="79.7"/>
	<line class="st7" x1="89.1" y1="93.7" x2="89.1" y2="79.7"/>
	<line class="st7" x1="68.2" y1="93.7" x2="68.2" y2="86.2"/>
</g>
<g id="Search_Motif">
	<text transform="matrix(1 0 0 1 58.3047 85.1477)" class="st4 st5 st8">X-TITLE</text>
	<text transform="matrix(1 0 0 1 41.4102 97.5969)" class="st4 st9 st10">-100</text>
	<text transform="matrix(1 0 0 1 83.8047 97.5969)" class="st4 st9 st10">+100</text>
	<text transform="matrix(1 0 0 1 66.4375 97.5969)" class="st4 st9 st10">0</text>
	<text transform="matrix(6.123234e-17 -1 1 6.123234e-17 44.7695 69.4915)" class="st4 st5 st8">Y-TITLE</text>
</g>
</svg>
