<?xml version="1.0" encoding="utf-8"?>
<!-- Generator: Adobe Illustrator 24.2.3, SVG Export Plug-In . SVG Version: 6.00 Build 0)  -->
<svg version="1.1" id="Layer_1" xmlns="http://www.w3.org/2000/svg" xmlns:xlink="http://www.w3.org/1999/xlink" x="0px" y="0px"
	 viewBox="0 0 103 103" style="enable-background:new 0 0 103 103;" xml:space="preserve">
<style type="text/css">
	.st0{fill:#FFFFFF;stroke:#070606;stroke-width:3;stroke-miterlimit:10;}
	.st1{fill:#070606;}
	.st2{fill:none;stroke:#070606;stroke-width:2;stroke-miterlimit:10;}
	.st3{fill:none;stroke:#070606;stroke-width:0.75;stroke-linecap:round;stroke-miterlimit:10;}
	.st4{fill:none;stroke:#070606;stroke-width:0.75;stroke-linecap:round;stroke-miterlimit:10;stroke-dasharray:5.11,5.11;}
	.st5{fill:#040000;stroke:#070606;stroke-width:0.5;stroke-miterlimit:10;}
</style>
<g id="Four_Color_Sequence_Plot">
	<path id="square" class="st0" d="M9.3,1.5h84.4c4.3,0,7.8,3.5,7.8,7.8v84.4c0,4.3-3.5,7.8-7.8,7.8H9.3c-4.3,0-7.8-3.5-7.8-7.8V9.3
		C1.5,5,5,1.5,9.3,1.5z"/>
</g>
<g id="BAM_to_bedgraph">
	<rect x="18.3" y="49" class="st1" width="2" height="10.6"/>
	<rect x="18.3" y="70.7" class="st1" width="2" height="5.6"/>
	<rect x="27.3" y="70.4" class="st1" width="2" height="6.4"/>
	<rect x="27.3" y="49" class="st1" width="2" height="10.6"/>
	<rect x="46.9" y="49" class="st1" width="2" height="10.6"/>
	<rect x="71.5" y="49" class="st1" width="2" height="10.6"/>
	<rect x="71.5" y="70.2" class="st1" width="2" height="6.5"/>
	<rect x="83.5" y="49" class="st1" width="2" height="10.6"/>
	<rect x="83.5" y="70.7" class="st1" width="2" height="5.6"/>
	<rect x="12.8" y="26" class="st1" width="29.5" height="6.4"/>
	<rect x="13.2" y="70.4" class="st2" width="28.8" height="6.4"/>
	<rect x="61.1" y="70.4" class="st2" width="28.8" height="6.4"/>
	<rect x="60.7" y="26.1" class="st1" width="29.5" height="6.4"/>
	<line class="st3" x1="12.9" y1="77" x2="12.9" y2="76"/>
	<line class="st4" x1="12.9" y1="74" x2="12.9" y2="35.1"/>
	<line class="st3" x1="12.9" y1="34.1" x2="12.9" y2="33.1"/>
	<line class="st3" x1="42.2" y1="77" x2="42.2" y2="76"/>
	<line class="st4" x1="42.2" y1="74" x2="42.2" y2="35.1"/>
	<line class="st3" x1="42.2" y1="34.1" x2="42.2" y2="33.1"/>
	<line class="st3" x1="60.8" y1="77" x2="60.8" y2="76"/>
	<line class="st4" x1="60.8" y1="74" x2="60.8" y2="35.1"/>
	<line class="st3" x1="60.8" y1="34.1" x2="60.8" y2="33.1"/>
	<line class="st3" x1="90.1" y1="77" x2="90.1" y2="76"/>
	<line class="st4" x1="90.1" y1="74" x2="90.1" y2="35.1"/>
	<line class="st3" x1="90.1" y1="34.1" x2="90.1" y2="33.1"/>
	<rect x="12.9" y="43.5" class="st5" width="77.2" height="1.2"/>
</g>
</svg>
