<?xml version="1.0" encoding="utf-8"?>
<!-- Generator: Adobe Illustrator 24.2.3, SVG Export Plug-In . SVG Version: 6.00 Build 0)  -->
<svg version="1.1" id="Layer_1" xmlns="http://www.w3.org/2000/svg" xmlns:xlink="http://www.w3.org/1999/xlink" x="0px" y="0px"
	 viewBox="0 0 103 103" style="enable-background:new 0 0 103 103;" xml:space="preserve">
<style type="text/css">
	.st0{fill:#FFFFFF;stroke:#070606;stroke-width:3;stroke-miterlimit:10;}
	.st1{enable-background:new    ;}
	.st2{fill:#231815;}
	.st3{fill:#070606;stroke:#070606;stroke-width:2;stroke-miterlimit:10;}
	.st4{fill:none;stroke:#040000;stroke-width:3;stroke-linecap:round;stroke-linejoin:round;}
	.st5{fill:none;stroke:#070606;stroke-width:0.75;stroke-linecap:round;stroke-miterlimit:10;}
	.st6{fill:none;stroke:#070606;stroke-width:0.75;stroke-linecap:round;stroke-miterlimit:10;stroke-dasharray:5.16,5.16;}
	.st7{fill:none;stroke:#070606;stroke-width:2;stroke-linecap:round;stroke-miterlimit:10;}
	.st8{fill:none;stroke:#070606;stroke-width:3;stroke-linecap:round;stroke-linejoin:round;}
	.st9{fill:#040000;stroke:#070606;stroke-width:0.5;stroke-miterlimit:10;}
</style>
<path id="square" class="st0" d="M9.3,1.5h84.4c4.3,0,7.8,3.5,7.8,7.8v84.4c0,4.3-3.5,7.8-7.8,7.8H9.3c-4.3,0-7.8-3.5-7.8-7.8V9.3
	C1.5,5,5,1.5,9.3,1.5z"/>
<g class="st1">
	<path class="st2" d="M36.2,5.7c0-0.2,0.1-0.4,0.4-0.4H42c0.5,0,0.9,0.1,1.4,0.3s0.8,0.4,1.1,0.8c0.3,0.3,0.6,0.7,0.8,1.1
		s0.3,0.9,0.3,1.4c0,0.4-0.1,0.8-0.2,1.1c-0.1,0.4-0.3,0.7-0.5,0.9c0.4,0.4,0.7,0.8,0.9,1.3c0.2,0.5,0.4,1,0.4,1.6
		c0,0.5-0.1,1-0.3,1.4c-0.2,0.4-0.5,0.8-0.8,1.2c-0.3,0.3-0.7,0.6-1.1,0.8c-0.4,0.2-0.9,0.3-1.4,0.3h-5.9c-0.2,0-0.4-0.1-0.4-0.4
		V5.7z M39.4,7.8v2.4h1.7c0.2,0,0.4,0,0.5-0.1c0.2-0.1,0.3-0.1,0.4-0.2c0.1-0.1,0.2-0.2,0.3-0.4c0.1-0.1,0.1-0.3,0.1-0.5
		c0-0.2,0-0.3-0.1-0.5c-0.1-0.1-0.1-0.3-0.3-0.4C42,8,41.8,7.9,41.7,7.9c-0.2-0.1-0.3-0.1-0.5-0.1H39.4z M39.4,12.3v2.7h2.2
		c0.2,0,0.3,0,0.5-0.1c0.2-0.1,0.3-0.2,0.4-0.3c0.1-0.1,0.2-0.3,0.3-0.4c0.1-0.2,0.1-0.3,0.1-0.5c0-0.2,0-0.3-0.1-0.5
		c-0.1-0.2-0.2-0.3-0.3-0.4c-0.1-0.1-0.2-0.2-0.4-0.3c-0.2-0.1-0.3-0.1-0.5-0.1H39.4z"/>
	<path class="st2" d="M47.8,5.7c0-0.2,0.1-0.4,0.4-0.4h8.2c0.2,0,0.4,0.1,0.4,0.4v2.1c0,0.2-0.1,0.4-0.4,0.4H51v2H55
		c0.1,0,0.2,0,0.3,0.1c0.1,0.1,0.1,0.2,0.1,0.3v1.7c0,0.2-0.1,0.4-0.4,0.4H51v2.1h5.5c0.2,0,0.4,0.1,0.4,0.4v2.1
		c0,0.2-0.1,0.4-0.4,0.4h-8.3c-0.2,0-0.4-0.1-0.4-0.4V5.7z"/>
	<path class="st2" d="M58.8,5.7c0-0.2,0.1-0.4,0.4-0.4h4.3c0.5,0,1,0.1,1.5,0.2c0.5,0.1,1,0.3,1.4,0.6c0.5,0.3,0.9,0.6,1.2,1
		s0.7,0.8,1,1.2c0.3,0.5,0.5,0.9,0.7,1.5c0.2,0.5,0.2,1.1,0.2,1.6c0,0.5-0.1,1-0.2,1.6c-0.1,0.5-0.3,1-0.6,1.4
		c-0.3,0.5-0.6,0.9-0.9,1.2c-0.4,0.4-0.8,0.7-1.2,1c-0.5,0.3-0.9,0.5-1.4,0.6c-0.5,0.2-1.1,0.2-1.6,0.2h-4.3c-0.2,0-0.4-0.1-0.4-0.4
		V5.7z M66,10.2c-0.2-0.4-0.4-0.7-0.7-1c-0.3-0.3-0.6-0.5-1-0.7c-0.4-0.2-0.8-0.3-1.3-0.3h-1.1v6.4h1.1c0.5,0,0.9-0.1,1.3-0.3
		c0.4-0.2,0.7-0.4,1-0.7c0.3-0.3,0.5-0.6,0.7-1c0.2-0.4,0.2-0.8,0.2-1.2C66.3,11,66.2,10.6,66,10.2z"/>
</g>
<rect x="8.4" y="32" class="st3" width="1.9" height="10.2"/>
<rect x="24.9" y="32" class="st3" width="1.9" height="10.2"/>
<rect x="24.9" y="75.3" class="st3" width="1.9" height="10.2"/>
<rect x="50.6" y="75.3" class="st3" width="1.9" height="10.2"/>
<rect x="31.9" y="32" class="st3" width="1.9" height="10.2"/>
<rect x="50.6" y="32" class="st3" width="1.9" height="10.2"/>
<rect x="57.3" y="32" class="st3" width="1.9" height="10.2"/>
<rect x="81.2" y="32" class="st3" width="1.9" height="10.2"/>
<rect x="71.2" y="32" class="st3" width="1.9" height="10.2"/>
<polyline class="st4" points="81.1,59.1 95.2,59.1 95.2,66.1 84.8,76.5 81.1,76.5 "/>
<polyline class="st4" points="82.1,59.1 68,59.1 68,66.1 78.4,76.5 82.1,76.5 "/>
<line class="st4" x1="68" y1="66.1" x2="95.2" y2="66.1"/>
<polyline class="st4" points="84.7,76.5 84.7,87.3 78.5,84 78.5,76.5 "/>
<line class="st5" x1="25.9" y1="84.7" x2="25.9" y2="83.7"/>
<line class="st6" x1="25.9" y1="81.7" x2="25.9" y2="38.4"/>
<line class="st7" x1="25.9" y1="37.4" x2="25.9" y2="36.4"/>
<line class="st5" x1="51.5" y1="85.5" x2="51.5" y2="84.5"/>
<line class="st6" x1="51.5" y1="82.5" x2="51.5" y2="39.1"/>
<line class="st7" x1="51.5" y1="38.1" x2="51.5" y2="37.2"/>
<line class="st8" x1="101.5" y1="20.4" x2="1.5" y2="20.4"/>
<rect x="6" y="51.3" class="st9" width="79.6" height="1.1"/>
</svg>
