<?xml version="1.0" encoding="utf-8"?>
<!-- Generator: Adobe Illustrator 24.2.3, SVG Export Plug-In . SVG Version: 6.00 Build 0)  -->
<svg version="1.1" id="Layer_1" xmlns="http://www.w3.org/2000/svg" xmlns:xlink="http://www.w3.org/1999/xlink" x="0px" y="0px"
	 viewBox="0 0 103 103" style="enable-background:new 0 0 103 103;" xml:space="preserve">
<style type="text/css">
	.st0{fill:#FFFFFF;stroke:#070606;stroke-width:3;stroke-miterlimit:10;}
	.st1{fill:#888988;}
	.st2{fill:#070606;stroke:#070606;stroke-width:2;stroke-miterlimit:10;}
	.st3{fill:#FFFFFF;}
</style>
<g id="Four_Color_Sequence_Plot">
	<path id="square" class="st0" d="M9.3,1.5h84.4c4.3,0,7.8,3.5,7.8,7.8v84.4c0,4.3-3.5,7.8-7.8,7.8H9.3c-4.3,0-7.8-3.5-7.8-7.8V9.3
		C1.5,5,5,1.5,9.3,1.5z"/>
</g>
<rect x="12.6" y="19.1" class="st1" width="77.9" height="2.8"/>
<rect x="13.7" y="26.7" class="st2" width="3" height="16.2"/>
<rect x="20" y="26.7" class="st2" width="3" height="16.2"/>
<rect x="31.6" y="26.7" class="st2" width="3" height="16.2"/>
<rect x="55.2" y="26.7" class="st2" width="3" height="16.2"/>
<rect x="62.4" y="26.7" class="st2" width="3" height="16.2"/>
<rect x="43.4" y="26.7" class="st2" width="3" height="16.2"/>
<rect x="86.3" y="26.7" class="st2" width="3" height="16.2"/>
<rect x="73.1" y="26.7" class="st2" width="3" height="16.2"/>
<path d="M73.6,47.7c1.7,0.5,3,1.5,4.5,2.3c3.1,1.7,6.1,3.5,9.2,5.2c1.4,0.7,2.2,2.1,2.1,3.6c0,4.6,0,9.3,0,13.9
	c0.1,1.5-0.7,2.8-2,3.5c-4.1,2.3-8.1,4.6-12.2,7c-1.3,0.8-2.9,0.8-4.1,0c-4.1-2.4-8.2-4.7-12.3-7.1c-1.2-0.6-2-1.9-1.9-3.3V58.7
	c-0.1-1.4,0.7-2.7,1.9-3.3c4.2-2.4,8.3-4.8,12.5-7.1c0.4-0.2,0.9-0.4,1.4-0.5L73.6,47.7z M58.7,56.8c0.1,0.1,0.2,0.1,0.2,0.1
	c4.6,2.7,9.2,5.4,13.8,8.1c0.2,0.1,0.4,0.1,0.5,0L87,57c0.1-0.1,0.2-0.1,0.3-0.2c-0.2-0.1-0.3-0.2-0.5-0.3
	c-4.2-2.4-8.3-4.8-12.5-7.2c-0.8-0.5-1.8-0.5-2.6,0c-4.1,2.4-8.3,4.7-12.4,7.1C59.1,56.5,58.9,56.6,58.7,56.8z M73.7,82.7
	c0.3-0.1,0.5-0.2,0.7-0.3c4.2-2.4,8.3-4.7,12.4-7.1c0.8-0.4,1.4-1.3,1.3-2.3c0-0.9,0-1.7,0-2.6c0-3.9,0-7.7,0-11.6
	c0-0.3-0.1-0.6-0.1-0.9c-0.2,0.1-0.3,0.1-0.4,0.2c-4.6,2.7-9.2,5.3-13.7,7.9c-0.2,0.1-0.3,0.3-0.3,0.6c0,5.2,0,10.5,0,15.7
	L73.7,82.7z M58.1,57.8c0,0.2-0.1,0.5-0.1,0.7c0,4.8,0,9.6,0,14.5c0,0.9,0.5,1.7,1.3,2.2c4.2,2.4,8.4,4.8,12.6,7.2
	c0.2,0.1,0.4,0.2,0.6,0.3v-0.3c0-5.3,0-10.6,0-15.9c0-0.2-0.1-0.4-0.3-0.5c-4.2-2.4-8.4-4.9-12.6-7.3L58.1,57.8z"/>
<path d="M73,59.2c-1.2,0-2.2-0.8-2.4-1.9c-0.1-0.6,0.1-1.2,0.5-1.6c0.9-0.9,2.2-1.1,3.3-0.4c0.7,0.4,1.1,1.2,1,2
	c-0.1,1-0.8,1.5-1.6,1.7C73.5,59.1,73.3,59.2,73,59.2z M73,57.9c0.6,0,1.2-0.4,1.2-0.9c0-0.5-0.5-0.9-1.2-0.9h0
	c-0.6,0-1.2,0.4-1.2,0.9C71.9,57.5,72.4,57.9,73,57.9z"/>
<path d="M79.1,70.8c0.1-1.3,1.1-2.4,2.4-2.6c0.9-0.1,1.7,0.5,1.8,1.4c0,0.2,0,0.4,0,0.5c-0.2,1.2-1.1,2.1-2.3,2.3
	c-0.9,0.2-1.7-0.4-1.9-1.3C79.1,71.1,79.1,70.9,79.1,70.8z M82.1,69.8c0-0.2-0.2-0.4-0.4-0.4c0,0-0.1,0-0.1,0
	c-0.7,0.1-1.2,0.6-1.3,1.3c-0.1,0.2,0,0.4,0.2,0.5c0.1,0,0.2,0,0.2,0C81.5,71.1,82,70.5,82.1,69.8L82.1,69.8z"/>
<path d="M79.7,76.5c-0.1,1.4-1.2,2.5-2.6,2.6c-0.9,0-1.6-0.7-1.7-1.5c0-0.2,0-0.4,0.1-0.5c0.2-1.1,1.1-1.9,2.2-2.1
	c0.9-0.2,1.7,0.3,1.9,1.2C79.7,76.2,79.7,76.3,79.7,76.5z M77.1,77.9c0.7-0.1,1.2-0.7,1.3-1.4c0-0.3-0.2-0.4-0.5-0.4
	c-0.7,0.1-1.2,0.7-1.3,1.3c-0.1,0.2,0.1,0.4,0.3,0.5C77,77.9,77.1,77.9,77.1,77.9z"/>
<path d="M84.3,65.8c-0.9,0-1.6-0.7-1.6-1.6c0-0.1,0-0.2,0-0.3c0.2-1.2,1.1-2.1,2.2-2.3c0.9-0.2,1.7,0.3,1.9,1.2
	c0.1,0.2,0.1,0.5,0,0.7C86.7,64.8,85.6,65.7,84.3,65.8z M84.4,64.6c0.7-0.1,1.2-0.6,1.3-1.3c0.1-0.4-0.1-0.6-0.5-0.5
	c-0.6,0.1-1.1,0.6-1.3,1.3c-0.1,0.2,0.1,0.4,0.3,0.5C84.3,64.6,84.3,64.6,84.4,64.6L84.4,64.6z"/>
<path d="M68.6,74.9c1.3,0,2.6,1.4,2.6,2.7c0,1.1-1.1,1.8-2.2,1.5c-1.1-0.3-1.9-1.2-2-2.3c-0.1-0.9,0.5-1.7,1.4-1.8
	C68.5,74.9,68.6,74.9,68.6,74.9z M69.6,77.9c0.2,0,0.4-0.2,0.4-0.4c0,0,0-0.1,0-0.1c-0.1-0.7-0.6-1.2-1.3-1.3
	c-0.2-0.1-0.5,0.1-0.5,0.3c0,0,0,0.1,0,0.1C68.2,77,69,77.9,69.6,77.9L69.6,77.9z"/>
<path d="M69.6,70.6c-1.4-0.1-2.5-1.2-2.6-2.6c0-0.9,0.7-1.6,1.6-1.6c0.2,0,0.3,0,0.5,0.1c1.1,0.3,2,1.2,2.1,2.4
	c0.1,0.9-0.5,1.7-1.4,1.8C69.8,70.6,69.7,70.6,69.6,70.6z M68.6,67.6c-0.2,0-0.4,0.1-0.4,0.3c0,0,0,0,0,0c-0.1,0.6,0.8,1.5,1.4,1.4
	c0.2,0,0.4-0.1,0.4-0.4c0,0,0,0,0,0C70.1,68.4,69.3,67.6,68.6,67.6z"/>
<path d="M61.7,74.2c-1.4-0.1-2.5-1.2-2.6-2.6c0-0.9,0.7-1.6,1.6-1.6c0.1,0,0.3,0,0.4,0.1c1.1,0.3,2,1.2,2.1,2.3
	c0.1,0.9-0.5,1.7-1.3,1.8C61.9,74.2,61.8,74.3,61.7,74.2z M60.8,71.2c-0.2,0-0.4,0.1-0.4,0.3c0,0,0,0,0,0.1c0.1,0.7,0.7,1.3,1.4,1.4
	c0.2,0,0.4-0.1,0.4-0.3c0,0,0,0,0,0C62.1,71.9,61.5,71.3,60.8,71.2L60.8,71.2z"/>
<path d="M61.7,65.8c-1.5,0-2.8-1.7-2.5-3c0.2-0.8,1-1.3,1.8-1.2c1.2,0.2,2.2,1.2,2.4,2.4c0.1,0.9-0.5,1.7-1.4,1.8
	C61.9,65.8,61.8,65.8,61.7,65.8z M62.2,64.2c-0.1-0.7-0.6-1.3-1.4-1.4c-0.2,0-0.4,0.1-0.5,0.3c0,0,0,0.1,0,0.1
	c0.1,0.7,0.6,1.2,1.3,1.3c0.2,0.1,0.5-0.1,0.5-0.3C62.2,64.2,62.2,64.2,62.2,64.2L62.2,64.2z"/>
<path class="st3" d="M73,57.9c-0.6,0-1.2-0.4-1.2-0.9c0-0.5,0.6-0.9,1.2-0.9h0c0.7,0,1.2,0.4,1.2,0.9C74.2,57.6,73.7,57.9,73,57.9z"
	/>
</svg>
