<?xml version="1.0" encoding="utf-8"?>
<!-- Generator: Adobe Illustrator 24.2.3, SVG Export Plug-In . SVG Version: 6.00 Build 0)  -->
<svg version="1.1" id="Layer_1" xmlns="http://www.w3.org/2000/svg" xmlns:xlink="http://www.w3.org/1999/xlink" x="0px" y="0px"
	 viewBox="0 0 103 103" style="enable-background:new 0 0 103 103;" xml:space="preserve">
<style type="text/css">
	.st0{fill:#FFFFFF;stroke:#070606;stroke-width:3;stroke-miterlimit:10;}
	.st1{fill:#888988;}
	.st2{fill:#040000;}
</style>
<g id="Four_Color_Sequence_Plot">
	<path id="square" class="st0" d="M9.3,1.5h84.4c4.3,0,7.8,3.5,7.8,7.8v84.4c0,4.3-3.5,7.8-7.8,7.8H9.3c-4.3,0-7.8-3.5-7.8-7.8V9.3
		C1.5,5,5,1.5,9.3,1.5z"/>
</g>
<g id="text">
	<rect x="9.8" y="32.8" class="st1" width="83.4" height="5.6"/>
	<rect x="9.8" y="43.8" class="st2" width="14.9" height="4"/>
	<rect x="26.3" y="43.8" class="st2" width="14.9" height="4"/>
	<rect x="42.8" y="43.8" class="st2" width="14.9" height="4"/>
	<rect x="59.4" y="43.8" class="st2" width="14.9" height="4"/>
	<rect x="75.8" y="43.8" class="st2" width="14.9" height="4"/>
	<rect x="9.8" y="66.1" class="st2" width="14.9" height="4"/>
	<rect x="26.3" y="66.1" class="st2" width="14.9" height="4"/>
	<rect x="42.8" y="66.1" class="st2" width="14.9" height="4"/>
	<rect x="59.4" y="66.1" class="st2" width="14.9" height="4"/>
	<rect x="9.8" y="55.5" class="st1" width="83.4" height="5.6"/>
</g>
</svg>
