<?xml version="1.0" encoding="utf-8"?>
<!-- Generator: Adobe Illustrator 24.2.3, SVG Export Plug-In . SVG Version: 6.00 Build 0)  -->
<svg version="1.1" xmlns="http://www.w3.org/2000/svg" xmlns:xlink="http://www.w3.org/1999/xlink" x="0px" y="0px"
	 viewBox="0 0 103 103" style="enable-background:new 0 0 103 103;" xml:space="preserve">
<style type="text/css">
	.st0{fill:#FFFFFF;stroke:#070606;stroke-width:3;stroke-miterlimit:10;}
	.st1{fill:#FFFFFF;stroke:#070606;stroke-width:5;stroke-linecap:round;stroke-linejoin:round;}
	.st2{enable-background:new    ;}
	.st3{fill:#231815;}
</style>
<g id="Layer_1">
	<g id="a">
	</g>
	<g id="Four_Color_Sequence_Plot">
		<path id="square" class="st0" d="M9.3,1.5h84.4c4.3,0,7.8,3.5,7.8,7.8v84.4c0,4.3-3.5,7.8-7.8,7.8H9.3c-4.3,0-7.8-3.5-7.8-7.8V9.3
			C1.5,5,5,1.5,9.3,1.5z"/>
	</g>
</g>
<g id="Layer_3">
</g>
<g id="Layer_2">
	<g>
		<g id="c_1_">
			<path class="st1" d="M78.1,9.6c0.1,0.1,0.3,0.1,0.4,0.2c2.3,0.7,3.8,2.7,3.8,5.1c0,24.3,0,48.6,0,73c0,3-2.3,5.3-5.3,5.3
				c-17.4,0-34.7,0-52.1,0c-3,0-5.3-2.3-5.3-5.2c0-18.5,0-37,0-55.5c0-0.5,0.3-1.1,0.6-1.5c6.6-6.7,13.3-13.3,19.9-19.9
				c0.5-0.5,1-0.9,1.4-1.3H78.1z"/>
			<path class="st1" d="M42.6,10.8c0,0.5,0,0.8,0,1.1c0,4.8,0,9.5,0,14.3c0,2.8-1.5,4.8-4,5.4c-0.6,0.2-1.2,0.2-1.9,0.2
				c-4.7,0-9.4,0-14,0c-0.3,0-0.7,0-1.1,0"/>
		</g>
		<g id="d_1_">
			<g class="st2">
				<path class="st3" d="M30.3,45.1c0-0.4,0.2-0.5,0.5-0.5h8c0.7,0,1.4,0.1,2,0.4c0.6,0.3,1.2,0.6,1.6,1.1c0.5,0.5,0.8,1,1.1,1.6
					c0.3,0.6,0.4,1.3,0.4,2c0,0.6-0.1,1.2-0.3,1.7c-0.2,0.5-0.4,1-0.8,1.4c0.6,0.5,1,1.2,1.4,1.9c0.3,0.7,0.5,1.5,0.5,2.3
					c0,0.7-0.1,1.4-0.4,2.1c-0.3,0.6-0.7,1.2-1.1,1.7c-0.5,0.5-1,0.9-1.7,1.2c-0.6,0.3-1.3,0.4-2,0.4h-8.7c-0.3,0-0.5-0.2-0.5-0.5
					V45.1z M35,48.1v3.5h2.5c0.3,0,0.5,0,0.7-0.1c0.2-0.1,0.4-0.2,0.6-0.4c0.2-0.2,0.3-0.3,0.4-0.5c0.1-0.2,0.1-0.4,0.1-0.7
					c0-0.2,0-0.5-0.1-0.7c-0.1-0.2-0.2-0.4-0.4-0.5c-0.2-0.2-0.4-0.3-0.6-0.4c-0.2-0.1-0.5-0.1-0.7-0.1H35z M35,54.8v4h3.2
					c0.2,0,0.5-0.1,0.7-0.2s0.4-0.3,0.6-0.4c0.2-0.2,0.3-0.4,0.4-0.6C40,57.3,40,57,40,56.8c0-0.2,0-0.5-0.1-0.7
					c-0.1-0.2-0.2-0.5-0.4-0.6c-0.2-0.2-0.4-0.3-0.6-0.5c-0.2-0.1-0.5-0.2-0.7-0.2H35z"/>
				<path class="st3" d="M52.3,45.1c0.1-0.4,0.4-0.5,0.7-0.5H56c0.3,0,0.6,0.2,0.7,0.5l6.5,16.7c0.1,0.3,0,0.5-0.3,0.5h-3.6
					c-0.4,0-0.6-0.2-0.7-0.5l-0.8-2.3h-6.5l-0.8,2.3c-0.1,0.3-0.4,0.5-0.7,0.5h-3.6c-0.4,0-0.5-0.2-0.3-0.5L52.3,45.1z M54.5,50.2
					l-1.9,5.4h3.8L54.5,50.2z"/>
				<path class="st3" d="M65.6,45.1c0-0.4,0.2-0.5,0.5-0.5h3.6c0.3,0,0.5,0.2,0.5,0.5v16.7c0,0.3-0.2,0.5-0.5,0.5h-3.6
					c-0.3,0-0.5-0.2-0.5-0.5V45.1z"/>
			</g>
		</g>
	</g>
</g>
</svg>
