<?xml version="1.0" encoding="utf-8"?>
<!-- Generator: Adobe Illustrator 24.2.3, SVG Export Plug-In . SVG Version: 6.00 Build 0)  -->
<svg version="1.1" id="Layer_1" xmlns="http://www.w3.org/2000/svg" xmlns:xlink="http://www.w3.org/1999/xlink" x="0px" y="0px"
	 viewBox="0 0 103 103" style="enable-background:new 0 0 103 103;" xml:space="preserve">
<style type="text/css">
	.st0{fill:#FFFFFF;stroke:#070606;stroke-width:3;stroke-miterlimit:10;}
	.st1{fill:none;stroke:#040000;stroke-width:2;stroke-linecap:round;stroke-linejoin:round;}
	.st2{fill:none;stroke:#070606;stroke-width:2;stroke-linecap:round;stroke-linejoin:round;}
	.st3{fill:#070606;stroke:#070606;stroke-width:0.8;stroke-miterlimit:10;}
	.st4{enable-background:new    ;}
	.st5{fill:#231815;}
</style>
<g id="Four_Color_Sequence_Plot">
	<path id="square" class="st0" d="M9.3,1.5h84.4c4.3,0,7.8,3.5,7.8,7.8v84.4c0,4.3-3.5,7.8-7.8,7.8H9.3c-4.3,0-7.8-3.5-7.8-7.8V9.3
		C1.5,5,5,1.5,9.3,1.5z"/>
</g>
<line class="st1" x1="57.7" y1="23.9" x2="45.3" y2="23.9"/>
<line class="st2" x1="51.5" y1="24.1" x2="51.5" y2="37.5"/>
<polygon class="st3" points="47.2,34 48,33.3 51.5,37.1 55,33.3 55.8,34 51.5,38.7 "/>
<path class="st2" d="M40.5,10.6l0.1,0.1c0.7,0.2,1.2,0.8,1.2,1.6v22.6c0,0.9-0.7,1.6-1.6,1.6c0,0,0,0-0.1,0H24.1
	c-0.9,0-1.6-0.7-1.6-1.6c0,0,0,0,0-0.1c0-5.7,0-11.5,0-17.2c0-0.2,0.1-0.3,0.2-0.5c2.1-2.1,4.1-4.1,6.2-6.2c0.1-0.1,0.3-0.3,0.4-0.4
	L40.5,10.6z"/>
<path class="st2" d="M29.5,11v0.3c0,1.5,0,2.9,0,4.4c0.1,0.8-0.5,1.5-1.2,1.7c-0.2,0-0.4,0.1-0.6,0.1H23"/>
<g class="st4">
	<path class="st5" d="M23.6,22.8c0-0.1,0.1-0.2,0.2-0.2h2.5c0.2,0,0.4,0,0.6,0.1c0.2,0.1,0.4,0.2,0.5,0.3s0.3,0.3,0.3,0.5
		s0.1,0.4,0.1,0.6c0,0.2,0,0.4-0.1,0.5c-0.1,0.2-0.1,0.3-0.2,0.4c0.2,0.2,0.3,0.4,0.4,0.6s0.2,0.5,0.2,0.7c0,0.2,0,0.4-0.1,0.6
		s-0.2,0.4-0.4,0.5c-0.1,0.2-0.3,0.3-0.5,0.4c-0.2,0.1-0.4,0.1-0.6,0.1h-2.7c-0.1,0-0.2-0.1-0.2-0.2V22.8z M25.1,23.7v1.1h0.8
		c0.1,0,0.2,0,0.2,0c0.1,0,0.1-0.1,0.2-0.1s0.1-0.1,0.1-0.2s0-0.1,0-0.2c0-0.1,0-0.1,0-0.2s-0.1-0.1-0.1-0.2c-0.1,0-0.1-0.1-0.2-0.1
		s-0.1,0-0.2,0H25.1z M25.1,25.8V27h1c0.1,0,0.2,0,0.2-0.1c0.1,0,0.1-0.1,0.2-0.1c0.1-0.1,0.1-0.1,0.1-0.2c0-0.1,0-0.2,0-0.2
		c0-0.1,0-0.1,0-0.2c0-0.1-0.1-0.1-0.1-0.2c-0.1-0.1-0.1-0.1-0.2-0.1c-0.1,0-0.1-0.1-0.2-0.1H25.1z"/>
	<path class="st5" d="M30.4,22.8c0-0.1,0.1-0.2,0.2-0.2h0.9c0.1,0,0.2,0.1,0.2,0.2l2,5.2c0,0.1,0,0.2-0.1,0.2h-1.1
		c-0.1,0-0.2-0.1-0.2-0.2l-0.3-0.7h-2L29.9,28c0,0.1-0.1,0.2-0.2,0.2h-1.1c-0.1,0-0.1-0.1-0.1-0.2L30.4,22.8z M31.1,24.4l-0.6,1.7
		h1.2L31.1,24.4z"/>
	<path class="st5" d="M36,25l-0.3,3c0,0.1,0,0.1,0,0.1c0,0-0.1,0-0.1,0h-1.1c-0.1,0-0.1,0-0.1,0c0,0,0-0.1,0-0.1l0.6-5.2
		c0-0.1,0-0.1,0-0.1s0.1,0,0.1,0h1.3c0.1,0,0.1,0,0.1,0c0,0,0,0.1,0.1,0.1l1,3.3l1-3.3c0-0.1,0-0.1,0.1-0.1c0,0,0.1,0,0.1,0H40
		c0.1,0,0.1,0,0.1,0c0,0,0,0.1,0,0.1l0.6,5.2c0,0.1,0,0.1,0,0.1c0,0-0.1,0-0.1,0h-1.1c-0.1,0-0.1,0-0.1,0c0,0,0-0.1,0-0.1L39,25.1
		L38.2,28c0,0.1,0,0.1-0.1,0.1c0,0-0.1,0-0.1,0h-0.9c-0.1,0-0.1,0-0.1,0c0,0,0-0.1-0.1-0.1L36,25z"/>
</g>
<path class="st2" d="M79.3,10.6l0.1,0.1c0.7,0.2,1.2,0.8,1.2,1.6v22.6c0,0.9-0.7,1.6-1.6,1.6c0,0,0,0-0.1,0H62.8
	c-0.9,0-1.6-0.7-1.6-1.6c0,0,0,0,0-0.1c0-5.7,0-11.5,0-17.2c0-0.2,0.1-0.3,0.2-0.5c2.1-2.1,4.1-4.1,6.2-6.2c0.1-0.1,0.3-0.3,0.4-0.4
	L79.3,10.6z"/>
<path class="st2" d="M68.2,11v0.3c0,1.5,0,2.9,0,4.4c0.1,0.8-0.5,1.5-1.2,1.7c-0.2,0-0.4,0.1-0.6,0.1h-4.7"/>
<g class="st4">
	<path class="st5" d="M62.4,22.8c0-0.1,0.1-0.2,0.2-0.2H65c0.2,0,0.4,0,0.6,0.1c0.2,0.1,0.4,0.2,0.5,0.3s0.3,0.3,0.3,0.5
		c0.1,0.2,0.1,0.4,0.1,0.6c0,0.2,0,0.4-0.1,0.5c-0.1,0.2-0.1,0.3-0.2,0.4c0.2,0.2,0.3,0.4,0.4,0.6c0.1,0.2,0.2,0.5,0.2,0.7
		c0,0.2,0,0.4-0.1,0.6c-0.1,0.2-0.2,0.4-0.4,0.5c-0.1,0.2-0.3,0.3-0.5,0.4c-0.2,0.1-0.4,0.1-0.6,0.1h-2.7c-0.1,0-0.2-0.1-0.2-0.2
		V22.8z M63.8,23.7v1.1h0.8c0.1,0,0.2,0,0.2,0c0.1,0,0.1-0.1,0.2-0.1c0,0,0.1-0.1,0.1-0.2c0-0.1,0-0.1,0-0.2c0-0.1,0-0.1,0-0.2
		c0-0.1-0.1-0.1-0.1-0.2c-0.1,0-0.1-0.1-0.2-0.1s-0.1,0-0.2,0H63.8z M63.8,25.8V27h1c0.1,0,0.2,0,0.2-0.1c0.1,0,0.1-0.1,0.2-0.1
		s0.1-0.1,0.1-0.2c0-0.1,0-0.2,0-0.2c0-0.1,0-0.1,0-0.2c0-0.1-0.1-0.1-0.1-0.2c-0.1-0.1-0.1-0.1-0.2-0.1c-0.1,0-0.1-0.1-0.2-0.1
		H63.8z"/>
	<path class="st5" d="M69.2,22.8c0-0.1,0.1-0.2,0.2-0.2h0.9c0.1,0,0.2,0.1,0.2,0.2l2,5.2c0,0.1,0,0.2-0.1,0.2h-1.1
		c-0.1,0-0.2-0.1-0.2-0.2l-0.3-0.7h-2L68.6,28c0,0.1-0.1,0.2-0.2,0.2h-1.1c-0.1,0-0.1-0.1-0.1-0.2L69.2,22.8z M69.9,24.4l-0.6,1.7
		h1.2L69.9,24.4z"/>
	<path class="st5" d="M74.8,25l-0.3,3c0,0.1,0,0.1,0,0.1c0,0-0.1,0-0.1,0h-1.1c-0.1,0-0.1,0-0.1,0c0,0,0-0.1,0-0.1l0.6-5.2
		c0-0.1,0-0.1,0-0.1c0,0,0.1,0,0.1,0h1.3c0.1,0,0.1,0,0.1,0c0,0,0,0.1,0.1,0.1l1,3.3l1-3.3c0-0.1,0-0.1,0.1-0.1c0,0,0.1,0,0.1,0h1.3
		c0.1,0,0.1,0,0.1,0s0,0.1,0,0.1l0.6,5.2c0,0.1,0,0.1,0,0.1c0,0-0.1,0-0.1,0h-1.1c-0.1,0-0.1,0-0.1,0c0,0,0-0.1,0-0.1l-0.3-2.9
		L76.9,28c0,0.1,0,0.1-0.1,0.1c0,0-0.1,0-0.1,0h-0.9c-0.1,0-0.1,0-0.1,0c0,0,0-0.1-0.1-0.1L74.8,25z"/>
</g>
<path class="st2" d="M66.1,41c0.1,0,0.2,0.1,0.3,0.1c1.4,0.4,2.4,1.7,2.3,3.1c0,15,0,29.9,0,44.9c0,1.8-1.4,3.2-3.1,3.2
	c0,0-0.1,0-0.1,0H33.4c-1.8,0-3.2-1.3-3.2-3.1c0,0,0-0.1,0-0.1c0-11.4,0-22.8,0-34.2c0-0.3,0.2-0.7,0.4-0.9
	c4.1-4.1,8.2-8.2,12.3-12.3c0.3-0.3,0.6-0.5,0.9-0.8L66.1,41z"/>
<path class="st2" d="M44.2,41.7v0.7c0,2.9,0,5.9,0,8.8c0,1.7-0.9,2.9-2.4,3.3c-0.4,0.1-0.8,0.1-1.2,0.1c-2.9,0-5.8,0-8.6,0h-0.6"/>
<g class="st4">
	<path class="st5" d="M32.6,64.3c0-0.2,0.1-0.3,0.3-0.3h4.9c0.4,0,0.8,0.1,1.2,0.2c0.4,0.2,0.7,0.4,1,0.7c0.3,0.3,0.5,0.6,0.7,1
		s0.2,0.8,0.2,1.2c0,0.4-0.1,0.7-0.2,1c-0.1,0.3-0.3,0.6-0.5,0.9c0.3,0.3,0.6,0.7,0.8,1.2s0.3,0.9,0.3,1.4c0,0.4-0.1,0.9-0.3,1.3
		c-0.2,0.4-0.4,0.8-0.7,1.1c-0.3,0.3-0.6,0.5-1,0.7c-0.4,0.2-0.8,0.3-1.2,0.3h-5.3c-0.2,0-0.3-0.1-0.3-0.3V64.3z M35.4,66.1v2.1H37
		c0.2,0,0.3,0,0.5-0.1s0.3-0.1,0.4-0.2c0.1-0.1,0.2-0.2,0.2-0.3c0.1-0.1,0.1-0.3,0.1-0.4c0-0.1,0-0.3-0.1-0.4
		c-0.1-0.1-0.1-0.2-0.2-0.3c-0.1-0.1-0.2-0.2-0.4-0.2c-0.1-0.1-0.3-0.1-0.4-0.1H35.4z M35.4,70.3v2.5h2c0.2,0,0.3,0,0.4-0.1
		s0.3-0.2,0.4-0.3c0.1-0.1,0.2-0.2,0.2-0.4c0.1-0.1,0.1-0.3,0.1-0.5c0-0.1,0-0.3-0.1-0.4c-0.1-0.1-0.1-0.3-0.2-0.4
		c-0.1-0.1-0.2-0.2-0.4-0.3c-0.1-0.1-0.3-0.1-0.5-0.1H35.4z"/>
	<path class="st5" d="M46.1,64.3c0.1-0.2,0.2-0.3,0.5-0.3h1.8c0.2,0,0.4,0.1,0.4,0.3l4,10.3c0.1,0.2,0,0.3-0.2,0.3h-2.2
		c-0.2,0-0.4-0.1-0.4-0.3l-0.5-1.4h-4L45,74.6c-0.1,0.2-0.2,0.3-0.4,0.3h-2.2c-0.2,0-0.3-0.1-0.2-0.3L46.1,64.3z M47.4,67.4
		l-1.2,3.4h2.4L47.4,67.4z"/>
	<path class="st5" d="M57.2,68.7l-0.6,5.9c0,0.1,0,0.2-0.1,0.2c0,0.1-0.1,0.1-0.2,0.1h-2.1c-0.1,0-0.2,0-0.2-0.1
		c-0.1-0.1-0.1-0.1-0.1-0.2l1.1-10.3c0-0.1,0-0.2,0.1-0.2s0.1-0.1,0.2-0.1h2.6c0.1,0,0.2,0,0.2,0.1s0.1,0.1,0.1,0.2l2,6.6l2-6.6
		c0-0.1,0.1-0.2,0.1-0.2c0-0.1,0.1-0.1,0.2-0.1h2.6c0.1,0,0.2,0,0.2,0.1s0.1,0.1,0.1,0.2l1.1,10.3c0,0.1,0,0.2-0.1,0.2
		c-0.1,0.1-0.1,0.1-0.2,0.1h-2.1c-0.1,0-0.2,0-0.2-0.1s-0.1-0.1-0.1-0.2l-0.6-5.8l-1.7,5.8c0,0.1-0.1,0.2-0.1,0.3s-0.1,0.1-0.2,0.1
		h-1.8c-0.1,0-0.2,0-0.2-0.1s-0.1-0.1-0.1-0.3L57.2,68.7z"/>
</g>
</svg>
