<?xml version="1.0" encoding="utf-8"?>
<!-- Generator: Adobe Illustrator 24.2.3, SVG Export Plug-In . SVG Version: 6.00 Build 0)  -->
<svg version="1.1" id="Layer_1" xmlns="http://www.w3.org/2000/svg" xmlns:xlink="http://www.w3.org/1999/xlink" x="0px" y="0px"
	 viewBox="0 0 103 103" style="enable-background:new 0 0 103 103;" xml:space="preserve">
<style type="text/css">
	.st0{fill:#FFFFFF;stroke:#070606;stroke-width:3;stroke-miterlimit:10;}
	.st1{fill:none;stroke:#221E1F;stroke-width:5;stroke-linecap:round;stroke-miterlimit:10;}
	.st2{fill:none;stroke:#221E1F;stroke-width:5;stroke-linecap:round;stroke-linejoin:round;}
</style>
<g id="Four_Color_Sequence_Plot">
	<path id="square" class="st0" d="M9.3,1.5h84.4c4.3,0,7.8,3.5,7.8,7.8v84.4c0,4.3-3.5,7.8-7.8,7.8H9.3c-4.3,0-7.8-3.5-7.8-7.8V9.3
		C1.5,5,5,1.5,9.3,1.5z"/>
</g>
<g id="Mark_Duplicates">
	<path class="st1" d="M29.9,61.1V47.4c0-3.9,3.1-7,7-7l0,0h19.6c3.9,0,7,3.1,7,7l0,0V67c0,3.9-3.1,7-7,7H40.8"/>
	<path class="st1" d="M49.5,32.2v-2.4c0-3.9,3.1-7,7-7h19.6c3.9,0,7,3.1,7,7l0,0v19.6c0,3.9-3.1,7-7,7H71"/>
	<line class="st2" x1="19.9" y1="74" x2="32.2" y2="74"/>
	<line class="st2" x1="26.3" y1="67.8" x2="26.3" y2="80.1"/>
</g>
</svg>
