<?xml version="1.0" encoding="utf-8"?>
<!-- Generator: Adobe Illustrator 24.2.3, SVG Export Plug-In . SVG Version: 6.00 Build 0)  -->
<svg version="1.1" id="Layer_1" xmlns="http://www.w3.org/2000/svg" xmlns:xlink="http://www.w3.org/1999/xlink" x="0px" y="0px"
	 viewBox="0 0 103 103" style="enable-background:new 0 0 103 103;" xml:space="preserve">
<style type="text/css">
	.st0{fill:#FFFFFF;stroke:#070606;stroke-width:3;stroke-miterlimit:10;}
	.st1{fill:none;stroke:#070606;stroke-width:2;stroke-miterlimit:10;}
	.st2{fill:#070606;}
	.st3{fill:#221E1F;}
	.st4{fill:none;stroke:#070606;stroke-miterlimit:10;}
</style>
<g id="Four_Color_Sequence_Plot">
	<path id="square" class="st0" d="M9.3,1.5h84.4c4.3,0,7.8,3.5,7.8,7.8v84.4c0,4.3-3.5,7.8-7.8,7.8H9.3c-4.3,0-7.8-3.5-7.8-7.8V9.3
		C1.5,5,5,1.5,9.3,1.5z"/>
</g>
<line class="st1" x1="52" y1="38.4" x2="52" y2="51.8"/>
<polygon class="st2" points="47.7,48.3 48.5,47.6 52,51.4 55.6,47.6 56.3,48.3 52,53 "/>
<rect x="14.7" y="20.5" class="st3" width="74.7" height="3.3"/>
<rect x="14.7" y="30.3" class="st3" width="25.1" height="3.3"/>
<rect x="63.9" y="30.3" class="st3" width="25.1" height="3.3"/>
<rect x="17.4" y="59.4" class="st3" width="9.1" height="3.3"/>
<rect x="22.6" y="65.9" class="st3" width="9.1" height="3.3"/>
<rect x="27.5" y="72.5" class="st3" width="9.1" height="3.3"/>
<rect x="36.4" y="59.4" class="st3" width="9.1" height="3.3"/>
<rect x="37.9" y="65.9" class="st3" width="9.1" height="3.3"/>
<rect x="39.7" y="72.5" class="st3" width="9.1" height="3.3"/>
<rect x="46.6" y="59.4" class="st3" width="9.1" height="3.3"/>
<rect x="60.2" y="65.9" class="st3" width="9.1" height="3.3"/>
<rect x="53.5" y="72.5" class="st3" width="9.1" height="3.3"/>
<rect x="13.6" y="79.1" class="st3" width="75.1" height="3.3"/>
<rect x="70.8" y="72.5" class="st3" width="9.1" height="3.3"/>
<rect x="64.1" y="59.4" class="st3" width="9.1" height="3.3"/>
<rect x="74.3" y="65.9" class="st3" width="9.1" height="3.3"/>
<line class="st4" x1="25.8" y1="61.1" x2="36.7" y2="61.1"/>
<line class="st4" x1="28.7" y1="67.6" x2="39.7" y2="67.6"/>
<line class="st4" x1="32.7" y1="74.1" x2="43.6" y2="74.1"/>
<line class="st4" x1="66.7" y1="67.6" x2="77.7" y2="67.6"/>
<line class="st4" x1="60.7" y1="74.1" x2="71.7" y2="74.1"/>
<line class="st4" x1="54.5" y1="61.1" x2="65.4" y2="61.1"/>
</svg>
