<?xml version="1.0" encoding="utf-8"?>
<!-- Generator: Adobe Illustrator 24.2.3, SVG Export Plug-In . SVG Version: 6.00 Build 0)  -->
<svg version="1.1" id="Layer_1" xmlns="http://www.w3.org/2000/svg" xmlns:xlink="http://www.w3.org/1999/xlink" x="0px" y="0px"
	 viewBox="0 0 103 103" style="enable-background:new 0 0 103 103;" xml:space="preserve">
<style type="text/css">
	.st0{fill:#FFFFFF;stroke:#070606;stroke-width:3;stroke-miterlimit:10;}
	.st1{fill:#070606;}
	.st2{fill:none;stroke:#070606;stroke-width:2;stroke-miterlimit:10;}
</style>
<g id="Four_Color_Sequence_Plot">
	<path id="square" class="st0" d="M9.3,1.5h84.4c4.3,0,7.8,3.5,7.8,7.8v84.4c0,4.3-3.5,7.8-7.8,7.8H9.3c-4.3,0-7.8-3.5-7.8-7.8V9.3
		C1.5,5,5,1.5,9.3,1.5z"/>
</g>
<rect x="13.6" y="30.2" class="st1" width="22.5" height="3.3"/>
<rect x="13.6" y="20.5" class="st1" width="75.7" height="3.3"/>
<rect x="13.6" y="79.1" class="st1" width="75.7" height="3.3"/>
<rect x="15.4" y="72.5" class="st1" width="7.7" height="3.3"/>
<rect x="28.6" y="72.5" class="st1" width="7.7" height="3.3"/>
<rect x="39.2" y="72.5" class="st1" width="7.7" height="3.3"/>
<rect x="55.9" y="72.5" class="st1" width="7.7" height="3.3"/>
<rect x="67.1" y="72.5" class="st1" width="7.7" height="3.3"/>
<rect x="80.2" y="72.5" class="st1" width="7.7" height="3.3"/>
<rect x="17" y="65.9" class="st1" width="7.7" height="3.3"/>
<rect x="31.8" y="65.9" class="st1" width="7.7" height="3.3"/>
<rect x="46.8" y="65.9" class="st1" width="7.7" height="3.3"/>
<rect x="61.6" y="65.9" class="st1" width="7.7" height="3.3"/>
<rect x="76.7" y="65.9" class="st1" width="7.7" height="3.3"/>
<rect x="36.7" y="59.4" class="st1" width="7.7" height="3.3"/>
<rect x="15.1" y="59.4" class="st1" width="7.7" height="3.3"/>
<rect x="47.9" y="59.4" class="st1" width="7.7" height="3.3"/>
<rect x="66.4" y="59.4" class="st1" width="7.7" height="3.3"/>
<line class="st2" x1="51.9" y1="38.4" x2="51.9" y2="51.8"/>
<polygon class="st1" points="47.6,48.3 48.3,47.6 51.9,51.4 55.4,47.6 56.2,48.3 51.9,53 "/>
</svg>
