<?xml version="1.0" encoding="utf-8"?>
<!-- Generator: Adobe Illustrator 24.2.3, SVG Export Plug-In . SVG Version: 6.00 Build 0)  -->
<svg version="1.1" id="Layer_1" xmlns="http://www.w3.org/2000/svg" xmlns:xlink="http://www.w3.org/1999/xlink" x="0px" y="0px"
	 viewBox="0 0 103 103" style="enable-background:new 0 0 103 103;" xml:space="preserve">
<style type="text/css">
	.st0{fill:#FFFFFF;stroke:#070606;stroke-width:3;stroke-miterlimit:10;}
	.st1{fill:#231815;}
	.st2{font-family:'COCOGOOSE';}
	.st3{font-size:30.0977px;}
</style>
<path id="square" class="st0" d="M9.3,1.5h84.4c4.3,0,7.8,3.5,7.8,7.8v84.4c0,4.3-3.5,7.8-7.8,7.8H9.3c-4.3,0-7.8-3.5-7.8-7.8V9.3
	C1.5,5,5,1.5,9.3,1.5z"/>
<text transform="matrix(1 0 0 1 37.375 82.3674)" class="st1 st2 st3">VIII</text>
<text transform="matrix(1 0 0 1 17.1836 39.2385)" class="st1 st2 st3">8</text>
<path d="M29.8,74.5c-1.6-0.5-3.2-0.9-4.7-1.6C16.5,69.4,10.8,61,10.6,51.7c0-1.4,1-2.2,2.1-1.7c0.8,0.3,0.9,1,0.9,1.7
	c0,2.5,0.5,5,1.5,7.3c2.8,6.5,7.7,10.6,14.6,12.3c0.1,0,0.2,0,0.3,0c-0.5-0.5-0.9-0.9-1.3-1.3c-0.7-0.8-0.8-1.6-0.2-2.2
	c0.6-0.6,1.5-0.6,2.3,0.2c1.4,1.4,2.7,2.7,4.1,4.1c1,1,0.9,1.9-0.3,2.7c-1.6,1.1-3.1,2.2-4.7,3.3c-0.9,0.6-1.8,0.5-2.3-0.2
	c-0.5-0.7-0.3-1.6,0.6-2.2L29.8,74.5z"/>
<path d="M52,24.9c0.8,0.2,1.6,0.4,2.3,0.6c9.4,2.7,16.1,10.9,16.8,20.7c0,0.5,0.1,1.1,0.1,1.6c0,1-0.6,1.7-1.5,1.7
	c-0.9,0-1.4-0.6-1.6-1.7c-0.2-1.6-0.2-3.3-0.7-4.9C65.3,35,60.1,30.1,52.2,28c-0.1,0-0.1,0-0.2,0l-0.2,0.2c0.5,0.4,0.9,0.7,1.4,1.1
	c0.8,0.7,0.8,1.6,0.1,2.2c-0.6,0.6-1.5,0.6-2.2-0.2c-1.4-1.4-2.8-2.8-4.2-4.2c-0.9-0.9-0.8-1.9,0.2-2.6c1.6-1.2,3.3-2.3,4.9-3.4
	c0.8-0.6,1.7-0.4,2.2,0.3c0.5,0.7,0.3,1.6-0.5,2.1C53.2,24.1,52.6,24.4,52,24.9z"/>
</svg>
