<?xml version="1.0" encoding="utf-8"?>
<!-- Generator: Adobe Illustrator 24.2.3, SVG Export Plug-In . SVG Version: 6.00 Build 0)  -->
<svg version="1.1" id="Layer_1" xmlns="http://www.w3.org/2000/svg" xmlns:xlink="http://www.w3.org/1999/xlink" x="0px" y="0px"
	 viewBox="0 0 103 103" style="enable-background:new 0 0 103 103;" xml:space="preserve">
<style type="text/css">
	.st0{fill:#FFFFFF;stroke:#070606;stroke-width:3;stroke-miterlimit:10;}
	.st1{fill:none;stroke:#040000;stroke-width:3;stroke-linecap:round;stroke-linejoin:round;}
	.st2{fill:#231815;}
	.st3{font-family:'CocogoosePro';}
	.st4{font-size:5.4688px;}
	.st5{font-size:7.0312px;}
	.st6{fill:none;stroke:#070606;stroke-width:3;stroke-linecap:round;stroke-miterlimit:10;}
	.st7{fill:none;stroke:#070606;stroke-width:0.75;stroke-linecap:round;stroke-miterlimit:10;}
	.st8{fill:none;stroke:#070606;stroke-width:0.75;stroke-linecap:round;stroke-miterlimit:10;stroke-dasharray:5,5;}
	.st9{fill:none;stroke:#070606;stroke-width:0.75;stroke-linecap:round;stroke-miterlimit:10;stroke-dasharray:5.31,5.31;}
	.st10{fill:none;stroke:#070606;stroke-width:0.75;stroke-linecap:round;stroke-miterlimit:10;stroke-dasharray:5.05,5.05;}
</style>
<path id="square" class="st0" d="M9.3,1.5h84.4c4.3,0,7.8,3.5,7.8,7.8v84.4c0,4.3-3.5,7.8-7.8,7.8H9.3c-4.3,0-7.8-3.5-7.8-7.8V9.3
	C1.5,5,5,1.5,9.3,1.5z"/>
<polyline class="st1" points="70.3,49.9 86,49.9 86,57.7 74.5,69.2 70.3,69.2 "/>
<polyline class="st1" points="71.5,49.9 55.8,49.9 55.8,57.7 67.3,69.2 71.5,69.2 "/>
<line class="st1" x1="55.8" y1="57.7" x2="86" y2="57.7"/>
<polyline class="st1" points="74.4,69.2 74.4,81.2 67.5,77.5 67.5,69.2 "/>
<text transform="matrix(1 0 0 1 26.3672 55.8869)" class="st2 st3 st4">T</text>
<text transform="matrix(1 0 0 1 17.2852 26.1096)" class="st2 st3 st4">T</text>
<text transform="matrix(1 0 0 1 17.4961 80.9103)" class="st2 st3 st5">T</text>
<text transform="matrix(1 0 0 1 27.7109 80.9103)" class="st2 st3 st5">T</text>
<text transform="matrix(1 0 0 1 39.8789 80.9103)" class="st2 st3 st5">T</text>
<text transform="matrix(1 0 0 1 40.5 41.3674)" class="st2 st3 st4">T</text>
<line class="st6" x1="25.1" y1="54.2" x2="17.9" y2="54.2"/>
<line class="st6" x1="51.4" y1="54.2" x2="31.3" y2="54.2"/>
<line class="st6" x1="46.3" y1="69.1" x2="40.4" y2="69.1"/>
<line class="st6" x1="56.9" y1="69.1" x2="51" y2="69.1"/>
<line class="st6" x1="35.1" y1="69.2" x2="17.9" y2="69.2"/>
<line class="st7" x1="17" y1="80.8" x2="17" y2="79.8"/>
<line class="st8" x1="17" y1="77.9" x2="17" y2="24.1"/>
<line class="st7" x1="17" y1="23.1" x2="17" y2="22.2"/>
<line class="st7" x1="26.7" y1="80.8" x2="26.7" y2="79.8"/>
<line class="st9" x1="26.7" y1="77.8" x2="26.7" y2="53.9"/>
<line class="st7" x1="26.7" y1="52.9" x2="26.7" y2="51.9"/>
<line class="st7" x1="39.6" y1="80.8" x2="39.6" y2="79.8"/>
<line class="st10" x1="39.6" y1="77.9" x2="39.6" y2="39.4"/>
<line class="st7" x1="39.6" y1="38.4" x2="39.6" y2="37.4"/>
<line class="st6" x1="36.8" y1="39.2" x2="17.9" y2="39.2"/>
<line class="st6" x1="56.6" y1="39.2" x2="46.3" y2="39.2"/>
<line class="st6" x1="85.5" y1="39.2" x2="62.7" y2="39.2"/>
<line class="st6" x1="42.4" y1="24.3" x2="23.6" y2="24.3"/>
<line class="st6" x1="59.9" y1="24.3" x2="49.5" y2="24.3"/>
</svg>
